<?xml version="1.0" encoding="UTF-8"?>
<svg width="233px" height="237px" viewBox="0 0 233 237" version="1.1" xmlns="http://www.w3.org/2000/svg" xmlns:xlink="http://www.w3.org/1999/xlink">
    <!-- Generator: Sketch 55.2 (78181) - https://sketchapp.com -->
    <title>Group 52</title>
    <desc>Created with Sketch.</desc>
    <defs>
        <polygon id="path-1" points="0 0 232.353431 0 232.353431 236.999997 0 236.999997"></polygon>
        <polygon id="path-3" points="0 237 293.431391 237 293.431391 0 0 0"></polygon>
    </defs>
    <g id="b560" stroke="none" stroke-width="1" fill="none" fill-rule="evenodd">
        <g id="about-lg-master-02" transform="translate(-603.000000, -101.000000)">
            <g id="Group-52" transform="translate(603.000000, 101.000000)">
                <g id="Group-42">
                    <g id="Group-3">
                        <mask id="mask-2" fill="white">
                            <use xlink:href="#path-1"></use>
                        </mask>
                        <g id="Clip-2"></g>
                        <path d="M81.2189836,-0.000166316504 C34.7780195,0.247646484 11.462468,80.3578125 2.76084447,121.536563 C-5.94077907,162.716238 3.15173682,247.191926 70.6459687,235.985807 C81.5558802,234.174979 84.1024492,233.803277 93.0957421,229.275281 C109.102945,221.215893 128.047148,215.545482 145.167033,213.833713 C152.186942,213.131971 161.063475,210.807334 165.761106,209.960244 C203.431683,203.165473 241.875737,166.559619 230.237114,128.203576 C221.496724,99.3988184 195.88843,87.8034082 170.242754,89.3976035 C156.15863,90.2729297 141.169501,81.9862617 138.163737,72.8316738 C128.37343,43.0136484 117.1137,-0.190248047 81.2189836,-0.000166316504" id="Fill-1" fill="#E5E9EC" mask="url(#mask-2)"></path>
                    </g>
                    <path d="M197.947929,84.0937564 L30.8472209,84.0937564 C27.0213678,84.0937564 23.9246882,87.1997525 23.9246882,91.0371158 L23.9246882,185.43903 C23.9246882,189.276393 27.0213678,192.382389 30.8472209,192.382389 L89.0800271,192.382389 L89.0800271,203.260319 C89.0800271,205.121139 91.1567869,206.21819 92.6885126,205.172057 L98.8311066,200.973639 L104.974162,205.172057 C106.505888,206.21819 108.582648,205.121139 108.582648,203.260319 L108.582648,192.382389 L197.947929,192.382389 C201.773782,192.382389 204.870462,189.276393 204.870462,185.43903 L204.870462,91.0371158 C204.870462,87.1997525 201.773782,84.0937564 197.947929,84.0937564" id="Fill-4" fill="#C5CFD6"></path>
                    <path d="M204.870462,78.5390689 L204.870462,172.940983 C204.870462,176.778346 201.773782,179.884342 197.947929,179.884342 L30.8472209,179.884342 C27.0213678,179.884342 23.9246882,176.778346 23.9246882,172.940983 L23.9246882,78.5390689 C23.9246882,74.7017057 27.0213678,71.5957096 30.8472209,71.5957096 L197.947929,71.5957096 C201.773782,71.5957096 204.870462,74.7017057 204.870462,78.5390689" id="Fill-6" fill="#C5CFD6"></path>
                    <path d="M189.62243,71.5957096 L189.62243,168.886061 C189.62243,171.441217 187.555362,173.514967 185.007408,173.514967 L119.012597,173.514967 C117.738851,173.514967 116.585095,172.996993 115.750238,172.158698 C114.914919,171.320866 114.398037,170.163639 114.398037,168.886061 C114.398037,171.441217 112.330507,173.514967 109.783015,173.514967 L43.7877419,173.514967 C41.2402499,173.514967 39.1727201,171.441217 39.1727201,168.886061 L39.1727201,71.5957096 L189.62243,71.5957096 Z" id="Fill-8" fill="#B4CFD6"></path>
                    <path d="M204.873185,78.5386523 L204.873185,158.41043 L23.9227961,158.41043 L23.9227961,78.5386523 C23.9227961,74.7012891 27.0236292,71.595293 30.8453287,71.595293 L197.950652,71.595293 C201.771429,71.595293 204.873185,74.7012891 204.873185,78.5386523" id="Fill-10" fill="#B4CFD6"></path>
                    <path d="M108.582832,162.239091 L108.582832,190.762411 C108.582832,192.623231 106.506072,193.720282 104.973885,192.674149 L98.8312912,188.475731 L92.6886972,192.674149 C91.15651,193.720282 89.0797502,192.623231 89.0797502,190.762411 L89.0797502,162.239091 L108.582832,162.239091 Z" id="Fill-14" fill="#B4CFD6"></path>
                    <mask id="mask-4" fill="white">
                        <use xlink:href="#path-3"></use>
                    </mask>
                    <g id="Clip-17"></g>
                    <polygon id="Fill-16" fill="#B4CFD6" mask="url(#mask-4)" points="89.0796117 173.514551 108.582694 173.514551 108.582694 162.238998 89.0796117 162.238998"></polygon>
                    <path d="M114.397806,73.0815885 L114.397806,160.762331 C114.397806,163.317487 112.330276,165.391237 109.782784,165.391237 L43.7879727,165.391237 C41.2404806,165.391237 39.1729509,163.317487 39.1729509,160.762331 L39.1729509,66.1382291 C39.1729509,63.5830729 41.2404806,61.5093229 43.7879727,61.5093229 L102.860251,61.5093229 C109.233596,61.5093229 114.397806,66.6890689 114.397806,73.0815885" id="Fill-18" fill="#FFFFFF" mask="url(#mask-4)"></path>
                    <path d="M189.620169,66.1377662 L189.620169,160.761868 C189.620169,163.317024 187.557254,165.390774 185.005147,165.390774 L119.010335,165.390774 C116.462843,165.390774 114.395775,163.317024 114.395775,160.761868 L114.395775,73.0811256 C114.395775,66.693235 119.564138,61.50886 125.932868,61.50886 L185.005147,61.50886 C187.557254,61.50886 189.620169,63.58261 189.620169,66.1377662" id="Fill-19" fill="#FFFFFF" mask="url(#mask-4)"></path>
                    <path d="M177.911812,114.357036 L177.911812,123.045956 C177.911812,124.323071 176.883124,125.360409 175.604301,125.360409 L126.422476,125.360409 C125.14873,125.360409 124.114965,124.323071 124.114965,123.045956 L124.114965,114.357036 C124.114965,113.079458 125.14873,112.042583 126.422476,112.042583 L175.604301,112.042583 C176.883124,112.042583 177.911812,113.079458 177.911812,114.357036" id="Fill-21" fill="#89C5CC" mask="url(#mask-4)"></path>
                    <path d="M64.0271045,32.2482012 C63.4363817,32.2482012 62.8461204,32.0223105 62.3952328,31.5705293 L60.3350871,29.5037227 L58.2749414,31.5700664 C57.3736276,32.4736289 55.9129732,32.4736289 55.0116595,31.5700664 C54.1103457,30.666041 54.1103457,29.2005293 55.0116595,28.2969668 L58.7036769,24.5938418 C59.6049906,23.6902793 61.065645,23.6902793 61.9669588,24.5938418 L65.6589762,28.2969668 C66.5602899,29.2009922 66.5602899,30.6665039 65.6589762,31.5700664 C65.2080886,32.0218477 64.6178273,32.2482012 64.0271045,32.2482012" id="Fill-22" fill="#B4CFD6" mask="url(#mask-4)"></path>
                    <path d="M80.21757,47.9860195 C79.6268472,47.9860195 79.0365859,47.7601289 78.5856983,47.3083477 L76.5255526,45.2420039 L74.4654069,47.3083477 C73.5640931,48.2119102 72.1034387,48.2119102 71.202125,47.3083477 C70.3008112,46.4043223 70.3008112,44.9388105 71.202125,44.035248 L74.8941424,40.332123 C75.7954562,39.4285605 77.2561105,39.4285605 78.1574243,40.332123 L81.8494417,44.035248 C82.7507555,44.9392734 82.7507555,46.4047852 81.8494417,47.3083477 C81.3985541,47.759666 80.8078313,47.9860195 80.21757,47.9860195" id="Fill-23" fill="#B4CFD6" mask="url(#mask-4)"></path>
                    <path d="M181.606045,206.603361 L180.221538,206.603361 L180.221538,205.214689 C180.221538,203.936648 179.188235,202.900236 177.914027,202.900236 C176.639358,202.900236 175.606516,203.936648 175.606516,205.214689 L175.606516,206.603361 L174.22201,206.603361 C172.947341,206.603361 171.914499,207.639773 171.914499,208.917814 C171.914499,210.195855 172.947341,211.232268 174.22201,211.232268 L175.606516,211.232268 L175.606516,212.620939 C175.606516,213.89898 176.639358,214.935393 177.914027,214.935393 C179.188235,214.935393 180.221538,213.89898 180.221538,212.620939 L180.221538,211.232268 L181.606045,211.232268 C182.880252,211.232268 183.913556,210.195855 183.913556,208.917814 C183.913556,207.639773 182.880252,206.603361 181.606045,206.603361" id="Fill-24" fill="#B4CFD6" mask="url(#mask-4)"></path>
                    <path d="M96.4638773,25.7677324 L95.0793708,25.7677324 L95.0793708,24.3790605 C95.0793708,23.1010195 94.0460674,22.0646074 92.7718599,22.0646074 C91.4976524,22.0646074 90.464349,23.1010195 90.464349,24.3790605 L90.464349,25.7677324 L89.0798425,25.7677324 C87.805635,25.7677324 86.7723316,26.8041445 86.7723316,28.0821855 C86.7723316,29.3602266 87.805635,30.3966387 89.0798425,30.3966387 L90.464349,30.3966387 L90.464349,31.7853105 C90.464349,33.0633516 91.4976524,34.0997637 92.7718599,34.0997637 C94.0460674,34.0997637 95.0793708,33.0633516 95.0793708,31.7853105 L95.0793708,30.3966387 L96.4638773,30.3966387 C97.7380848,30.3966387 98.7713882,29.3602266 98.7713882,28.0821855 C98.7713882,26.8041445 97.7380848,25.7677324 96.4638773,25.7677324" id="Fill-25" fill="#B4CFD6" mask="url(#mask-4)"></path>
                    <path d="M80.4773957,210.306486 L79.0928892,210.306486 L79.0928892,208.917814 C79.0928892,207.639773 78.0595858,206.603361 76.7853783,206.603361 C75.5111708,206.603361 74.4778674,207.639773 74.4778674,208.917814 L74.4778674,210.306486 L73.0933609,210.306486 C71.8191534,210.306486 70.78585,211.342898 70.78585,212.620939 C70.78585,213.89898 71.8191534,214.935393 73.0933609,214.935393 L74.4778674,214.935393 L74.4778674,216.324064 C74.4778674,217.602105 75.5111708,218.638518 76.7853783,218.638518 C78.0595858,218.638518 79.0928892,217.602105 79.0928892,216.324064 L79.0928892,214.935393 L80.4773957,214.935393 C81.7516033,214.935393 82.7849066,213.89898 82.7849066,212.620939 C82.7849066,211.342898 81.7516033,210.306486 80.4773957,210.306486" id="Fill-26" fill="#B4CFD6" mask="url(#mask-4)"></path>
                    <path d="M101.117204,152.445158 L51.9335322,152.445158 C50.6593247,152.445158 49.6260214,151.408746 49.6260214,150.130705 L49.6260214,141.441322 C49.6260214,140.163281 50.6593247,139.126869 51.9335322,139.126869 L101.117204,139.126869 C102.391411,139.126869 103.424715,140.163281 103.424715,141.441322 L103.424715,150.130705 C103.424715,151.409209 102.391411,152.445158 101.117204,152.445158" id="Fill-27" fill="#89C5CC" mask="url(#mask-4)"></path>
                    <path d="M175.606516,88.4435396 L126.422383,88.4435396 C125.148176,88.4435396 124.114873,87.4071275 124.114873,86.1290865 L124.114873,77.4397037 C124.114873,76.1616627 125.148176,75.1252506 126.422383,75.1252506 L175.606055,75.1252506 C176.880262,75.1252506 177.913566,76.1616627 177.913566,77.4397037 L177.913566,86.1290865 C177.913566,87.4071275 176.880724,88.4435396 175.606516,88.4435396" id="Fill-28" fill="#89C5CC" mask="url(#mask-4)"></path>
                    <path d="M177.911812,95.8970508 L177.911812,104.590137 C177.911812,105.867715 176.883124,106.90459 175.604301,106.90459 L126.422476,106.90459 C125.14873,106.90459 124.114965,105.867715 124.114965,104.590137 L124.114965,95.8970508 C124.114965,94.6194727 125.14873,93.5825977 126.422476,93.5825977 L175.604301,93.5825977 C176.883124,93.5825977 177.911812,94.6194727 177.911812,95.8970508" id="Fill-29" fill="#89C5CC" mask="url(#mask-4)"></path>
                    <path d="M177.911812,95.8970508 L177.911812,104.590137 C177.911812,105.867715 176.883124,106.90459 175.604301,106.90459 L155.404351,106.90459 C153.00454,102.932988 151.412357,98.4151758 150.853939,93.5825977 L175.604301,93.5825977 C176.883124,93.5825977 177.911812,94.6194727 177.911812,95.8970508" id="Fill-30" fill="#89C5CC" mask="url(#mask-4)"></path>
                    <path d="M177.911812,114.357036 L177.911812,122.411333 C170.560082,121.101353 164.048748,117.356568 159.230665,112.042583 L175.604301,112.042583 C176.883124,112.042583 177.911812,113.079458 177.911812,114.357036" id="Fill-31" fill="#89C5CC" mask="url(#mask-4)"></path>
                    <path d="M175.606516,153.602385 L126.422383,153.602385 C125.148176,153.602385 124.114873,152.565973 124.114873,151.287932 L124.114873,132.815355 C124.114873,131.537314 125.148176,130.500902 126.422383,130.500902 L175.606055,130.500902 C176.880262,130.500902 177.913566,131.537314 177.913566,132.815355 L177.913566,151.287932 C177.913566,152.566436 176.880724,153.602385 175.606516,153.602385" id="Fill-32" fill="#89C5CC" mask="url(#mask-4)"></path>
                    <path d="M101.117204,77.7891398 L51.9335322,77.7891398 C50.6588632,77.7891398 49.6260214,76.7527277 49.6260214,75.4746867 C49.6260214,74.1966457 50.6588632,73.1602336 51.9335322,73.1602336 L101.117204,73.1602336 C102.391873,73.1602336 103.424715,74.1966457 103.424715,75.4746867 C103.424715,76.7527277 102.391873,77.7891398 101.117204,77.7891398" id="Fill-33" fill="#89C5CC" mask="url(#mask-4)"></path>
                    <path d="M101.117204,86.8166643 L51.9335322,86.8166643 C50.6588632,86.8166643 49.6260214,85.7802521 49.6260214,84.5022111 C49.6260214,83.2241701 50.6588632,82.187758 51.9335322,82.187758 L101.117204,82.187758 C102.391873,82.187758 103.424715,83.2241701 103.424715,84.5022111 C103.424715,85.7802521 102.391873,86.8166643 101.117204,86.8166643" id="Fill-34" fill="#89C5CC" mask="url(#mask-4)"></path>
                    <path d="M101.117204,95.8443738 L51.9335322,95.8443738 C50.6588632,95.8443738 49.6260214,94.8079617 49.6260214,93.5299207 C49.6260214,92.2518797 50.6588632,91.2154676 51.9335322,91.2154676 L101.117204,91.2154676 C102.391873,91.2154676 103.424715,92.2518797 103.424715,93.5299207 C103.424715,94.8079617 102.391873,95.8443738 101.117204,95.8443738" id="Fill-35" fill="#89C5CC" mask="url(#mask-4)"></path>
                    <path d="M101.117204,104.872083 L51.9335322,104.872083 C50.6588632,104.872083 49.6260214,103.835671 49.6260214,102.55763 C49.6260214,101.279589 50.6588632,100.243177 51.9335322,100.243177 L101.117204,100.243177 C102.391873,100.243177 103.424715,101.279589 103.424715,102.55763 C103.424715,103.835671 102.391873,104.872083 101.117204,104.872083" id="Fill-36" fill="#89C5CC" mask="url(#mask-4)"></path>
                    <path d="M101.117204,113.899793 L51.9335322,113.899793 C50.6588632,113.899793 49.6260214,112.863381 49.6260214,111.58534 C49.6260214,110.307299 50.6588632,109.270887 51.9335322,109.270887 L101.117204,109.270887 C102.391873,109.270887 103.424715,110.307299 103.424715,111.58534 C103.424715,112.863381 102.391873,113.899793 101.117204,113.899793" id="Fill-37" fill="#89C5CC" mask="url(#mask-4)"></path>
                    <path d="M101.117204,122.927317 L51.9335322,122.927317 C50.6588632,122.927317 49.6260214,121.890905 49.6260214,120.612864 C49.6260214,119.33436 50.6588632,118.298411 51.9335322,118.298411 L101.117204,118.298411 C102.391873,118.298411 103.424715,119.33436 103.424715,120.612864 C103.424715,121.890905 102.391873,122.927317 101.117204,122.927317" id="Fill-38" fill="#89C5CC" mask="url(#mask-4)"></path>
                    <path d="M101.117204,131.955027 L51.9335322,131.955027 C50.6588632,131.955027 49.6260214,130.918615 49.6260214,129.640574 C49.6260214,128.36207 50.6588632,127.326121 51.9335322,127.326121 L101.117204,127.326121 C102.391873,127.326121 103.424715,128.36207 103.424715,129.640574 C103.424715,130.918615 102.391873,131.955027 101.117204,131.955027" id="Fill-39" fill="#89C5CC" mask="url(#mask-4)"></path>
                    <path d="M183.748153,48.5637533 C202.040715,48.5637533 216.869241,63.436892 216.869241,81.7844877 C216.869241,100.131621 202.040715,115.005222 183.748153,115.005222 C165.455591,115.005222 150.627065,100.131621 150.627065,81.7844877 C150.627065,63.436892 165.455591,48.5637533 183.748153,48.5637533" id="Fill-40" fill="#B4CFD6" mask="url(#mask-4)"></path>
                    <path d="M106.273937,190.762041 L100.129958,186.564086 C99.3463276,186.028058 98.3153317,186.028058 97.531701,186.564086 L91.3877226,190.762041 L91.3877226,167.705459 L106.275783,167.705459 L106.286062,190.769447 C106.286859,190.769447 106.282705,190.768058 106.273937,190.762041 L106.273937,190.762041 Z M30.8455595,177.571046 C28.3008365,177.571046 26.2305377,175.494519 26.2305377,172.94214 L26.2305377,78.5383746 C26.2305377,75.9855328 28.3008365,73.9094684 30.8455595,73.9094684 L36.8653939,73.9094684 L36.8653939,160.762099 C36.8653939,164.59113 39.970842,167.705459 43.7879265,167.705459 L57.5817651,167.705459 C58.8559726,167.705459 59.889276,166.669046 59.889276,165.391005 C59.889276,164.113427 58.8559726,163.076552 57.5817651,163.076552 L43.7879265,163.076552 C42.515565,163.076552 41.4804156,162.038289 41.4804156,160.762099 L41.4804156,66.1389234 C41.4804156,64.8631969 42.515565,63.8244703 43.7879265,63.8244703 L102.859744,63.8244703 C107.94919,63.8244703 112.089787,67.9779879 112.089787,73.0822828 L112.089787,160.762099 C112.089787,162.038289 111.054638,163.076552 109.782276,163.076552 L71.7037317,163.076552 C70.4295242,163.076552 69.3962208,164.113427 69.3962208,165.391005 C69.3962208,166.669046 70.4295242,167.705459 71.7037317,167.705459 L86.7736238,167.705459 L86.7736238,177.571046 L30.8455595,177.571046 Z M116.70527,73.0822828 C116.70527,67.9779879 120.845868,63.8244703 125.935314,63.8244703 L153.196248,63.8244703 C150.102799,69.099109 148.319554,75.2351871 148.319554,81.7846266 C148.319554,101.37925 164.212766,117.320277 183.748615,117.320277 C184.952212,117.320277 186.142427,117.258712 187.315565,117.140212 L187.315565,160.762562 C187.315565,162.038752 186.279954,163.077015 185.008054,163.077015 L119.013243,163.077015 C117.74042,163.077015 116.70527,162.038752 116.70527,160.762562 L116.70527,73.0822828 Z M183.748153,50.8783453 C200.738817,50.8783453 214.561731,64.7428453 214.561731,81.7846266 C214.561731,98.8264078 200.738817,112.691371 183.748153,112.691371 C166.757489,112.691371 152.934114,98.8268707 152.934114,81.7846266 C152.934114,64.7428453 166.757489,50.8783453 183.748153,50.8783453 L183.748153,50.8783453 Z M114.397298,165.922867 C115.623509,167.027324 117.238767,167.705459 119.01232,167.705459 L185.00667,167.705459 C188.823754,167.705459 191.929202,164.59113 191.929202,160.762099 L191.929202,116.352836 C207.531668,112.637675 219.176752,98.5537652 219.176752,81.7841637 C219.176752,62.1900035 203.28354,46.2489762 183.748153,46.2489762 C172.758402,46.2489762 162.921483,51.2935582 156.417994,59.1951012 L125.935314,59.1951012 C121.124154,59.1951012 116.879718,61.6711031 114.39776,65.4182027 C111.915339,61.671566 107.671365,59.1951012 102.860205,59.1951012 L43.7879265,59.1951012 C39.970842,59.1951012 36.8653939,62.3098922 36.8653939,66.1384605 L36.8653939,69.2800992 L30.8455595,69.2800992 C25.7561135,69.2800992 21.6155159,73.4331539 21.6155159,78.5379117 L21.6155159,172.941677 C21.6155159,178.045972 25.7561135,182.19949 30.8455595,182.19949 L86.7736238,182.19949 L86.7736238,190.762041 C86.7736238,192.482142 87.7155497,194.050416 89.2315844,194.854457 C89.9109156,195.214123 90.6516266,195.392798 91.3895686,195.392798 C92.2987279,195.392798 93.2046566,195.12247 93.9864413,194.587832 L98.8312912,191.276775 L103.676141,194.587832 C105.092953,195.555736 106.915886,195.658035 108.431921,194.854457 C109.947956,194.050416 110.889882,192.482142 110.889882,190.762504 L110.889882,182.199953 L197.94996,182.199953 C203.039867,182.199953 207.180003,178.046435 207.180003,172.94214 L207.180003,122.411611 C207.180003,121.13357 206.147161,120.097158 204.872492,120.097158 C203.598746,120.097158 202.564982,121.13357 202.564982,122.411611 L202.564982,172.94214 C202.564982,175.494519 200.495144,177.571046 197.94996,177.571046 L110.88942,177.571046 L110.88942,167.608252 C112.225469,167.391619 113.432297,166.792175 114.397298,165.922867 L114.397298,165.922867 Z" id="Fill-41" fill="#89C5CC" mask="url(#mask-4)"></path>
                </g>
            </g>
        </g>
    </g>
</svg>