<?xml version="1.0" encoding="UTF-8"?>
<svg width="154px" height="150px" viewBox="0 0 154 150" version="1.1" xmlns="http://www.w3.org/2000/svg" xmlns:xlink="http://www.w3.org/1999/xlink">
    <!-- Generator: Sketch 55.2 (78181) - https://sketchapp.com -->
    <title>Group 40</title>
    <desc>Created with Sketch.</desc>
    <defs>
        <polygon id="path-1" points="0 0.0860997142 153.164557 0.0860997142 153.164557 149.367078 0 149.367078"></polygon>
        <polygon id="path-3" points="0 149.367089 153.164557 149.367089 153.164557 0.086081033 0 0.086081033"></polygon>
    </defs>
    <g id="b560" stroke="none" stroke-width="1" fill="none" fill-rule="evenodd">
        <g id="about-lg-master-02-copy" transform="translate(-941.000000, -278.000000)">
            <g id="Group-40" transform="translate(941.731256, 278.000000)">
                <g id="Group-30" transform="translate(0.000000, 0.316456)">
                    <g id="Group-3">
                        <mask id="mask-2" fill="white">
                            <use xlink:href="#path-1"></use>
                        </mask>
                        <g id="Clip-2"></g>
                        <path d="M101.387727,18.993615 C100.978192,18.993615 100.569852,18.9972142 100.162112,19.0047125 C90.0116691,19.1894718 80.2294796,15.4894871 72.3391117,9.08439835 C65.3426026,3.40484978 56.4135876,0.0233948452 46.6951169,0.0860997142 C24.5173677,0.232148849 6.23963088,19.0050125 6.6069865,41.2379137 C6.7054067,47.2245946 8.10123838,52.8945453 10.5246487,57.9781252 C14.6532113,66.6399166 13.7629423,76.9444461 8.0258527,84.6305526 C5.65658846,87.8050531 3.71780039,91.3835646 2.32406275,95.3096996 C-5.10292252,116.23219 5.86808717,139.488765 26.7197065,146.979915 C47.9542373,154.608434 71.2403355,143.332118 78.529712,122.008617 C79.0696769,120.429165 79.506136,118.839215 79.8435767,117.246566 C81.9863847,107.129795 90.7882612,99.8875909 101.103535,99.9304814 C101.198066,99.9307814 101.293196,99.9310813 101.388026,99.9310813 C129.983729,99.9310813 153.164826,81.8126735 153.164826,59.4624981 C153.164826,37.1123227 129.983131,18.993615 101.387727,18.993615" id="Fill-1" fill="#E5E9EC" mask="url(#mask-2)"></path>
                    </g>
                    <path d="M112.779072,90.5066179 L111.881623,90.5066179 L111.881623,89.6068161 C111.881623,88.7783987 111.212426,88.1071466 110.385876,88.1071466 C109.559625,88.1071466 108.890128,88.7783987 108.890128,89.6068161 L108.890128,90.5066179 L107.992679,90.5066179 C107.166429,90.5066179 106.496932,91.17787 106.496932,92.0062874 C106.496932,92.8347049 107.166429,93.505957 107.992679,93.505957 L108.890128,93.505957 L108.890128,94.4057587 C108.890128,95.2341762 109.559625,95.9054283 110.385876,95.9054283 C111.212426,95.9054283 111.881623,95.2341762 111.881623,94.4057587 L111.881623,93.505957 L112.779072,93.505957 C113.605622,93.505957 114.27482,92.8347049 114.27482,92.0062874 C114.27482,91.17787 113.605622,90.5066179 112.779072,90.5066179" id="Fill-4" fill="#B4CFD6"></path>
                    <path d="M30.3356465,78.6539495 L29.4381979,78.6539495 L29.4381979,77.7541477 C29.4381979,76.9257303 28.7687013,76.2544782 27.9424503,76.2544782 C27.1161993,76.2544782 26.4467027,76.9257303 26.4467027,77.7541477 L26.4467027,78.6539495 L25.5492541,78.6539495 C24.7230031,78.6539495 24.0535065,79.3252016 24.0535065,80.153619 C24.0535065,80.9823364 24.7230031,81.6532886 25.5492541,81.6532886 L26.4467027,81.6532886 L26.4467027,82.5530903 C26.4467027,83.3818077 27.1161993,84.0527599 27.9424503,84.0527599 C28.7687013,84.0527599 29.4381979,83.3818077 29.4381979,82.5530903 L29.4381979,81.6532886 L30.3356465,81.6532886 C31.1618975,81.6532886 31.8313941,80.9823364 31.8313941,80.153619 C31.8313941,79.3252016 31.1618975,78.6539495 30.3356465,78.6539495" id="Fill-6" fill="#B4CFD6"></path>
                    <path d="M95.6632916,7.57810025 L94.7658431,7.57810025 L94.7658431,6.67829851 C94.7658431,5.84988104 94.0966456,5.17862895 93.2700954,5.17862895 C92.4438444,5.17862895 91.7743478,5.84988104 91.7743478,6.67829851 L91.7743478,7.57810025 L90.8768992,7.57810025 C90.0506482,7.57810025 89.3811516,8.24935235 89.3811516,9.07776981 C89.3811516,9.90618728 90.0506482,10.5774394 90.8768992,10.5774394 L91.7743478,10.5774394 L91.7743478,11.4772411 C91.7743478,12.3056586 92.4438444,12.9769107 93.2700954,12.9769107 C94.0966456,12.9769107 94.7658431,12.3056586 94.7658431,11.4772411 L94.7658431,10.5774394 L95.6632916,10.5774394 C96.4898418,10.5774394 97.1590393,9.90618728 97.1590393,9.07776981 C97.1590393,8.24935235 96.4898418,7.57810025 95.6632916,7.57810025" id="Fill-8" fill="#B4CFD6"></path>
                    <path d="M125.221837,89.8742372 C124.839225,89.8742372 124.455715,89.7281694 124.164344,89.434834 L122.828641,88.095929 L121.492939,89.434834 C120.909298,90.020605 119.961592,90.020605 119.377951,89.434834 C118.793712,88.849363 118.793712,87.8997723 119.377951,87.3143013 L121.771148,84.91483 C122.354788,84.329359 123.302494,84.329359 123.886135,84.91483 L126.279331,87.3143013 C126.863271,87.8997723 126.863271,88.849363 126.279331,89.434834 C125.987361,89.7281694 125.604151,89.8742372 125.221837,89.8742372" id="Fill-10" fill="#B4CFD6"></path>
                    <path d="M32.7288427,106.526988 C32.3465296,106.526988 31.9630199,106.38062 31.6713491,106.087585 L30.3356465,104.74838 L28.9999439,106.087585 C28.4163032,106.673056 27.4685975,106.673056 26.8849567,106.087585 C26.3007177,105.502114 26.3007177,104.552523 26.8849567,103.967052 L29.2781529,101.567581 C29.8617937,100.98181 30.8094994,100.98181 31.3931401,101.567581 L33.7863363,103.967052 C34.3705753,104.552523 34.3705753,105.502114 33.7863363,106.087585 C33.4949646,106.38062 33.1117541,106.526988 32.7288427,106.526988" id="Fill-12" fill="#B4CFD6"></path>
                    <path d="M128.434464,41.1761273 L127.537015,41.1761273 C126.711064,41.1761273 126.041268,41.8476793 126.041268,42.6757969 L126.041268,56.6275227 C126.041268,59.1250724 125.40019,61.5941284 124.188036,63.7671496 L123.019259,65.8612882 C122.616305,66.5841289 122.873274,67.4980276 123.594225,67.9023385 L123.987307,68.12249 C120.86987,71.5504346 116.382029,73.7051599 111.401488,73.7051599 L107.095231,73.7051599 L107.095231,35.9773728 L126.938716,35.9773728 C127.763771,35.9773728 128.434464,36.6501245 128.434464,37.4770423 L128.434464,41.1761273 Z M46.0687277,73.7051599 L41.7624703,73.7051599 C36.7819299,73.7051599 32.2943879,71.5504346 29.1769507,68.12249 L29.5700331,67.9023385 C30.2909835,67.4980276 30.5482521,66.5841289 30.1449985,65.8612882 L28.9762213,63.7671496 C27.7637683,61.5941284 27.1226909,59.1250724 27.1226909,56.6275227 L27.1226909,42.6757969 C27.1226909,41.8476793 26.4531942,41.1761273 25.6269432,41.1761273 L24.7294947,41.1761273 L24.7294947,37.4770423 C24.7294947,36.6501245 25.400487,35.9773728 26.2252423,35.9773728 L46.0687277,35.9773728 L46.0687277,73.7051599 Z M132.323408,41.1761273 L131.425959,41.1761273 L131.425959,37.4770423 C131.425959,34.996289 129.412982,32.9780337 126.938716,32.9780337 L112.380306,32.9780337 L112.380306,28.379147 C112.380306,27.5510294 111.710809,26.8794774 110.884558,26.8794774 L42.2794007,26.8794774 C41.4534489,26.8794774 40.7836531,27.5510294 40.7836531,28.379147 L40.7836531,32.9780337 L26.2252423,32.9780337 C23.7509766,32.9780337 21.7379994,34.996289 21.7379994,37.4770423 L21.7379994,41.1761273 L20.8405508,41.1761273 C20.014599,41.1761273 19.3448032,41.8476793 19.3448032,42.6757969 L19.3448032,56.6275227 C19.3448032,60.4552793 20.3281077,64.2407453 22.1891169,67.5748106 L23.3572958,69.6686493 C23.7608485,70.39149 24.6723571,70.6497331 25.3933075,70.2451223 L26.5121267,69.6173606 C30.188076,73.9490062 35.6589226,76.704499 41.7627695,76.704499 L46.0687277,76.704499 C46.1007367,76.704499 46.1306517,76.6970007 46.1620624,76.6952011 C47.1558371,88.0515988 56.4680627,97.0109247 67.9548062,97.4119364 L67.9548062,106.777373 L59.4688316,117.075004 L48.7610735,117.075004 C45.4566678,117.075004 42.778083,119.760612 42.778083,123.073682 L42.778083,139.070057 C42.778083,139.898175 43.4478788,140.569727 44.2738306,140.569727 L108.890128,140.569727 C109.716379,140.569727 110.385876,139.898175 110.385876,139.070057 L110.385876,123.073682 C110.385876,119.760612 107.70759,117.075004 104.402885,117.075004 L93.2700356,117.075004 L84.784061,106.777373 L84.784061,97.4221341 C96.46585,97.2304763 105.996455,88.191368 107.001896,76.6952011 C107.033307,76.6973006 107.063521,76.704499 107.095231,76.704499 L111.401488,76.704499 C117.505634,76.704499 122.976481,73.9490062 126.652131,69.6173606 L127.77125,70.2451223 C128.4922,70.6494332 129.403708,70.39149 129.807261,69.6686493 L130.97544,67.5748106 C132.836449,64.2407453 133.819455,60.4552793 133.819455,56.6275227 L133.819455,42.6757969 C133.819455,41.8473794 133.149659,41.1761273 132.323408,41.1761273 L132.323408,41.1761273 Z" id="Fill-14" fill="#C5CFD6"></path>
                    <path d="M84.4068933,89.3326465 L68.757185,89.3326465 C56.2264097,89.3326465 46.0684884,79.1480906 46.0684884,66.5847588 L46.0684884,23.3789787 L107.094992,23.3789787 L107.094992,66.5847588 C107.094992,79.1480906 96.9376686,89.3326465 84.4068933,89.3326465" id="Fill-16" fill="#B4CFD6"></path>
                    <mask id="mask-4" fill="white">
                        <use xlink:href="#path-3"></use>
                    </mask>
                    <g id="Clip-19"></g>
                    <polygon id="Fill-18" fill="#89C5CC" mask="url(#mask-4)" points="46.0687277 32.3778659 107.095231 32.3778659 107.095231 23.3789487 46.0687277 23.3789487"></polygon>
                    <path d="M76.5819793,34.769269 C87.4817914,34.769269 96.3174718,43.628117 96.3174718,54.5562091 C96.3174718,65.4843013 87.4817914,74.3431493 76.5819793,74.3431493 C65.6824664,74.3431493 56.846786,65.4843013 56.846786,54.5562091 C56.846786,43.628117 65.6824664,34.769269 76.5819793,34.769269" id="Fill-20" fill="#89C5CC" mask="url(#mask-4)"></path>
                    <polygon id="Star" fill="#FFFFFF" mask="url(#mask-4)" points="77 59 72.297718 61.472136 73.1957739 56.236068 69.3915479 52.527864 74.648859 51.763932 77 47 79.351141 51.763932 84.6084521 52.527864 80.8042261 56.236068 81.702282 61.472136"></polygon>
                    <path d="M110.884558,26.3794876 L42.2794007,26.3794876 C41.4534489,26.3794876 40.7836531,25.7079355 40.7836531,24.879818 L40.7836531,20.2806314 C40.7836531,19.4525139 41.4534489,18.7809618 42.2794007,18.7809618 L110.884259,18.7809618 C111.71051,18.7809618 112.380007,19.4525139 112.380007,20.2806314 L112.380007,24.8795181 C112.380007,25.7079355 111.710809,26.3794876 110.884558,26.3794876" id="Fill-21" fill="#B4CFD6" mask="url(#mask-4)"></path>
                    <path d="M127.771309,62.1468766 L123.594285,59.8037929 C122.873334,59.399482 122.616066,58.4855833 123.019319,57.7627426 L124.187797,55.668604 C125.400549,53.4955828 126.041328,51.0265269 126.041328,48.5289772 L126.041328,34.5772513 C126.041328,33.7491338 126.711123,33.0775817 127.537075,33.0775817 L132.323468,33.0775817 C133.149719,33.0775817 133.819215,33.7491338 133.819215,34.5772513 L133.819215,48.5289772 C133.819215,52.3567338 132.83621,56.1421997 130.975201,59.4762651 L129.807321,61.5701037 C129.403469,62.2929444 128.49226,62.5511875 127.771309,62.1468766" id="Fill-22" fill="#B4CFD6" mask="url(#mask-4)"></path>
                    <path d="M25.3929485,62.1468766 C24.6719981,62.5511875 23.7604895,62.2932444 23.3569368,61.5704036 L22.1890571,59.476565 C20.3280479,56.1424996 19.3447434,52.3570337 19.3447434,48.5292771 L19.3447434,34.5775512 C19.3447434,33.7494337 20.0145392,33.0778817 20.840491,33.0778817 L25.6268834,33.0778817 C26.4531344,33.0778817 27.122631,33.7494337 27.122631,34.5775512 L27.122631,48.5292771 C27.122631,51.0268268 27.7640076,53.4958828 28.9764606,55.668904 L30.1449387,57.7630425 C30.5478931,58.4858833 30.2909237,59.3997819 29.5699733,59.8040928 L25.3929485,62.1468766 Z" id="Fill-23" fill="#B4CFD6" mask="url(#mask-4)"></path>
                    <polygon id="Fill-24" fill="#B4CFD6" mask="url(#mask-4)" points="67.9548062 98.6788572 84.784061 98.6788572 84.784061 89.3326165 67.9548062 89.3326165"></polygon>
                    <polygon id="Fill-25" fill="#B4CFD6" mask="url(#mask-4)" points="93.2700954 108.976548 84.7841208 98.6789172 67.954866 98.6789172 59.4688914 108.976548"></polygon>
                    <path d="M108.890128,132.471571 L44.2738306,132.471571 C43.4478788,132.471571 42.778083,131.800019 42.778083,130.971902 L42.778083,114.975526 C42.778083,111.662456 45.4566678,108.976848 48.7610735,108.976848 L104.402885,108.976848 C107.70759,108.976848 110.385876,111.662456 110.385876,114.975526 L110.385876,130.971902 C110.385876,131.800019 109.716379,132.471571 108.890128,132.471571" id="Fill-26" fill="#B4CFD6" mask="url(#mask-4)"></path>
                    <path d="M132.323408,48.5290372 C132.323408,52.1009501 131.406215,55.6335718 129.670251,58.7441864 L128.503568,60.8389248 L128.502371,60.838025 L128.502072,60.838025 L124.324748,58.4949413 L125.492927,56.4008027 C126.830723,54.0046307 127.537015,51.2827304 127.537015,48.5290372 L127.537015,34.5773113 L132.323408,34.5773113 L132.323408,48.5290372 Z M111.401488,65.6069742 L108.590979,65.6069742 L108.590979,27.8791871 L126.938716,27.8791871 C127.763771,27.8791871 128.434464,28.5519389 128.434464,29.3788567 L128.434464,31.5782721 L127.537015,31.5782721 C125.887505,31.5782721 124.54552,32.9237756 124.54552,34.5776112 L124.54552,48.5293371 C124.54552,50.7713431 123.970256,52.986655 122.882249,54.9365253 L121.713771,57.030364 C120.908759,58.473346 121.423895,60.3044426 122.864001,61.1124645 L122.883445,61.1235621 C119.85336,63.9048493 115.823816,65.6069742 111.401488,65.6069742 L111.401488,65.6069742 Z M84.4068335,87.832977 L68.7574243,87.832977 C57.0714473,87.832977 47.5644754,78.3010772 47.5644754,66.5847588 L47.5644754,37.7767063 C47.5644754,36.9482889 46.8952779,36.2770368 46.0687277,36.2770368 C45.2424768,36.2770368 44.5729801,36.9482889 44.5729801,37.7767063 L44.5729801,65.6066743 L41.7624703,65.6066743 C37.3407412,65.6066743 33.3111971,63.9039495 30.2808124,61.1235621 L30.3005563,61.1124645 C31.7403629,60.3044426 32.2554984,58.4730461 31.450487,57.0306639 L30.282009,54.9365253 C29.1940022,52.986655 28.6184385,50.7710432 28.6184385,48.5293371 L28.6184385,34.5776112 C28.6184385,32.9237756 27.2767529,31.5782721 25.6269432,31.5782721 L24.7294947,31.5782721 L24.7294947,29.3788567 C24.7294947,28.5519389 25.400487,27.8791871 26.2252423,27.8791871 L46.0687277,27.8791871 L105.599483,27.8791871 L105.599483,66.5850587 C105.599483,78.3010772 96.0928105,87.832977 84.4068335,87.832977 L84.4068335,87.832977 Z M84.784061,110.476188 L104.402885,110.476188 C106.877151,110.476188 108.890128,112.494443 108.890128,114.975196 L108.890128,130.971572 L44.2738306,130.971572 L44.2738306,114.975196 C44.2738306,112.494443 46.2868078,110.476188 48.7610735,110.476188 L75.6297864,110.476188 C76.4560374,110.476188 77.125534,109.804936 77.125534,108.976518 C77.125534,108.148101 76.4560374,107.476849 75.6297864,107.476849 L62.6449021,107.476849 L68.6593033,100.178557 L84.0795639,100.178557 L90.0942642,107.476849 L84.7843602,107.476849 C83.95781,107.476849 83.2886125,108.148101 83.2886125,108.976518 C83.2886125,109.804936 83.95781,110.476188 84.7843602,110.476188 L84.784061,110.476188 Z M69.4505538,97.1792176 L83.2883134,97.1792176 L83.2883134,90.8323161 L69.4505538,90.8323161 L69.4505538,97.1792176 Z M24.662186,60.838025 L23.4940071,58.7441864 C21.7580424,55.6335718 20.8405508,52.1012501 20.8405508,48.5290372 L20.8405508,34.5773113 L25.6269432,34.5773113 L25.6269432,48.5290372 C25.6269432,51.2827304 26.3335344,54.0046307 27.6710319,56.4008027 L28.83951,58.4949413 L24.662186,60.838025 Z M42.2794007,20.2809613 L110.884558,20.2809613 L110.886652,24.879848 L42.2794007,24.879848 L42.2794007,20.2809613 Z M132.323408,31.5782721 L131.425959,31.5782721 L131.425959,29.3788567 C131.425959,26.8981033 129.412982,24.879848 126.938716,24.879848 L113.876053,24.879848 L113.876053,20.2809613 C113.876053,18.6271257 112.534368,17.2816222 110.884558,17.2816222 L42.2794007,17.2816222 C40.6298902,17.2816222 39.2879055,18.6271257 39.2879055,20.2809613 L39.2879055,24.879848 L26.2252423,24.879848 C23.7509766,24.879848 21.7379994,26.8981033 21.7379994,29.3788567 L21.7379994,31.5782721 L20.8405508,31.5782721 C19.1910403,31.5782721 17.8490556,32.9237756 17.8490556,34.5776112 L17.8490556,48.5293371 C17.8490556,52.6129373 18.8987713,56.6515475 20.8839275,60.2087637 L22.0521064,62.3029022 C22.5998492,63.2839861 23.6187525,63.8367643 24.6675707,63.8367643 C25.1614666,63.8367643 25.6619437,63.7140913 26.1229331,63.4555483 L27.5507738,62.6550247 C31.1809533,66.3268156 36.2105543,68.6063134 41.7624703,68.6063134 L44.6636224,68.6063134 C45.6289779,80.2722429 54.8616297,89.6184836 66.4590585,90.7201408 L66.4590585,98.139906 L58.7646336,107.477149 L48.7610735,107.477149 C44.6375964,107.477149 41.2823353,110.840907 41.2823353,114.975496 L41.2823353,130.971872 C41.2823353,132.625707 42.6243201,133.971211 44.2738306,133.971211 L108.890128,133.971211 C110.539938,133.971211 111.881623,132.625707 111.881623,130.971872 L111.881623,114.975496 C111.881623,110.840907 108.526661,107.477149 104.402885,107.477149 L93.9748319,107.477149 L86.2801078,98.139906 L86.2801078,90.7528336 C98.0758727,89.8416344 107.523314,80.4141116 108.500336,68.6066133 L111.401488,68.6066133 C116.953105,68.6066133 121.980612,66.3256159 125.610492,62.653525 L127.041026,63.4558482 C127.502015,63.7143912 128.002492,63.8370642 128.496089,63.8370642 C129.545206,63.8370642 130.564109,63.2839861 131.111852,62.3029022 L132.280031,60.2090636 C134.265187,56.6518474 135.314604,52.6132373 135.314604,48.529637 L135.314604,34.5779111 C135.314604,32.9237756 133.973217,31.5782721 132.323408,31.5782721 L132.323408,31.5782721 Z" id="Fill-27" fill="#89C5CC" mask="url(#mask-4)"></path>
                    <path d="M98.1207452,125.873025 L55.0432135,125.873025 C54.2172617,125.873025 53.5474659,125.201473 53.5474659,124.373356 L53.5474659,117.374998 C53.5474659,116.54688 54.2172617,115.875328 55.0432135,115.875328 L98.1207452,115.875328 C98.9469961,115.875328 99.6164928,116.54688 99.6164928,117.374998 L99.6164928,124.373356 C99.6164928,125.201473 98.9469961,125.873025 98.1207452,125.873025" id="Fill-28" fill="#89C5CC" mask="url(#mask-4)"></path>
                    <path d="M87.5789552,122.373696 L65.585183,122.373696 C64.7592311,122.373696 64.0894353,121.702144 64.0894353,120.874027 C64.0894353,120.045909 64.7592311,119.374357 65.585183,119.374357 L87.5789552,119.374357 C88.4052062,119.374357 89.0747028,120.045909 89.0747028,120.874027 C89.0747028,121.702144 88.404907,122.373696 87.5789552,122.373696" id="Fill-29" fill="#FFFFFF" mask="url(#mask-4)"></path>
                </g>
            </g>
        </g>
    </g>
</svg>