<?xml version="1.0" encoding="UTF-8"?>
<svg width="242px" height="237px" viewBox="0 0 242 237" version="1.1" xmlns="http://www.w3.org/2000/svg" xmlns:xlink="http://www.w3.org/1999/xlink">
    <!-- Generator: Sketch 55.2 (78181) - https://sketchapp.com -->
    <title>Group 40</title>
    <desc>Created with Sketch.</desc>
    <defs>
        <polygon id="path-1" points="0 0.136037548 242 0.136037548 242 235.999984 0 235.999984"></polygon>
        <polygon id="path-3" points="0 236 242 236 242 0.136008032 0 0.136008032"></polygon>
    </defs>
    <g id="b560" stroke="none" stroke-width="1" fill="none" fill-rule="evenodd">
        <g id="about-lg-master-04" transform="translate(-599.000000, -107.000000)">
            <g id="Group-40" transform="translate(599.000000, 107.000000)">
                <g id="Group-30" transform="translate(0.000000, 0.500000)">
                    <g id="Group-3">
                        <mask id="mask-2" fill="white">
                            <use xlink:href="#path-1"></use>
                        </mask>
                        <g id="Clip-2"></g>
                        <path d="M160.192609,30.0099116 C159.545543,30.0099116 158.900367,30.0155984 158.256136,30.0274458 C142.218437,30.3193655 126.762578,24.4733896 114.295796,14.3533494 C103.241312,5.37966265 89.1334684,0.0369638554 73.7782848,0.136037548 C38.737441,0.366795181 9.8586168,30.0279197 10.4390387,65.1559036 C10.5945426,74.6148594 12.7999566,83.5733815 16.6289449,91.6054378 C23.1520738,105.291068 21.7454488,121.572225 12.6808473,133.716273 C8.93740977,138.731984 5.87412461,144.386032 3.67201914,150.589325 C-8.06261758,183.646859 9.27157773,220.392249 42.2171363,232.228265 C75.7676949,244.281325 112.55973,226.464747 124.076945,192.773614 C124.930089,190.27808 125.619695,187.76596 126.152851,185.249574 C129.538488,169.265076 143.445453,157.822394 159.743586,157.890161 C159.892945,157.890635 160.04325,157.891108 160.193082,157.891108 C205.374293,157.891108 242.000425,129.264024 242.000425,93.950747 C242.000425,58.6374699 205.373347,30.0099116 160.192609,30.0099116" id="Fill-1" fill="#E5E9EC" mask="url(#mask-2)"></path>
                    </g>
                    <path d="M178.190934,143.000456 L176.772965,143.000456 L176.772965,141.578769 C176.772965,140.26987 175.715633,139.209292 174.409684,139.209292 C173.104207,139.209292 172.046402,140.26987 172.046402,141.578769 L172.046402,143.000456 L170.628434,143.000456 C169.322957,143.000456 168.265152,144.061035 168.265152,145.369934 C168.265152,146.678834 169.322957,147.739412 170.628434,147.739412 L172.046402,147.739412 L172.046402,149.161099 C172.046402,150.469998 173.104207,151.530577 174.409684,151.530577 C175.715633,151.530577 176.772965,150.469998 176.772965,149.161099 L176.772965,147.739412 L178.190934,147.739412 C179.496883,147.739412 180.554215,146.678834 180.554215,145.369934 C180.554215,144.061035 179.496883,143.000456 178.190934,143.000456" id="Fill-4" fill="#B4CFD6"></path>
                    <path d="M47.9303215,124.27324 L46.5123527,124.27324 L46.5123527,122.851553 C46.5123527,121.542654 45.454548,120.482076 44.1490715,120.482076 C42.8435949,120.482076 41.7857902,121.542654 41.7857902,122.851553 L41.7857902,124.27324 L40.3678215,124.27324 C39.0623449,124.27324 38.0045402,125.333818 38.0045402,126.642718 C38.0045402,127.952092 39.0623449,129.012196 40.3678215,129.012196 L41.7857902,129.012196 L41.7857902,130.433883 C41.7857902,131.743256 42.8435949,132.803361 44.1490715,132.803361 C45.454548,132.803361 46.5123527,131.743256 46.5123527,130.433883 L46.5123527,129.012196 L47.9303215,129.012196 C49.235798,129.012196 50.2936027,127.952092 50.2936027,126.642718 C50.2936027,125.333818 49.235798,124.27324 47.9303215,124.27324" id="Fill-6" fill="#B4CFD6"></path>
                    <path d="M151.148001,11.9733984 L149.730032,11.9733984 L149.730032,10.5517116 C149.730032,9.24281205 148.6727,8.18223373 147.366751,8.18223373 C146.061274,8.18223373 145.00347,9.24281205 145.00347,10.5517116 L145.00347,11.9733984 L143.585501,11.9733984 C142.280024,11.9733984 141.22222,13.0339767 141.22222,14.3428763 C141.22222,15.6517759 142.280024,16.7123542 143.585501,16.7123542 L145.00347,16.7123542 L145.00347,18.134041 C145.00347,19.4429406 146.061274,20.5035189 147.366751,20.5035189 C148.6727,20.5035189 149.730032,19.4429406 149.730032,18.134041 L149.730032,16.7123542 L151.148001,16.7123542 C152.45395,16.7123542 153.511282,15.6517759 153.511282,14.3428763 C153.511282,13.0339767 152.45395,11.9733984 151.148001,11.9733984" id="Fill-8" fill="#B4CFD6"></path>
                    <path d="M197.850503,142.001295 C197.245976,142.001295 196.64003,141.770508 196.179663,141.307038 L194.069253,139.191568 L191.958843,141.307038 C191.036691,142.232556 189.539316,142.232556 188.617163,141.307038 C187.694066,140.381994 187.694066,138.88164 188.617163,137.956596 L192.398413,134.165431 C193.320566,133.240387 194.817941,133.240387 195.740093,134.165431 L199.521343,137.956596 C200.443968,138.88164 200.443968,140.381994 199.521343,141.307038 C199.06003,141.770508 198.454558,142.001295 197.850503,142.001295" id="Fill-10" fill="#B4CFD6"></path>
                    <path d="M51.7115715,168.312641 C51.1075168,168.312641 50.5015715,168.08138 50.0407316,167.618384 L47.9303215,165.50244 L45.8199113,167.618384 C44.897759,168.543428 43.400384,168.543428 42.4782316,167.618384 C41.555134,166.69334 41.555134,165.192986 42.4782316,164.267942 L46.2594816,160.476778 C47.181634,159.551259 48.679009,159.551259 49.6011613,160.476778 L53.3824113,164.267942 C54.305509,165.192986 54.305509,166.69334 53.3824113,167.618384 C52.9220441,168.08138 52.3165715,168.312641 51.7115715,168.312641" id="Fill-12" fill="#B4CFD6"></path>
                    <path d="M202.926453,65.0582811 L201.508484,65.0582811 C200.20348,65.0582811 199.145203,66.1193333 199.145203,67.427759 L199.145203,89.4714859 C199.145203,93.4176145 198.132301,97.3187229 196.217098,100.752096 L194.37043,104.060835 C193.733762,105.202924 194.139773,106.646884 195.278875,107.285695 L195.899945,107.633534 C190.974395,113.049687 183.883605,116.454153 176.014352,116.454153 L169.210465,116.454153 L169.210465,56.844249 L200.563172,56.844249 C201.866758,56.844249 202.926453,57.9071968 202.926453,59.2137269 L202.926453,65.0582811 Z M72.7885898,116.454153 L65.9847031,116.454153 C58.1154492,116.454153 51.0251328,113.049687 46.099582,107.633534 L46.7206523,107.285695 C47.8597539,106.646884 48.2662383,105.202924 47.6290977,104.060835 L45.7824297,100.752096 C43.8667539,97.3187229 42.8538516,93.4176145 42.8538516,89.4714859 L42.8538516,67.427759 C42.8538516,66.1193333 41.7960469,65.0582811 40.4905703,65.0582811 L39.0726016,65.0582811 L39.0726016,59.2137269 C39.0726016,57.9071968 40.1327695,56.844249 41.4358828,56.844249 L72.7885898,56.844249 L72.7885898,116.454153 Z M209.070984,65.0582811 L207.653016,65.0582811 L207.653016,59.2137269 C207.653016,55.2941365 204.472512,52.1052932 200.563172,52.1052932 L177.560883,52.1052932 L177.560883,44.8390522 C177.560883,43.5306265 176.503078,42.4695743 175.197602,42.4695743 L66.8014531,42.4695743 C65.4964492,42.4695743 64.4381719,43.5306265 64.4381719,44.8390522 L64.4381719,52.1052932 L41.4358828,52.1052932 C37.526543,52.1052932 34.3460391,55.2941365 34.3460391,59.2137269 L34.3460391,65.0582811 L32.9280703,65.0582811 C31.6230664,65.0582811 30.5647891,66.1193333 30.5647891,67.427759 L30.5647891,89.4714859 C30.5647891,95.5193414 32.1184102,101.500378 35.0588047,106.768201 L36.9045273,110.076466 C37.5421406,111.218554 38.9823242,111.626578 40.1214258,110.987293 L41.8891602,109.99543 C47.6971602,116.83943 56.3410977,121.193108 65.9851758,121.193108 L72.7885898,121.193108 C72.8391641,121.193108 72.8864297,121.181261 72.9360586,121.178418 C74.5062227,139.121526 89.2195391,153.277261 107.368594,153.910859 L107.368594,168.708249 L93.9607539,184.978506 L77.0424961,184.978506 C71.8215352,184.978506 67.5893711,189.221767 67.5893711,194.456418 L67.5893711,219.730691 C67.5893711,221.039116 68.6476484,222.100169 69.9526523,222.100169 L172.046402,222.100169 C173.351879,222.100169 174.409684,221.039116 174.409684,219.730691 L174.409684,194.456418 C174.409684,189.221767 170.177992,184.978506 164.956559,184.978506 L147.366656,184.978506 L133.958816,168.708249 L133.958816,153.926972 C152.416043,153.624153 167.474398,139.342361 169.062996,121.178418 C169.112625,121.181735 169.160363,121.193108 169.210465,121.193108 L176.014352,121.193108 C185.658902,121.193108 194.30284,116.83943 200.110367,109.99543 L201.878574,110.987293 C203.017676,111.626104 204.457859,111.218554 205.095473,110.076466 L206.941195,106.768201 C209.88159,101.500378 211.434738,95.5193414 211.434738,89.4714859 L211.434738,67.427759 C211.434738,66.1188594 210.376461,65.0582811 209.070984,65.0582811 L209.070984,65.0582811 Z" id="Fill-14" fill="#C5CFD6"></path>
                    <path d="M133.362891,141.145582 L108.636352,141.145582 C88.8377273,141.145582 72.7882117,125.053983 72.7882117,105.203919 L72.7882117,36.9387863 L169.210087,36.9387863 L169.210087,105.203919 C169.210087,125.053983 153.161516,141.145582 133.362891,141.145582" id="Fill-16" fill="#B4CFD6"></path>
                    <mask id="mask-4" fill="white">
                        <use xlink:href="#path-3"></use>
                    </mask>
                    <g id="Clip-19"></g>
                    <polygon id="Fill-18" fill="#89C5CC" mask="url(#mask-4)" points="72.7885898 51.1570281 169.210465 51.1570281 169.210465 36.938739 72.7885898 36.938739"></polygon>
                    <path d="M120.999527,54.935445 C138.22123,54.935445 152.181605,68.9324249 152.181605,86.1988104 C152.181605,103.465196 138.22123,117.462176 120.999527,117.462176 C103.778297,117.462176 89.8179219,103.465196 89.8179219,86.1988104 C89.8179219,68.9324249 103.778297,54.935445 120.999527,54.935445" id="Fill-20" fill="#89C5CC" mask="url(#mask-4)"></path>
                    <polygon id="Star" fill="#FFFFFF" mask="url(#mask-4)" points="121 92.5 113.358792 96.5172209 114.818133 88.0086105 108.636265 81.9827791 117.179396 80.7413895 121 73 124.820604 80.7413895 133.363735 81.9827791 127.181867 88.0086105 128.641208 96.5172209"></polygon>
                    <path d="M175.197602,41.6795904 L66.8014531,41.6795904 C65.4964492,41.6795904 64.4381719,40.6185382 64.4381719,39.3101124 L64.4381719,32.0433976 C64.4381719,30.7349719 65.4964492,29.6739197 66.8014531,29.6739197 L175.197129,29.6739197 C176.502605,29.6739197 177.56041,30.7349719 177.56041,32.0433976 L177.56041,39.3096386 C177.56041,40.6185382 176.503078,41.6795904 175.197602,41.6795904" id="Fill-21" fill="#B4CFD6" mask="url(#mask-4)"></path>
                    <path d="M201.878669,98.1920651 L195.27897,94.4899928 C194.139868,93.8511815 193.733384,92.4072217 194.370524,91.2651333 L196.21672,87.9563944 C198.132868,84.5230209 199.145298,80.6219124 199.145298,76.6757839 L199.145298,54.632057 C199.145298,53.3236313 200.203575,52.2625791 201.508579,52.2625791 L209.071079,52.2625791 C210.376555,52.2625791 211.43436,53.3236313 211.43436,54.632057 L211.43436,76.6757839 C211.43436,82.7236394 209.881212,88.7046755 206.940817,93.9724988 L205.095567,97.2807639 C204.457481,98.4228522 203.01777,98.8308763 201.878669,98.1920651" id="Fill-22" fill="#B4CFD6" mask="url(#mask-4)"></path>
                    <path d="M40.1208586,98.1920651 C38.981757,98.8308763 37.5415734,98.4233261 36.9039602,97.2812378 L35.0587102,93.9729727 C32.1183156,88.7051494 30.5646945,82.7241133 30.5646945,76.6762578 L30.5646945,54.6325309 C30.5646945,53.3241052 31.6229719,52.263053 32.9279758,52.263053 L40.4904758,52.263053 C41.7959523,52.263053 42.853757,53.3241052 42.853757,54.6325309 L42.853757,76.6762578 C42.853757,80.6223863 43.867132,84.5234948 45.7828078,87.9568683 L47.6290031,91.2656072 C48.2656711,92.4076956 47.8596594,93.8516554 46.7205578,94.4904667 L40.1208586,98.1920651 Z" id="Fill-23" fill="#B4CFD6" mask="url(#mask-4)"></path>
                    <polygon id="Fill-24" fill="#B4CFD6" mask="url(#mask-4)" points="107.368594 155.912594 133.958816 155.912594 133.958816 141.145534 107.368594 141.145534"></polygon>
                    <polygon id="Fill-25" fill="#B4CFD6" mask="url(#mask-4)" points="147.366751 172.182946 133.958911 155.912689 107.368688 155.912689 93.9608484 172.182946"></polygon>
                    <path d="M172.046402,209.305083 L69.9526523,209.305083 C68.6476484,209.305083 67.5893711,208.244031 67.5893711,206.935605 L67.5893711,181.661332 C67.5893711,176.426681 71.8215352,172.18342 77.0424961,172.18342 L164.956559,172.18342 C170.177992,172.18342 174.409684,176.426681 174.409684,181.661332 L174.409684,206.935605 C174.409684,208.244031 173.351879,209.305083 172.046402,209.305083" id="Fill-26" fill="#B4CFD6" mask="url(#mask-4)"></path>
                    <path d="M209.070984,76.6758787 C209.070984,82.3195012 207.62182,87.9010434 204.878996,92.8158145 L203.035637,96.1255012 L203.033746,96.1240795 L203.033273,96.1240795 L196.433102,92.4220072 L198.278824,89.1132683 C200.392543,85.3273165 201.508484,81.0267141 201.508484,76.6758787 L201.508484,54.6321518 L209.070984,54.6321518 L209.070984,76.6758787 Z M176.014352,103.659019 L171.573746,103.659019 L171.573746,44.0491157 L200.563172,44.0491157 C201.866758,44.0491157 202.926453,45.1120635 202.926453,46.4185936 L202.926453,49.8936699 L201.508484,49.8936699 C198.902258,49.8936699 196.781922,52.0195655 196.781922,54.6326257 L196.781922,76.6763526 C196.781922,80.2187221 195.873004,83.7189149 194.153953,86.79971 L192.307758,90.1079751 C191.03584,92.3878867 191.849754,95.2810193 194.125121,96.557694 L194.155844,96.5752281 C189.368309,100.969662 183.001629,103.659019 176.014352,103.659019 L176.014352,103.659019 Z M133.362797,138.776104 L108.63673,138.776104 C90.1728867,138.776104 75.1518711,123.715702 75.1518711,105.203919 L75.1518711,59.687196 C75.1518711,58.3782964 74.0945391,57.3177181 72.7885898,57.3177181 C71.4831133,57.3177181 70.4253086,58.3782964 70.4253086,59.687196 L70.4253086,103.658545 L65.9847031,103.658545 C58.9983711,103.658545 52.6316914,100.96824 47.8436836,96.5752281 L47.8748789,96.557694 C50.1497734,95.2810193 50.9636875,92.3874129 49.6917695,90.108449 L47.8455742,86.79971 C46.1265234,83.7189149 45.2171328,80.2182482 45.2171328,76.6763526 L45.2171328,54.6326257 C45.2171328,52.0195655 43.0972695,49.8936699 40.4905703,49.8936699 L39.0726016,49.8936699 L39.0726016,46.4185936 C39.0726016,45.1120635 40.1327695,44.0491157 41.4358828,44.0491157 L72.7885898,44.0491157 L166.847184,44.0491157 L166.847184,105.204393 C166.847184,123.715702 151.826641,138.776104 133.362797,138.776104 L133.362797,138.776104 Z M133.958816,174.552377 L164.956559,174.552377 C168.865898,174.552377 172.046402,177.74122 172.046402,181.66081 L172.046402,206.935084 L69.9526523,206.935084 L69.9526523,181.66081 C69.9526523,177.74122 73.1331563,174.552377 77.0424961,174.552377 L119.495062,174.552377 C120.800539,174.552377 121.858344,173.491798 121.858344,172.182899 C121.858344,170.873999 120.800539,169.813421 119.495062,169.813421 L98.9789453,169.813421 L108.481699,158.28212 L132.845711,158.28212 L142.348937,169.813421 L133.959289,169.813421 C132.65334,169.813421 131.596008,170.873999 131.596008,172.182899 C131.596008,173.491798 132.65334,174.552377 133.959289,174.552377 L133.958816,174.552377 Z M109.731875,153.543164 L131.595535,153.543164 L131.595535,143.515059 L109.731875,143.515059 L109.731875,153.543164 Z M38.9662539,96.1240795 L37.1205312,92.8158145 C34.377707,87.9010434 32.9280703,82.3199751 32.9280703,76.6758787 L32.9280703,54.6321518 L40.4905703,54.6321518 L40.4905703,76.6758787 C40.4905703,81.0267141 41.6069844,85.3273165 43.7202305,89.1132683 L45.5664258,92.4220072 L38.9662539,96.1240795 Z M66.8014531,32.0439189 L175.197602,32.0439189 L175.20091,39.3101598 L66.8014531,39.3101598 L66.8014531,32.0439189 Z M209.070984,49.8936699 L207.653016,49.8936699 L207.653016,46.4185936 C207.653016,42.4990032 204.472512,39.3101598 200.563172,39.3101598 L179.924164,39.3101598 L179.924164,32.0439189 C179.924164,29.4308586 177.804301,27.3049631 175.197602,27.3049631 L66.8014531,27.3049631 C64.1952266,27.3049631 62.0748906,29.4308586 62.0748906,32.0439189 L62.0748906,39.3101598 L41.4358828,39.3101598 C37.526543,39.3101598 34.3460391,42.4990032 34.3460391,46.4185936 L34.3460391,49.8936699 L32.9280703,49.8936699 C30.3218437,49.8936699 28.2015078,52.0195655 28.2015078,54.6326257 L28.2015078,76.6763526 C28.2015078,83.128441 29.8600586,89.509445 32.9966055,95.1298466 L34.8423281,98.4385855 C35.7077617,99.988698 37.3176289,100.862088 38.9747617,100.862088 C39.7551172,100.862088 40.5458711,100.668264 41.2742344,100.259766 L43.5302227,98.994939 C49.2659062,104.796369 57.2126758,108.397975 65.9847031,108.397975 L70.5685234,108.397975 C72.0937852,126.830144 86.681375,141.597204 105.005313,143.337822 L105.005313,155.061051 L92.8481211,169.813895 L77.0424961,169.813895 C70.5274023,169.813895 65.2260898,175.128634 65.2260898,181.661284 L65.2260898,206.935557 C65.2260898,209.548618 67.3464258,211.674513 69.9526523,211.674513 L172.046402,211.674513 C174.653102,211.674513 176.772965,209.548618 176.772965,206.935557 L176.772965,181.661284 C176.772965,175.128634 171.472125,169.813895 164.956559,169.813895 L148.480234,169.813895 L136.32257,155.061051 L136.32257,143.389477 C154.959879,141.949782 169.886836,127.054296 171.430531,108.398449 L176.014352,108.398449 C184.785906,108.398449 192.729367,104.794473 198.464578,98.9925695 L200.72482,100.26024 C201.453184,100.668738 202.243937,100.862561 203.02382,100.862561 C204.681426,100.862561 206.291293,99.988698 207.156727,98.4385855 L209.002449,95.1303205 C212.138996,89.5099189 213.797074,83.1289149 213.797074,76.6768265 L213.797074,54.6330996 C213.797074,52.0195655 211.677684,49.8936699 209.070984,49.8936699 L209.070984,49.8936699 Z" id="Fill-27" fill="#89C5CC" mask="url(#mask-4)"></path>
                    <path d="M155.030777,198.87938 L86.9682773,198.87938 C85.6632734,198.87938 84.6049961,197.818328 84.6049961,196.509902 L84.6049961,185.452496 C84.6049961,184.144071 85.6632734,183.083018 86.9682773,183.083018 L155.030777,183.083018 C156.336254,183.083018 157.394059,184.144071 157.394059,185.452496 L157.394059,196.509902 C157.394059,197.818328 156.336254,198.87938 155.030777,198.87938" id="Fill-28" fill="#89C5CC" mask="url(#mask-4)"></path>
                    <path d="M138.374749,193.35044 L103.624589,193.35044 C102.319585,193.35044 101.261308,192.289388 101.261308,190.980962 C101.261308,189.672537 102.319585,188.611484 103.624589,188.611484 L138.374749,188.611484 C139.680226,188.611484 140.73803,189.672537 140.73803,190.980962 C140.73803,192.289388 139.679753,193.35044 138.374749,193.35044" id="Fill-29" fill="#FFFFFF" mask="url(#mask-4)"></path>
                </g>
            </g>
        </g>
    </g>
</svg>