<?xml version="1.0" encoding="UTF-8"?>
<svg width="234px" height="238px" viewBox="0 0 234 238" version="1.1" xmlns="http://www.w3.org/2000/svg" xmlns:xlink="http://www.w3.org/1999/xlink">
    <!-- Generator: Sketch 55.2 (78181) - https://sketchapp.com -->
    <title>Group 62</title>
    <desc>Created with Sketch.</desc>
    <defs>
        <polygon id="path-1" points="6.55499877e-05 0 233.754772 0 233.754772 237.999951 6.55499877e-05 237.999951"></polygon>
    </defs>
    <g id="b560" stroke="none" stroke-width="1" fill="none" fill-rule="evenodd">
        <g id="about-lg-master-05" transform="translate(-603.000000, -114.000000)">
            <g id="Group-62" transform="translate(603.000000, 114.000000)">
                <g id="Group-3">
                    <mask id="mask-2" fill="white">
                        <use xlink:href="#path-1"></use>
                    </mask>
                    <g id="Clip-2"></g>
                    <path d="M81.7087607,-0.000213502636 C34.9876893,0.248644922 11.531975,80.6968285 2.77740357,122.049329 C-5.97623929,163.402758 3.17065357,248.234883 71.071975,236.981481 C82.0476893,235.163012 84.6096179,234.789743 93.6571536,230.243106 C109.760904,222.149246 128.819832,216.454911 146.042511,214.735918 C153.104761,214.03168 162.035296,211.69677 166.760796,210.846106 C204.658582,204.022664 243.334511,167.262356 231.625689,128.744473 C222.832582,99.8181762 197.070296,88.1738402 171.269475,89.7747621 C157.100404,90.6537816 142.020868,82.3321488 138.997439,73.138934 C129.148082,43.1950941 117.819975,-0.191097266 81.7087607,-0.000213502636" id="Fill-1" fill="#E5E9EC" mask="url(#mask-2)"></path>
                </g>
                <path d="M213,122.20161 C213,111.355173 204.202181,102.562109 193.349879,102.562109 C188.234133,102.562109 183.575972,104.517414 180.079444,107.719244 C166.501163,91.1593367 146.235348,80.2878019 123.402127,79.2341587 L179.345169,56.4211787 C181.274095,55.6343158 181.274095,52.9042318 179.345169,52.1178337 L120.624529,28.1721989 C120.060918,27.9426004 119.430344,27.9426004 118.867198,28.1721989 L60.146093,52.1178337 C58.2171669,52.9042318 58.2171669,55.6343158 60.146093,56.4211787 L116.089135,79.2341587 C87.4142628,80.557371 62.7869733,97.3631436 50.3731155,121.477956 C49.1673042,121.246499 47.9233608,121.12101 46.6501208,121.12101 C35.7973539,121.12101 27,129.914074 27,140.760511 C27,149.943986 33.3076069,157.654126 41.8292006,159.802313 C43.2689198,201.575759 77.5989679,235 119.745631,235 C138.886084,235 156.411968,228.102285 169.980949,216.664655 C172.083795,217.431998 174.354514,217.851689 176.72289,217.851689 C187.575657,217.851689 196.373011,209.058624 196.373011,198.212187 C196.373011,193.616035 194.789133,189.392166 192.143138,186.046721 C195.734995,177.089591 197.714609,167.313065 197.714609,157.073158 C197.714609,151.78728 197.18634,146.625033 196.182815,141.634751 C205.692588,140.261808 213,132.086429 213,122.20161" id="Fill-4" fill="#C5CFD6"></path>
                <path d="M62.6923077,65.6923077 L61.3076923,65.6923077 L61.3076923,64.3076923 C61.3076923,63.0333846 60.2743077,62 59,62 C57.7252308,62 56.6923077,63.0333846 56.6923077,64.3076923 L56.6923077,65.6923077 L55.3076923,65.6923077 C54.0329231,65.6923077 53,66.7256923 53,68 C53,69.2743077 54.0329231,70.3076923 55.3076923,70.3076923 L56.6923077,70.3076923 L56.6923077,71.6923077 C56.6923077,72.9666154 57.7252308,74 59,74 C60.2743077,74 61.3076923,72.9666154 61.3076923,71.6923077 L61.3076923,70.3076923 L62.6923077,70.3076923 C63.9666154,70.3076923 65,69.2743077 65,68 C65,66.7256923 63.9666154,65.6923077 62.6923077,65.6923077" id="Fill-6" fill="#B4CFD6"></path>
                <path d="M43.6923077,197.692308 L42.3076923,197.692308 L42.3076923,196.307692 C42.3076923,195.032923 41.2743077,194 40,194 C38.7256923,194 37.6923077,195.032923 37.6923077,196.307692 L37.6923077,197.692308 L36.3076923,197.692308 C35.0333846,197.692308 34,198.725231 34,200 C34,201.274308 35.0333846,202.307692 36.3076923,202.307692 L37.6923077,202.307692 L37.6923077,203.692308 C37.6923077,204.966615 38.7256923,206 40,206 C41.2743077,206 42.3076923,204.966615 42.3076923,203.692308 L42.3076923,202.307692 L43.6923077,202.307692 C44.9666154,202.307692 46,201.274308 46,200 C46,198.725231 44.9666154,197.692308 43.6923077,197.692308" id="Fill-8" fill="#B4CFD6"></path>
                <path d="M168.692308,12.6923077 L167.307692,12.6923077 L167.307692,11.3076923 C167.307692,10.0333846 166.274308,9 165,9 C163.725692,9 162.692308,10.0333846 162.692308,11.3076923 L162.692308,12.6923077 L161.307692,12.6923077 C160.033385,12.6923077 159,13.7256923 159,15 C159,16.2743077 160.033385,17.3076923 161.307692,17.3076923 L162.692308,17.3076923 L162.692308,18.6923077 C162.692308,19.9666154 163.725692,21 165,21 C166.274308,21 167.307692,19.9666154 167.307692,18.6923077 L167.307692,17.3076923 L168.692308,17.3076923 C169.966615,17.3076923 171,16.2743077 171,15 C171,13.7256923 169.966615,12.6923077 168.692308,12.6923077" id="Fill-10" fill="#B4CFD6"></path>
                <path d="M197.692006,79 C197.101248,79 196.510952,78.7830991 196.060037,78.3492972 L193.999769,76.365187 L191.939501,78.3492972 C191.038134,79.2169009 189.577393,79.2169009 188.676025,78.3492972 C187.774658,77.481249 187.774658,76.0740597 188.676025,75.2064559 L192.368262,71.6507028 C193.269629,70.7830991 194.730371,70.7830991 195.631738,71.6507028 L199.323975,75.2064559 C200.225342,76.0745041 200.225342,77.4816934 199.323975,78.3492972 C198.873983,78.7830991 198.282764,79 197.692006,79" id="Fill-12" fill="#B4CFD6"></path>
                <path d="M43.6920059,87 C43.1012481,87 42.5109517,86.7830991 42.0600373,86.3492972 L39.9997692,84.365187 L37.9395012,86.3492972 C37.0381339,87.2169009 35.5773927,87.2169009 34.6760255,86.3492972 C33.7746582,85.481249 33.7746582,84.0740597 34.6760255,83.2064559 L38.3682621,79.6507028 C39.2696294,78.7830991 40.7303706,78.7830991 41.6317379,79.6507028 L45.3239745,83.2064559 C46.2253418,84.0745041 46.2253418,85.4816934 45.3239745,86.3492972 C44.8735217,86.7830991 44.2823023,87 43.6920059,87" id="Fill-14" fill="#B4CFD6"></path>
                <path d="M120,67 C163.07871,67 198,101.921756 198,145 C198,188.078244 163.07871,223 120,223 C76.9217556,223 42,188.078244 42,145 C42,101.921756 76.9217556,67 120,67" id="Fill-16" fill="#E5E9EC"></path>
                <path d="M197,144.845276 C197,178.420927 175.86188,207.035251 146.226035,218 L141.671551,211.903153 L146.481453,208.035046 L144.557955,203.92803 L120.742115,208.035046 L104.381507,204.410497 L95,190.87956 L98.8497725,174.930707 L108.473278,167.681144 L108.473278,162.36331 L115.448215,156.806567 L123.144983,156.324564 L138.300686,151.00766 L143.954577,150.039936 L143.954577,157.532127 L159.229197,159.70695 L159.471196,154.389116 L166.929205,154.389116 L177.03347,150.525657 L177.03347,139.165359 L168.852703,142.790373 L164.764171,135.540345 L161.393769,137.715168 L165.965836,144.845741 L162.115601,147.140018 L158.027069,143.276094 L155.862034,136.508069 L146.238529,129.983602 L143.83566,132.640427 L153.938999,141.58281 L150.810596,145.932919 L146.238529,140.615086 L139.505128,134.815714 L132.454307,139.789127 L128.196422,142.790373 L124.349888,151.732291 L115.927585,154.389116 L114.191949,153.392574 L110.875684,151.489663 L111.839053,144.845276 L110.875684,141.100342 L112.560885,137.233165 L122.364849,138.440263 L122.364849,131.976685 L119.416904,129.015413 L119.416904,123.539081 L125.713504,123.539081 L133.969692,115.241847 L133.969692,110.4102 L126.114213,102.518741 L129.852472,98.7640464 L129.852472,91.2899825 L135.412894,85.7007028 L146.480065,85.7007028 L150.810133,90.0503477 L150.810133,81.4119473 L146.000231,75.612111 L141.670163,75.612111 L132.40711,68 C169.071104,74.2093296 197,106.252519 197,144.845276" id="Fill-18" fill="#B4CFD6"></path>
                <path d="M161,78.9571448 L161,91.7080286 C161,92.6503036 160.429044,93.4997436 159.550543,93.8571583 L120.378501,109.829416 C119.816372,110.056861 119.184093,110.056861 118.621964,109.829416 L79.4494571,93.8571583 C78.5714206,93.4997436 78,92.6503036 78,91.7080286 L78,78.9571448 C90.0137692,71.3818108 104.243535,67 119.5,67 C134.756465,67 148.986231,71.3818108 161,78.9571448" id="Fill-20" fill="#B4CFD6"></path>
                <path d="M194,169.38063 C189.850586,182.002888 182.501719,193.186935 172.905213,202 C168.106265,198.461908 165,192.800961 165,186.418611 C165,175.694057 173.772186,167 184.593116,167 C188.004908,167 191.208534,167.864305 194,169.38063" id="Fill-22" fill="#B4CFD6"></path>
                <path d="M197,137.575137 C195.660454,137.852683 194.274393,138 192.855912,138 C181.889585,138 173,129.262606 173,118.484024 C173,110.822641 177.491308,104.191088 184.027408,101 C191.257948,111.630804 195.876586,124.113917 197,137.575137" id="Fill-24" fill="#B4CFD6"></path>
                <path d="M161,78.8876927 L161,91.6581845 C161,92.6019085 160.425394,93.4526548 159.541277,93.810619 L129.497195,106 L126,102.527282 L129.777718,98.7709812 L129.777718,91.2955713 L135.397542,85.7029606 L146.581085,85.7029606 L150.957721,90.0543186 L150.957721,81.4120382 L146.094844,75.6148764 L141.718675,75.6148764 L132.358536,68 C142.742586,69.7386836 152.434678,73.5089308 161,78.8876927" id="Fill-26" fill="#B4CFD6"></path>
                <path d="M117,76.4280163 L111.421122,82.1892537 L108.755031,89.5706371 L98.3289698,89.5706371 L83.2977576,100.192313 L80.1452696,95.3457258 L91.0553965,82.6712806 L87.4183766,82.4302671 L82.6579331,86.6900184 L75.2976197,89.5706371 L70.9335689,95.3461875 L73.5991934,100.192774 L65.3584218,116.27696 L60.5065748,111.714787 L60.5065748,106.436039 L49.3567469,116.276498 L46,117 C54.8549472,93.4411654 74.9702459,75.3046719 99.8641756,69 L101.238959,70.6672406 L113.60408,72.5898077 L117,76.4280163 Z" id="Fill-28" fill="#B4CFD6"></path>
                <path d="M113.63562,72.6019868 L117,76.4543046 L111.472805,82.2397351 L108.829364,89.6523179 L98.5005332,89.6523179 L88.2364024,97 L81.5030217,94.2417219 L91.2911482,82.7264901 L87.6864557,82.4807947 L82.9680057,86.7596026 L78,88.7298013 L78,78.5172185 C84.7148951,74.2662252 92.1276218,71.0258278 100.020974,69 L101.384287,70.6735099 L113.63562,72.6019868 Z" id="Fill-30" fill="#B4CFD6"></path>
                <path d="M161,46 L161,81.7647765 C161,82.7041282 160.429044,83.550933 159.550543,83.9072388 L120.378501,99.8299449 C119.816372,100.056685 119.184093,100.056685 118.621964,99.8299449 L79.4494571,83.9072388 C78.5714206,83.550933 78,82.7041282 78,81.7647765 L78,46 L161,46 Z" id="Fill-32" fill="#B4CFD6"></path>
                <path d="M161,46 L161,58.7149533 L123.012146,74.3037383 C121.892533,74.7663551 120.708345,75 119.5,75 C118.292119,75 117.107931,74.7663551 115.987854,74.3037383 L78,58.7149533 L78,46 L161,46 Z" id="Fill-34" fill="#89C5CC"></path>
                <path d="M119.122232,15.1737098 L60.4455989,39.3294483 C58.5181337,40.1227464 58.5181337,42.8767847 60.4455989,43.6705517 L119.122232,67.8262902 C119.684951,68.0579033 120.314584,68.0579033 120.877768,67.8262902 L179.554401,43.6705517 C181.481866,42.8772536 181.481866,40.1232153 179.554401,39.3294483 L120.877768,15.1737098 C120.315049,14.9420967 119.684951,14.9420967 119.122232,15.1737098" id="Fill-36" fill="#B4CFD6"></path>
                <path d="M153.7219,141 L142.277645,141 C141.019474,141 140,139.958423 140,138.674013 L140,125.169797 C140,120.657382 143.581369,117 147.999544,117 C152.418176,117 156,120.657382 156,125.169797 L156,138.674013 C155.999544,139.958888 154.980071,141 153.7219,141" id="Fill-38" fill="#B4CFD6"></path>
                <path d="M147.999766,103 C152.970679,103 157,107.029426 157,112 C157,116.970574 152.970679,121 147.999766,121 C143.029321,121 139,116.970574 139,112 C139,107.029426 143.029321,103 147.999766,103" id="Fill-40" fill="#B4CFD6"></path>
                <path d="M46.5,109 C57.2693937,109 66,117.730606 66,128.5 C66,139.269855 57.2693937,148 46.5,148 C35.7301448,148 27,139.269855 27,128.5 C27,117.730606 35.7301448,109 46.5,109" id="Fill-42" fill="#B4CFD6"></path>
                <path d="M46.5002257,122.682955 C48.1462754,122.682955 49.4853273,124.072526 49.4853273,125.780102 C49.4853273,127.487678 48.1462754,128.877718 46.5002257,128.877718 C44.8541761,128.877718 43.5146727,127.487678 43.5146727,125.780102 C43.5146727,124.072526 44.8541761,122.682955 46.5002257,122.682955 M54,125.78057 C54,121.490087 50.6356659,118 46.5002257,118 C42.3647856,118 39,121.490555 39,125.78057 C39,127.896541 39.8207675,129.815339 41.1467269,131.219898 C39.821219,132.623988 39,134.542318 39,136.658289 C39,137.95185 40.0103837,139 41.2573363,139 C42.5038375,139 43.5146727,137.95185 43.5146727,136.658289 C43.5146727,134.950713 44.8541761,133.561609 46.5002257,133.561609 C48.1462754,133.561609 49.4853273,134.950713 49.4853273,136.658289 C49.4853273,137.95185 50.4961625,139 51.7426637,139 C52.9900677,139 54,137.95185 54,136.658289 C54,134.542318 53.179684,132.623988 51.8532731,131.219898 C53.179684,129.815339 54,127.896541 54,125.78057" id="Fill-44" fill="#FFFFFF"></path>
                <path d="M184.500231,157 C195.269497,157 204,165.730503 204,176.500231 C204,187.269497 195.269497,196 184.500231,196 C173.730503,196 165,187.269497 165,176.500231 C165,165.730503 173.730503,157 184.500231,157" id="Fill-46" fill="#B4CFD6"></path>
                <path d="M184.500226,170.682955 C186.146275,170.682955 187.485327,172.072526 187.485327,173.779634 C187.485327,175.487678 186.146275,176.87725 184.500226,176.87725 C182.854176,176.87725 181.514673,175.487678 181.514673,173.779634 C181.514673,172.072526 182.854176,170.682955 184.500226,170.682955 M192,173.780102 C192,169.489618 188.635214,166 184.500226,166 C180.364786,166 177,169.490087 177,173.780102 C177,175.896541 177.820316,177.815339 179.146727,179.21943 C177.820767,180.62352 177,182.54185 177,184.658289 C177,185.951382 178.010384,187 179.257336,187 C180.503837,187 181.514673,185.951382 181.514673,184.658289 C181.514673,182.950244 182.854176,181.561141 184.500226,181.561141 C186.146275,181.561141 187.485327,182.950244 187.485327,184.658289 C187.485327,185.951382 188.496163,187 189.742664,187 C190.990068,187 192,185.951382 192,184.658289 C192,182.54185 191.179684,180.62352 189.853273,179.21943 C191.179684,177.815339 192,175.896541 192,173.780102" id="Fill-48" fill="#FFFFFF"></path>
                <path d="M125.499769,154 C136.269497,154 145,162.730606 145,173.5 C145,184.269394 136.269497,193 125.499769,193 C114.730503,193 106,184.269394 106,173.5 C106,162.730606 114.730503,154 125.499769,154" id="Fill-50" fill="#B4CFD6"></path>
                <path d="M125.499323,167.682955 C127.145372,167.682955 128.484876,169.072526 128.484876,170.780102 C128.484876,172.487678 127.145372,173.87725 125.499323,173.87725 C123.853273,173.87725 122.514221,172.487678 122.514221,170.780102 C122.514221,169.072526 123.853273,167.682955 125.499323,167.682955 M133,170.78057 C133,166.490087 129.635214,163 125.500226,163 C121.364786,163 118,166.490555 118,170.78057 C118,172.896541 118.820316,174.815339 120.146727,176.21943 C118.820767,177.62352 118,179.542318 118,181.658289 C118,182.951382 119.010384,184 120.257336,184 C121.503837,184 122.514673,182.951382 122.514673,181.658289 C122.514673,179.950713 123.853725,178.561141 125.500226,178.561141 C127.145824,178.561141 128.485327,179.950713 128.485327,181.658289 C128.485327,182.951382 129.496163,184 130.742664,184 C131.990068,184 133,182.951382 133,181.658289 C133,179.542318 132.179684,177.62352 130.853273,176.21943 C132.179233,174.815339 133,172.896541 133,170.78057" id="Fill-52" fill="#FFFFFF"></path>
                <path d="M192.5,90 C203.269394,90 212,98.7306063 212,109.5 C212,120.269394 203.269394,129 192.5,129 C181.730145,129 173,120.269394 173,109.5 C173,98.7306063 181.730145,90 192.5,90" id="Fill-54" fill="#B4CFD6"></path>
                <path d="M124.999767,191.344972 C115.436088,191.344972 107.655444,183.564246 107.655444,174.000466 C107.655444,164.436685 115.436088,156.655959 124.999767,156.655959 C134.563912,156.655959 142.344556,164.436685 142.344556,174.000466 C142.344556,183.564246 134.564377,191.344972 124.999767,191.344972 M124.999767,152 C112.869076,152 103,161.869646 103,174 C103,186.130819 112.869076,196 124.999767,196 C137.130924,196 147,186.130819 147,174 C147,161.869646 137.130924,152 124.999767,152" id="Fill-56" fill="#89C5CC"></path>
                <path d="M193.099756,127.031444 C183.579342,127.031444 175.833896,119.250812 175.833896,109.687147 C175.833896,100.123482 183.579342,92.3428499 193.099756,92.3428499 C202.620171,92.3428499 210.365616,100.123482 210.365616,109.687147 C210.365616,119.250812 202.620171,127.031444 193.099756,127.031444 L193.099756,127.031444 Z M201.494942,176.856261 C201.494942,186.419926 193.749497,194.200558 184.229082,194.200558 C174.708668,194.200558 166.963223,186.419926 166.963223,176.856261 C166.963223,167.292596 174.708668,159.511964 184.229082,159.511964 C193.749497,159.511964 201.494942,167.292596 201.494942,176.856261 L201.494942,176.856261 Z M29.6348472,128.277239 C29.6348472,118.713574 37.3802926,110.932942 46.9007071,110.932942 C56.4211216,110.932942 64.1665671,118.713574 64.1665671,128.277239 C64.1665671,137.840904 56.4211216,145.621536 46.9007071,145.621536 C37.3802926,145.621536 29.6348472,137.841369 29.6348472,128.277239 L29.6348472,128.277239 Z M150.333663,58.1197996 L158.826635,54.6389291 L158.826635,82.0310564 L150.3332,85.5119268 L150.3332,58.1197996 L150.333663,58.1197996 Z M119.746731,65.6280888 L61.2255872,41.6428105 L119.746267,17.6575322 L178.266948,41.6428105 L147.065033,54.4312966 L114.419043,39.9878025 C113.248398,39.4691868 111.880328,40.0026999 111.364521,41.18006 C110.848714,42.356489 111.379815,43.7303085 112.551387,44.2484587 L141.09641,56.8777289 L119.746731,65.6280888 Z M154.629274,112.017193 C154.629274,115.680091 151.662805,118.660037 148.016472,118.660037 C144.370138,118.660037 141.403669,115.680091 141.403669,112.017193 C141.403669,108.354295 144.370138,105.37435 148.016472,105.37435 C151.662805,105.37435 154.629274,108.354295 154.629274,112.017193 L154.629274,112.017193 Z M153.838184,138.803648 L151.106215,138.803648 L151.106215,131.820492 C151.106215,130.535126 150.068113,129.492774 148.789023,129.492774 C147.50947,129.492774 146.471831,130.535126 146.471831,131.820492 L146.471831,138.803648 L142.194759,138.803648 L142.194759,125.289379 C142.194759,124.172074 142.509433,123.098065 143.091512,122.172564 C144.579613,122.903933 146.250771,123.315474 148.016008,123.315474 C149.780318,123.315474 151.451013,122.903933 152.938651,122.173495 C153.521193,123.098065 153.837721,124.16835 153.837721,125.289379 L153.837721,138.803648 L153.838184,138.803648 Z M215,109.687147 C215,97.5564741 205.17557,87.6874126 193.099756,87.6874126 C188.271192,87.6874126 183.804573,89.2688647 180.180021,91.9382924 C178.354074,89.8265861 176.415048,87.7949532 174.386115,85.8894828 C173.451823,85.0114673 171.984577,85.0608149 171.110996,86.0002822 C170.236951,86.9392839 170.285612,88.4122642 171.221294,89.2902797 C173.15893,91.1105557 175.008976,93.0528041 176.750114,95.0714017 C173.300742,98.960554 171.199513,104.081069 171.199513,109.687147 C171.199513,121.81782 181.023943,131.686881 193.099756,131.686881 C193.41165,131.686881 193.720764,131.676174 194.029414,131.663138 C194.758866,135.917277 195.132397,140.268249 195.132397,144.616893 C195.132397,148.84822 194.777403,153.075357 194.08688,157.221023 C191.121338,155.712196 187.773459,154.856992 184.228619,154.856992 C172.152805,154.856992 162.328375,164.725588 162.328375,176.856261 C162.328375,185.503736 167.322851,192.998524 174.564539,196.591591 C160.339761,211.72409 140.545382,220.345028 119.746267,220.345028 C100.170631,220.345028 81.6196561,212.842326 67.5112018,199.219585 C53.996412,186.168998 45.9033877,168.819114 44.5626605,150.150345 C45.3305779,150.232747 46.1105447,150.276973 46.9007071,150.276973 C58.9765207,150.276973 68.8009508,140.407912 68.8009508,128.277239 C68.8009508,118.65445 62.6159023,110.460415 54.0316333,107.481401 C59.4872298,97.7617789 67.0496172,89.3424206 76.1098373,82.8690351 C76.3888272,84.4165024 77.4269292,85.7311979 78.9154932,86.3410602 L117.995397,102.358558 C118.559865,102.589933 119.152603,102.705853 119.746267,102.705853 C120.339469,102.705853 120.93267,102.589933 121.496674,102.358558 L145.698353,92.4392174 L145.698353,100.961461 C140.604702,102.037332 136.768359,106.585229 136.768359,112.017193 C136.768359,114.793696 137.77263,117.338358 139.432666,119.307608 C138.222165,121.054794 137.559448,123.125067 137.559448,125.289845 L137.559448,138.804114 C137.559448,141.371122 139.638433,143.459551 142.193832,143.459551 L153.837258,143.459551 C156.392657,143.459551 158.471641,141.371122 158.471641,138.804114 L158.471641,125.289845 C158.471641,123.117152 157.812632,121.049673 156.601204,119.304349 C158.25985,117.335565 159.262731,114.792765 159.262731,112.017659 C159.262731,106.585695 155.426388,102.037798 150.332737,100.961926 L150.332737,90.5402646 L160.576578,86.3415257 C162.328375,85.6236573 163.460092,83.9318714 163.460092,82.0310564 L163.460092,52.7395107 L180.017355,45.9532798 C181.769152,45.2354114 182.900868,43.54316 182.900868,41.6423449 C182.900868,39.7419954 181.768688,38.0502095 180.016891,37.3323411 L121.497601,13.3470628 C120.368202,12.8843124 119.124797,12.8843124 117.995861,13.3470628 L59.4751804,37.3323411 C57.7233834,38.0502095 56.5916669,39.7419954 56.5916669,41.6423449 C56.5916669,43.54316 57.7233834,45.2349459 59.4751804,45.9532798 L117.995861,69.9385581 C118.560329,70.1699333 119.153066,70.2858537 119.746731,70.2858537 C120.339932,70.2858537 120.933133,70.1699333 121.497138,69.9385581 L145.698816,60.019218 L145.698816,87.4113452 L119.746267,98.0480883 L80.6663634,82.0305908 L80.6663634,65.1225083 C80.6663634,63.837142 79.6287249,62.7947896 78.3491715,62.7947896 C77.0696182,62.7947896 76.0319797,63.837142 76.0319797,65.1225083 L76.0319797,77.2843726 C64.8686762,84.6124963 55.6694245,94.6584644 49.334222,106.416702 C48.5347908,106.327318 47.7233102,106.277505 46.9002437,106.277505 C34.82443,106.277505 25,116.146566 25,128.277239 C25,137.931685 31.2258311,146.148066 39.8541267,149.101941 C40.9682325,169.446202 49.6201635,188.400814 64.2995739,202.575224 C79.2755848,217.036409 98.9670812,225 119.746267,225 C142.502018,225 164.125126,215.279447 179.30783,198.288498 C180.890936,198.655346 182.536142,198.85553 184.228619,198.85553 C196.304433,198.85553 206.128863,188.986468 206.128863,176.855796 C206.128863,170.100291 203.079438,164.049153 198.293974,160.010096 C199.267658,154.967326 199.766781,149.79467 199.766781,144.615962 C199.766781,140.039667 199.376566,135.459182 198.614673,130.978324 C208.029423,128.516528 215,119.904435 215,109.687147 L215,109.687147 Z" id="Fill-58" fill="#89C5CC"></path>
                <path d="M192.5,103.683423 C194.146,103.683423 195.485463,105.072994 195.485463,106.78057 C195.485463,108.488146 194.146,109.877718 192.5,109.877718 C190.854,109.877718 189.514537,108.488146 189.514537,106.78057 C189.514537,105.072994 190.853548,103.683423 192.5,103.683423 M200,106.78057 C200,102.490087 196.635316,99 192.5,99 C188.364684,99 185,102.490555 185,106.78057 C185,108.896541 185.820743,110.815339 187.146662,112.21943 C185.821194,113.62352 185,115.542318 185,117.658289 C185,118.951382 186.010353,120 187.257268,120 C188.503732,120 189.514537,118.951382 189.514537,117.658289 C189.514537,115.950713 190.854,114.561141 192.5,114.561141 C194.146,114.561141 195.485463,115.950713 195.485463,117.658289 C195.485463,118.951382 196.495817,120 197.742732,120 C198.989647,120 200,118.951382 200,117.658289 C200,115.542318 199.179257,113.62352 197.853338,112.21943 C199.179257,110.815339 200,108.896541 200,106.78057" id="Fill-60" fill="#FFFFFF"></path>
            </g>
        </g>
    </g>
</svg>