<?xml version="1.0" encoding="UTF-8"?>
<svg width="56px" height="56px" viewBox="0 0 56 56" version="1.1" xmlns="http://www.w3.org/2000/svg" xmlns:xlink="http://www.w3.org/1999/xlink">
    <!-- Generator: Sketch 55.2 (78181) - https://sketchapp.com -->
    <title>Group</title>
    <desc>Created with Sketch.</desc>
    <defs>
        <circle id="path-1" cx="28" cy="28" r="28"></circle>
    </defs>
    <g id="b560" stroke="none" stroke-width="1" fill="none" fill-rule="evenodd">
        <g id="silent-launch-17" transform="translate(-495.000000, -329.000000)">
            <g id="Group" transform="translate(495.000000, 329.000000)">
                <g id="Bitmap-Copy-2">
                    <mask id="mask-2" fill="white">
                        <use xlink:href="#path-1"></use>
                    </mask>
                    <use id="Mask" fill="#D15B05" xlink:href="#path-1"></use>
                </g>
                <g id="icons/ticket" transform="translate(14.000000, 13.000000)" fill="#FFFFFF">
                    <g id="tickets">
                        <path d="M27.5333333,15.849023 C27.79105,15.849023 28,15.6462674 28,15.3961909 L28,11.7735344 C28,11.5234579 27.79105,11.3207024 27.5333333,11.3207024 L21.6598667,11.3207024 L24.5966,8.47103025 C24.778775,8.29419933 24.778775,8.00755663 24.5966,7.83072572 L22.0467333,5.35645135 C21.8645,5.17967704 21.5691,5.17967704 21.3868667,5.35645135 C20.6577583,6.06394484 19.475575,6.06394484 18.7464667,5.35645135 C18.0173583,4.64895787 18.0173583,3.50182106 18.7464667,2.79432757 C18.9286417,2.61749665 18.9286417,2.33085396 18.7464667,2.15402304 L16.6632667,0.132580736 C16.4810333,-0.0441935786 16.1856333,-0.0441935786 16.0034,0.132580736 L4.47346667,11.3207024 L0.466666667,11.3207024 C0.20895,11.3207024 0,11.5234579 0,11.7735344 L0,15.3961909 C0,15.6462674 0.20895,15.849023 0.466666667,15.849023 C1.49759167,15.849023 2.33333333,16.6599886 2.33333333,17.6603512 C2.33333333,18.6607138 1.49759167,19.4716794 0.466666667,19.4716794 C0.20895,19.4716794 0,19.674435 0,19.9245115 L0,23.5471679 C0,23.7972444 0.20895,24 0.466666667,24 L27.5333333,24 C27.79105,24 28,23.7972444 28,23.5471679 L28,19.9245115 C28,19.674435 27.79105,19.4716794 27.5333333,19.4716794 C26.5024083,19.4716794 25.6666667,18.6607138 25.6666667,17.6603512 C25.6666667,16.6599886 26.5024083,15.849023 27.5333333,15.849023 Z M16.3333333,1.09303753 L17.7837333,2.50043957 C16.8847583,3.721388 17.1760167,5.41831953 18.4342667,6.29064389 C19.4079083,6.96570328 20.7160917,6.96570328 21.6897333,6.29064389 L23.6068,8.15087798 L20.3401333,11.3207024 L18.8598667,11.3207024 L19.9299333,10.2823585 C20.1121083,10.1055276 20.1121083,9.81888487 19.9299333,9.64205395 L14.7966,4.66090131 C14.6143667,4.484127 14.3189667,4.484127 14.1367333,4.66090131 L7.27346667,11.3207024 L5.7932,11.3207024 L16.3333333,1.09303753 Z M17.5401333,11.3207024 L8.5932,11.3207024 L14.4666667,5.62135811 L18.9401333,9.96220621 L17.5401333,11.3207024 Z M24.7695,18.1106927 C24.9673667,19.2528483 25.8896167,20.1477577 27.0666667,20.3397585 L27.0666667,23.0943359 L23.3333333,23.0943359 L23.3333333,21.2830077 L22.4,21.2830077 L22.4,23.0943359 L5.6,23.0943359 L5.6,22.6415038 L4.66666667,22.6415038 L4.66666667,23.0943359 L0.933333333,23.0943359 L0.933333333,20.3397585 C2.45834167,20.0910405 3.48681667,18.6898083 3.2305,17.2100097 C3.03263333,16.0678541 2.11044167,15.1729447 0.933333333,14.9809439 L0.933333333,12.2263665 L4.66666667,12.2263665 L4.66666667,13.5848627 L5.6,13.5848627 L5.6,12.2263665 L27.0666667,12.2263665 L27.0666667,14.9809439 C25.5416583,15.2296619 24.5131833,16.6309507 24.7695,18.1106927 Z" id="Shape"></path>
                        <rect id="Rectangle" x="22.7027027" y="13.5" width="1.51351351" height="1.5"></rect>
                        <rect id="Rectangle" x="22.7027027" y="15.75" width="1.51351351" height="1.5"></rect>
                        <rect id="Rectangle" x="22.7027027" y="18.75" width="1.51351351" height="1.5"></rect>
                        <rect id="Rectangle" x="3.78378378" y="14.25" width="1.51351351" height="1.5"></rect>
                        <rect id="Rectangle" x="3.78378378" y="17.25" width="1.51351351" height="1.5"></rect>
                        <rect id="Rectangle" x="3.78378378" y="20.25" width="1.51351351" height="1.5"></rect>
                        <path d="M20.7099099,14.85 C20.180486,14.85 19.7513514,14.4470812 19.7513514,13.95 C19.7513514,13.7014875 19.5367541,13.5 19.2720721,13.5 L8.72792793,13.5 C8.46324595,13.5 8.24864865,13.7014875 8.24864865,13.95 C8.24864865,14.4470812 7.81951396,14.85 7.29009009,14.85 C7.02540811,14.85 6.81081081,15.0514875 6.81081081,15.3 L6.81081081,20.7 C6.81081081,20.9485125 7.02540811,21.15 7.29009009,21.15 C7.81951396,21.15 8.24864865,21.5529187 8.24864865,22.05 C8.24864865,22.2985125 8.46324595,22.5 8.72792793,22.5 L19.2720721,22.5 C19.5367541,22.5 19.7513514,22.2985125 19.7513514,22.05 C19.7513514,21.5529187 20.180486,21.15 20.7099099,21.15 C20.9745919,21.15 21.1891892,20.9485125 21.1891892,20.7 L21.1891892,15.3 C21.1891892,15.0514875 20.9745919,14.85 20.7099099,14.85 Z M20.2306306,20.3067 C19.5558653,20.4717375 19.0289577,20.9664562 18.853182,21.6 L9.14681802,21.6 C8.97104234,20.9664562 8.44413468,20.4717375 7.76936937,20.3067 L7.76936937,15.6933 C8.44413468,15.5282625 8.97104234,15.0335437 9.14681802,14.4 L18.853182,14.4 C19.0289577,15.0335437 19.5558653,15.5282625 20.2306306,15.6933 L20.2306306,20.3067 Z" id="Shape"></path>
                    </g>
                </g>
            </g>
        </g>
    </g>
</svg>