<?xml version="1.0" encoding="UTF-8"?>
<svg width="34px" height="34px" viewBox="0 0 34 34" version="1.1" xmlns="http://www.w3.org/2000/svg" xmlns:xlink="http://www.w3.org/1999/xlink">
    <!-- Generator: Sketch 55.2 (78181) - https://sketchapp.com -->
    <title>gift</title>
    <desc>Created with Sketch.</desc>
    <g id="b560" stroke="none" stroke-width="1" fill="none" fill-rule="evenodd">
        <g id="silent-launch-13" transform="translate(-124.000000, -451.000000)" stroke="#A50034" stroke-width="2">
            <g id="gift" transform="translate(125.000000, 452.000000)">
                <polyline id="Path" points="28.8 16 28.8 32 3.2 32 3.2 16"></polyline>
                <rect id="Rectangle" x="0" y="8" width="32" height="8"></rect>
                <path d="M16,32 L16,8" id="Path"></path>
                <path d="M16,8 L8.8,8 C6.590861,8 4.8,6.209139 4.8,4 C4.8,1.790861 6.590861,8.8817842e-16 8.8,8.8817842e-16 C14.4,8.8817842e-16 16,8 16,8 Z" id="Path"></path>
                <path d="M16,8 L23.2,8 C25.409139,8 27.2,6.209139 27.2,4 C27.2,1.790861 25.409139,8.8817842e-16 23.2,8.8817842e-16 C17.6,8.8817842e-16 16,8 16,8 Z" id="Path"></path>
            </g>
        </g>
    </g>
</svg>