<?xml version="1.0" encoding="UTF-8"?>
<svg width="148px" height="150px" viewBox="0 0 148 150" version="1.1" xmlns="http://www.w3.org/2000/svg" xmlns:xlink="http://www.w3.org/1999/xlink">
    <!-- Generator: sketchtool 55.2 (78181) - https://sketchapp.com -->
    <title>60A9175B-EFD2-4C41-8478-6363235BFA4D</title>
    <desc>Created with sketchtool.</desc>
    <defs>
        <rect id="path-1" x="0" y="0" width="188" height="170"></rect>
        <polygon id="path-3" points="0 0 147.059134 0 147.059134 149.999998 0 149.999998"></polygon>
    </defs>
    <g id="b560" stroke="none" stroke-width="1" fill="none" fill-rule="evenodd">
        <g id="about-lg-master-02-copy-3" transform="translate(-1148.000000, -278.000000)">
            <g id="Group-52-Copy" transform="translate(1128.000000, 270.000000)">
                <mask id="mask-2" fill="white">
                    <use xlink:href="#path-1"></use>
                </mask>
                <g id="Rectangle"></g>
                <g id="Group-42" mask="url(#mask-2)">
                    <g transform="translate(20.000000, 8.000000)">
                        <g id="Group-3" stroke-width="1" fill="none">
                            <mask id="mask-4" fill="white">
                                <use xlink:href="#path-3"></use>
                            </mask>
                            <g id="Clip-2"></g>
                            <path d="M51.40442,-0.00010526361 C22.0114048,0.156738281 7.2547266,50.859375 1.74736992,76.921875 C-3.75998676,102.984961 1.99477014,156.450586 44.7126384,149.358105 C51.6176457,148.212012 53.2293982,147.976758 58.9213558,145.110938 C69.0524969,140.010059 81.0424987,136.421191 91.8778688,135.337793 C96.3208496,134.893652 101.938908,133.422363 104.912092,132.88623 C128.754229,128.585742 153.085909,105.41748 145.719692,81.1415039 C140.1878,62.9106445 123.980019,55.5717773 107.748578,56.5807617 C98.834576,57.1347656 89.3477854,51.8900391 87.4454033,46.0959961 C81.2490063,27.2238281 74.1225949,-0.120410156 51.40442,-0.00010526361" id="Fill-1" fill="#E5E9EC" mask="url(#mask-4)"></path>
                        </g>
                        <path d="M125.283499,53.2238965 L19.5235575,53.2238965 C17.1021315,53.2238965 15.1422077,55.1897168 15.1422077,57.6184277 L15.1422077,117.366475 C15.1422077,119.795186 17.1021315,121.761006 19.5235575,121.761006 L56.379764,121.761006 L56.379764,128.645771 C56.379764,129.823506 57.6941689,130.517842 58.6636156,129.855732 L62.5513333,127.198506 L66.4393431,129.855732 C67.4087897,130.517842 68.7231947,129.823506 68.7231947,128.645771 L68.7231947,121.761006 L125.283499,121.761006 C127.704925,121.761006 129.664849,119.795186 129.664849,117.366475 L129.664849,57.6184277 C129.664849,55.1897168 127.704925,53.2238965 125.283499,53.2238965" id="Fill-4" fill="#C5CFD6"></path>
                        <path d="M129.664849,49.7082715 L129.664849,109.456318 C129.664849,111.885029 127.704925,113.85085 125.283499,113.85085 L19.5235575,113.85085 C17.1021315,113.85085 15.1422077,111.885029 15.1422077,109.456318 L15.1422077,49.7082715 C15.1422077,47.2795605 17.1021315,45.3137402 19.5235575,45.3137402 L125.283499,45.3137402 C127.704925,45.3137402 129.664849,47.2795605 129.664849,49.7082715" id="Fill-6" fill="#C5CFD6"></path>
                        <path d="M120.014196,45.3137402 L120.014196,106.889912 C120.014196,108.5071 118.705925,109.8196 117.093296,109.8196 L75.3244283,109.8196 C74.51826,109.8196 73.788035,109.491768 73.2596442,108.961201 C72.7309614,108.430928 72.4038206,107.698506 72.4038206,106.889912 C72.4038206,108.5071 71.0952574,109.8196 69.4829207,109.8196 L27.7137607,109.8196 C26.101424,109.8196 24.7928608,108.5071 24.7928608,106.889912 L24.7928608,45.3137402 L120.014196,45.3137402 Z" id="Fill-8" fill="#B4CFD6"></path>
                        <path d="M129.666573,49.7080078 L129.666573,100.259766 L15.1410102,100.259766 L15.1410102,49.7080078 C15.1410102,47.2792969 17.1035628,45.3134766 19.5223599,45.3134766 L125.285223,45.3134766 C127.703436,45.3134766 129.666573,47.2792969 129.666573,49.7080078" id="Fill-10" fill="#B4CFD6"></path>
                        <path d="M68.7233115,102.682969 L68.7233115,120.735703 C68.7233115,121.913437 67.4089066,122.607773 66.4391678,121.945664 L62.5514501,119.288437 L58.6637324,121.945664 C57.6939937,122.607773 56.3795887,121.913437 56.3795887,120.735703 L56.3795887,102.682969 L68.7233115,102.682969 Z" id="Fill-14" fill="#B4CFD6"></path>
                        <polygon id="Fill-16" fill="#B4CFD6" points="56.3795011 109.819336 68.7232239 109.819336 68.7232239 102.68291 56.3795011 102.68291"></polygon>
                        <path d="M72.4036745,46.2541699 L72.4036745,101.748311 C72.4036745,103.365498 71.0951114,104.677998 69.4827747,104.677998 L27.7139067,104.677998 C26.10157,104.677998 24.7930069,103.365498 24.7930069,101.748311 L24.7930069,41.8596387 C24.7930069,40.2424512 26.10157,38.9299512 27.7139067,38.9299512 L65.1014249,38.9299512 C69.1351876,38.9299512 72.4036745,42.2082715 72.4036745,46.2541699" id="Fill-18" fill="#FFFFFF"></path>
                        <path d="M120.012765,41.8593457 L120.012765,101.748018 C120.012765,103.365205 118.707123,104.677705 117.091865,104.677705 L75.3229971,104.677705 C73.7106604,104.677705 72.4023893,103.365205 72.4023893,101.748018 L72.4023893,46.253877 C72.4023893,42.2109082 75.6735051,38.9296582 79.7043469,38.9296582 L117.091865,38.9296582 C118.707123,38.9296582 120.012765,40.2421582 120.012765,41.8593457" id="Fill-19" fill="#FFFFFF"></path>
                        <path d="M112.602413,72.3778711 L112.602413,77.8771875 C112.602413,78.6854883 111.951344,79.3420313 111.141963,79.3420313 L80.0142251,79.3420313 C79.2080568,79.3420313 78.5537752,78.6854883 78.5537752,77.8771875 L78.5537752,72.3778711 C78.5537752,71.5692773 79.2080568,70.9130273 80.0142251,70.9130273 L111.141963,70.9130273 C111.951344,70.9130273 112.602413,71.5692773 112.602413,72.3778711" id="Fill-21" fill="#89C5CC"></path>
                        <path d="M40.5234839,20.4102539 C40.1496087,20.4102539 39.7760256,20.2672852 39.4906537,19.9813477 L38.186764,18.6732422 L36.8828743,19.9810547 C36.3124225,20.5529297 35.3879577,20.5529297 34.817506,19.9810547 C34.2470542,19.4088867 34.2470542,18.4813477 34.817506,17.9094727 L37.1542259,15.5657227 C37.7246776,14.9938477 38.6491424,14.9938477 39.2195942,15.5657227 L41.556314,17.9094727 C42.1267658,18.4816406 42.1267658,19.4091797 41.556314,19.9810547 C41.2709421,20.2669922 40.897359,20.4102539 40.5234839,20.4102539" id="Fill-22" fill="#B4CFD6"></path>
                        <path d="M50.7706139,30.3708984 C50.3967388,30.3708984 50.0231557,30.2279297 49.7377837,29.9419922 L48.433894,28.6341797 L47.1300044,29.9419922 C46.5595526,30.5138672 45.6350878,30.5138672 45.0646361,29.9419922 C44.4941843,29.3698242 44.4941843,28.4422852 45.0646361,27.8704102 L47.401356,25.5266602 C47.9718077,24.9547852 48.8962725,24.9547852 49.4667242,25.5266602 L51.8034441,27.8704102 C52.3738959,28.4425781 52.3738959,29.3701172 51.8034441,29.9419922 C51.5180722,30.2276367 51.144197,30.3708984 50.7706139,30.3708984" id="Fill-23" fill="#B4CFD6"></path>
                        <path d="M114.940535,130.761621 L114.064265,130.761621 L114.064265,129.882715 C114.064265,129.073828 113.410275,128.417871 112.603815,128.417871 C111.797062,128.417871 111.143365,129.073828 111.143365,129.882715 L111.143365,130.761621 L110.267095,130.761621 C109.460342,130.761621 108.806645,131.417578 108.806645,132.226465 C108.806645,133.035352 109.460342,133.691309 110.267095,133.691309 L111.143365,133.691309 L111.143365,134.570215 C111.143365,135.379102 111.797062,136.035059 112.603815,136.035059 C113.410275,136.035059 114.064265,135.379102 114.064265,134.570215 L114.064265,133.691309 L114.940535,133.691309 C115.746995,133.691309 116.400985,133.035352 116.400985,132.226465 C116.400985,131.417578 115.746995,130.761621 114.940535,130.761621" id="Fill-24" fill="#B4CFD6"></path>
                        <path d="M61.0530869,16.3086914 L60.1768169,16.3086914 L60.1768169,15.4297852 C60.1768169,14.6208984 59.5228275,13.9649414 58.716367,13.9649414 C57.9099066,13.9649414 57.2559171,14.6208984 57.2559171,15.4297852 L57.2559171,16.3086914 L56.3796471,16.3086914 C55.5731867,16.3086914 54.9191972,16.9646484 54.9191972,17.7735352 C54.9191972,18.5824219 55.5731867,19.2383789 56.3796471,19.2383789 L57.2559171,19.2383789 L57.2559171,20.1172852 C57.2559171,20.9261719 57.9099066,21.5821289 58.716367,21.5821289 C59.5228275,21.5821289 60.1768169,20.9261719 60.1768169,20.1172852 L60.1768169,19.2383789 L61.0530869,19.2383789 C61.8595474,19.2383789 62.5135368,18.5824219 62.5135368,17.7735352 C62.5135368,16.9646484 61.8595474,16.3086914 61.0530869,16.3086914" id="Fill-25" fill="#B4CFD6"></path>
                        <path d="M50.9350606,133.105371 L50.0587906,133.105371 L50.0587906,132.226465 C50.0587906,131.417578 49.4048012,130.761621 48.5983407,130.761621 C47.7918803,130.761621 47.1378908,131.417578 47.1378908,132.226465 L47.1378908,133.105371 L46.2616208,133.105371 C45.4551604,133.105371 44.8011709,133.761328 44.8011709,134.570215 C44.8011709,135.379102 45.4551604,136.035059 46.2616208,136.035059 L47.1378908,136.035059 L47.1378908,136.913965 C47.1378908,137.722852 47.7918803,138.378809 48.5983407,138.378809 C49.4048012,138.378809 50.0587906,137.722852 50.0587906,136.913965 L50.0587906,136.035059 L50.9350606,136.035059 C51.741521,136.035059 52.3955105,135.379102 52.3955105,134.570215 C52.3955105,133.761328 51.741521,133.105371 50.9350606,133.105371" id="Fill-26" fill="#B4CFD6"></path>
                        <path d="M63.9982302,96.4842773 L32.8693242,96.4842773 C32.0628638,96.4842773 31.4088743,95.8283203 31.4088743,95.0194336 L31.4088743,89.5198242 C31.4088743,88.7109375 32.0628638,88.0549805 32.8693242,88.0549805 L63.9982302,88.0549805 C64.8046907,88.0549805 65.4586802,88.7109375 65.4586802,89.5198242 L65.4586802,95.0194336 C65.4586802,95.8286133 64.8046907,96.4842773 63.9982302,96.4842773" id="Fill-27" fill="#89C5CC"></path>
                        <path d="M111.143365,55.9769238 L80.0141667,55.9769238 C79.2077063,55.9769238 78.5537168,55.3209668 78.5537168,54.5120801 L78.5537168,49.0124707 C78.5537168,48.203584 79.2077063,47.547627 80.0141667,47.547627 L111.143073,47.547627 C111.949533,47.547627 112.603523,48.203584 112.603523,49.0124707 L112.603523,54.5120801 C112.603523,55.3209668 111.949825,55.9769238 111.143365,55.9769238" id="Fill-28" fill="#89C5CC"></path>
                        <path d="M112.602413,60.6943359 L112.602413,66.1962891 C112.602413,67.0048828 111.951344,67.6611328 111.141963,67.6611328 L80.0142251,67.6611328 C79.2080568,67.6611328 78.5537752,67.0048828 78.5537752,66.1962891 L78.5537752,60.6943359 C78.5537752,59.8857422 79.2080568,59.2294922 80.0142251,59.2294922 L111.141963,59.2294922 C111.951344,59.2294922 112.602413,59.8857422 112.602413,60.6943359" id="Fill-29" fill="#89C5CC"></path>
                        <path d="M112.602413,60.6943359 L112.602413,66.1962891 C112.602413,67.0048828 111.951344,67.6611328 111.141963,67.6611328 L98.3571841,67.6611328 C96.8383162,65.1474609 95.8306058,62.2880859 95.4771769,59.2294922 L111.141963,59.2294922 C111.951344,59.2294922 112.602413,59.8857422 112.602413,60.6943359" id="Fill-30" fill="#89C5CC"></path>
                        <path d="M112.602413,72.3778711 L112.602413,77.4755273 C107.949419,76.6464258 103.828322,74.2763086 100.778902,70.9130273 L111.141963,70.9130273 C111.951344,70.9130273 112.602413,71.5692773 112.602413,72.3778711" id="Fill-31" fill="#89C5CC"></path>
                        <path d="M111.143365,97.2166992 L80.0141667,97.2166992 C79.2077063,97.2166992 78.5537168,96.5607422 78.5537168,95.7518555 L78.5537168,84.0603516 C78.5537168,83.2514648 79.2077063,82.5955078 80.0141667,82.5955078 L111.143073,82.5955078 C111.949533,82.5955078 112.603523,83.2514648 112.603523,84.0603516 L112.603523,95.7518555 C112.603523,96.5610352 111.949825,97.2166992 111.143365,97.2166992" id="Fill-32" fill="#89C5CC"></path>
                        <path d="M63.9982302,49.2336328 L32.8693242,49.2336328 C32.0625717,49.2336328 31.4088743,48.5776758 31.4088743,47.7687891 C31.4088743,46.9599023 32.0625717,46.3039453 32.8693242,46.3039453 L63.9982302,46.3039453 C64.8049828,46.3039453 65.4586802,46.9599023 65.4586802,47.7687891 C65.4586802,48.5776758 64.8049828,49.2336328 63.9982302,49.2336328" id="Fill-33" fill="#89C5CC"></path>
                        <path d="M63.9982302,54.9472559 L32.8693242,54.9472559 C32.0625717,54.9472559 31.4088743,54.2912988 31.4088743,53.4824121 C31.4088743,52.6735254 32.0625717,52.0175684 32.8693242,52.0175684 L63.9982302,52.0175684 C64.8049828,52.0175684 65.4586802,52.6735254 65.4586802,53.4824121 C65.4586802,54.2912988 64.8049828,54.9472559 63.9982302,54.9472559" id="Fill-34" fill="#89C5CC"></path>
                        <path d="M63.9982302,60.6609961 L32.8693242,60.6609961 C32.0625717,60.6609961 31.4088743,60.0050391 31.4088743,59.1961523 C31.4088743,58.3872656 32.0625717,57.7313086 32.8693242,57.7313086 L63.9982302,57.7313086 C64.8049828,57.7313086 65.4586802,58.3872656 65.4586802,59.1961523 C65.4586802,60.0050391 64.8049828,60.6609961 63.9982302,60.6609961" id="Fill-35" fill="#89C5CC"></path>
                        <path d="M63.9982302,66.3747363 L32.8693242,66.3747363 C32.0625717,66.3747363 31.4088743,65.7187793 31.4088743,64.9098926 C31.4088743,64.1010059 32.0625717,63.4450488 32.8693242,63.4450488 L63.9982302,63.4450488 C64.8049828,63.4450488 65.4586802,64.1010059 65.4586802,64.9098926 C65.4586802,65.7187793 64.8049828,66.3747363 63.9982302,66.3747363" id="Fill-36" fill="#89C5CC"></path>
                        <path d="M63.9982302,72.0884766 L32.8693242,72.0884766 C32.0625717,72.0884766 31.4088743,71.4325195 31.4088743,70.6236328 C31.4088743,69.8147461 32.0625717,69.1587891 32.8693242,69.1587891 L63.9982302,69.1587891 C64.8049828,69.1587891 65.4586802,69.8147461 65.4586802,70.6236328 C65.4586802,71.4325195 64.8049828,72.0884766 63.9982302,72.0884766" id="Fill-37" fill="#89C5CC"></path>
                        <path d="M63.9982302,77.8020996 L32.8693242,77.8020996 C32.0625717,77.8020996 31.4088743,77.1461426 31.4088743,76.3372559 C31.4088743,75.5280762 32.0625717,74.8724121 32.8693242,74.8724121 L63.9982302,74.8724121 C64.8049828,74.8724121 65.4586802,75.5280762 65.4586802,76.3372559 C65.4586802,77.1461426 64.8049828,77.8020996 63.9982302,77.8020996" id="Fill-38" fill="#89C5CC"></path>
                        <path d="M63.9982302,83.5158398 L32.8693242,83.5158398 C32.0625717,83.5158398 31.4088743,82.8598828 31.4088743,82.0509961 C31.4088743,81.2418164 32.0625717,80.5861523 32.8693242,80.5861523 L63.9982302,80.5861523 C64.8049828,80.5861523 65.4586802,81.2418164 65.4586802,82.0509961 C65.4586802,82.8598828 64.8049828,83.5158398 63.9982302,83.5158398" id="Fill-39" fill="#89C5CC"></path>
                        <path d="M116.2963,30.7365527 C127.87387,30.7365527 137.259014,40.1499316 137.259014,51.762334 C137.259014,63.3744434 127.87387,72.7881152 116.2963,72.7881152 C104.718729,72.7881152 95.3335854,63.3744434 95.3335854,51.762334 C95.3335854,40.1499316 104.718729,30.7365527 116.2963,30.7365527" id="Fill-40" fill="#B4CFD6"></path>
                        <path d="M67.2619853,120.735469 L63.3733913,118.078535 C62.8774225,117.739277 62.2248935,117.739277 61.7289247,118.078535 L57.8403307,120.735469 L57.8403307,106.142695 L67.2631537,106.142695 L67.2696595,120.740156 C67.2701638,120.740156 67.267535,120.739277 67.2619853,120.735469 L67.2619853,120.735469 Z M19.522506,112.386738 C17.9119218,112.386738 16.6016061,111.07248 16.6016061,109.457051 L16.6016061,49.707832 C16.6016061,48.0921094 17.9119218,46.7781445 19.522506,46.7781445 L23.3325278,46.7781445 L23.3325278,101.748164 C23.3325278,104.171602 25.2980013,106.142695 27.7138775,106.142695 L36.4441551,106.142695 C37.2506156,106.142695 37.904605,105.486738 37.904605,104.677852 C37.904605,103.869258 37.2506156,103.213008 36.4441551,103.213008 L27.7138775,103.213008 C26.9085854,103.213008 26.2534276,102.555879 26.2534276,101.748164 L26.2534276,41.8600781 C26.2534276,41.0526562 26.9085854,40.3952344 27.7138775,40.3952344 L65.1011036,40.3952344 C68.322272,40.3952344 70.9429033,43.024043 70.9429033,46.2546094 L70.9429033,101.748164 C70.9429033,102.555879 70.2877455,103.213008 69.4824534,103.213008 L45.3821087,103.213008 C44.5756482,103.213008 43.9216587,103.869258 43.9216587,104.677852 C43.9216587,105.486738 44.5756482,106.142695 45.3821087,106.142695 L54.9200151,106.142695 L54.9200151,112.386738 L19.522506,112.386738 Z M73.8640952,46.2546094 C73.8640952,43.024043 76.4847266,40.3952344 79.705895,40.3952344 L96.9596504,40.3952344 C95.0017712,43.7336133 93.8731355,47.617207 93.8731355,51.7624219 C93.8731355,64.164082 103.93213,74.2533398 116.296592,74.2533398 C117.058362,74.2533398 117.811662,74.214375 118.554155,74.139375 L118.554155,101.748457 C118.554155,102.556172 117.898705,103.213301 117.093705,103.213301 L75.3248373,103.213301 C74.5192531,103.213301 73.8640952,102.556172 73.8640952,101.748457 L73.8640952,46.2546094 Z M116.2963,32.2014844 C127.049884,32.2014844 135.798564,40.9764844 135.798564,51.7624219 C135.798564,62.5483594 127.049884,71.3236523 116.2963,71.3236523 C105.542715,71.3236523 96.7937433,62.5486523 96.7937433,51.7624219 C96.7937433,40.9764844 105.542715,32.2014844 116.2963,32.2014844 L116.2963,32.2014844 Z M72.4033532,105.014473 C73.1794363,105.713496 74.2017513,106.142695 75.3242531,106.142695 L117.092829,106.142695 C119.508705,106.142695 121.474179,104.171602 121.474179,101.748164 L121.474179,73.6410352 C131.349157,71.289668 138.719464,62.3758008 138.719464,51.7621289 C138.719464,39.3607617 128.660469,29.2715039 116.2963,29.2715039 C109.340761,29.2715039 103.114863,32.4642773 98.9987306,37.4652539 L79.705895,37.4652539 C76.6608569,37.4652539 73.9745053,39.0323437 72.4036453,41.4039258 C70.8324933,39.0326367 68.1464338,37.4652539 65.1013957,37.4652539 L27.7138775,37.4652539 C25.2980013,37.4652539 23.3325278,39.4366406 23.3325278,41.8597852 L23.3325278,43.8481641 L19.522506,43.8481641 C16.3013376,43.8481641 13.6807063,46.4766797 13.6807063,49.7075391 L13.6807063,109.456758 C13.6807063,112.687324 16.3013376,115.316133 19.522506,115.316133 L54.9200151,115.316133 L54.9200151,120.735469 C54.9200151,121.824141 55.5161707,122.816719 56.4756863,123.325605 C56.9056428,123.553242 57.3744472,123.666328 57.8414991,123.666328 C58.4169164,123.666328 58.990289,123.495234 59.4850894,123.156855 L62.5514501,121.06125 L65.6178108,123.156855 C66.514527,123.769453 67.6682825,123.834199 68.6277981,123.325605 C69.5873137,122.816719 70.1834693,121.824141 70.1834693,120.735762 L70.1834693,115.316426 L125.284785,115.316426 C128.506245,115.316426 131.126584,112.687617 131.126584,109.457051 L131.126584,77.4757031 C131.126584,76.6668164 130.472887,76.0108594 129.666134,76.0108594 C128.859966,76.0108594 128.205685,76.6668164 128.205685,77.4757031 L128.205685,109.457051 C128.205685,111.07248 126.895661,112.386738 125.284785,112.386738 L70.1831772,112.386738 L70.1831772,106.081172 C71.0287778,105.944062 71.7925931,105.564668 72.4033532,105.014473 L72.4033532,105.014473 Z" id="Fill-41" fill="#89C5CC"></path>
                    </g>
                </g>
            </g>
        </g>
    </g>
</svg>