<?xml version="1.0" encoding="UTF-8"?>
<svg width="56px" height="56px" viewBox="0 0 56 56" version="1.1" xmlns="http://www.w3.org/2000/svg" xmlns:xlink="http://www.w3.org/1999/xlink">
    <!-- Generator: Sketch 55.2 (78181) - https://sketchapp.com -->
    <title>Group 3</title>
    <desc>Created with Sketch.</desc>
    <defs>
        <circle id="path-1" cx="28" cy="28" r="28"></circle>
    </defs>
    <g id="b560" stroke="none" stroke-width="1" fill="none" fill-rule="evenodd">
        <g id="silent-launch-17" transform="translate(-495.000000, -640.000000)">
            <g id="Group-3" transform="translate(495.000000, 640.000000)">
                <g id="Bitmap-Copy-3">
                    <mask id="mask-2" fill="white">
                        <use xlink:href="#path-1"></use>
                    </mask>
                    <use id="Mask" fill="#CCCCCC" xlink:href="#path-1"></use>
                </g>
                <g id="exit" transform="translate(18.000000, 16.000000)" fill="#FFFFFF">
                    <path d="M0,12.5 C0,13.1903559 0.559644063,13.75 1.25,13.75 L10.7375,13.75 L7.8625,16.6125 C7.62585919,16.8472082 7.49275209,17.1667031 7.49275209,17.5 C7.49275209,17.8332969 7.62585919,18.1527918 7.8625,18.3875 C8.09720825,18.6241408 8.41670308,18.7572479 8.75,18.7572479 C9.08329692,18.7572479 9.40279175,18.6241408 9.6375,18.3875 L14.6375,13.3875 C14.7513008,13.2686204 14.840507,13.1284391 14.9,12.975 C15.0250225,12.6706733 15.0250225,12.3293267 14.9,12.025 C14.840507,11.8715609 14.7513008,11.7313796 14.6375,11.6125 L9.6375,6.6125 C9.32042679,6.29542677 8.85828251,6.17159558 8.42515244,6.28765242 C7.99202237,6.40370927 7.65370927,6.74202237 7.53765242,7.17515244 C7.42159558,7.60828251 7.54542677,8.07042679 7.8625,8.3875 L10.7375,11.25 L1.25,11.25 C0.559644063,11.25 0,11.8096441 0,12.5 Z M16.25,-4.4408921e-16 L3.75,-4.4408921e-16 C1.67893219,-4.4408921e-16 -8.8817842e-16,1.67893219 -8.8817842e-16,3.75 L-8.8817842e-16,7.5 C-8.8817842e-16,8.19035594 0.559644063,8.75 1.25,8.75 C1.94035594,8.75 2.5,8.19035594 2.5,7.5 L2.5,3.75 C2.5,3.05964406 3.05964406,2.5 3.75,2.5 L16.25,2.5 C16.9403559,2.5 17.5,3.05964406 17.5,3.75 L17.5,21.25 C17.5,21.9403559 16.9403559,22.5 16.25,22.5 L3.75,22.5 C3.05964406,22.5 2.5,21.9403559 2.5,21.25 L2.5,17.5 C2.5,16.8096441 1.94035594,16.25 1.25,16.25 C0.559644063,16.25 -8.8817842e-16,16.8096441 -8.8817842e-16,17.5 L-8.8817842e-16,21.25 C-8.8817842e-16,23.3210678 1.67893219,25 3.75,25 L16.25,25 C18.3210678,25 20,23.3210678 20,21.25 L20,3.75 C20,1.67893219 18.3210678,-4.4408921e-16 16.25,-4.4408921e-16 Z" id="Shape"></path>
                </g>
            </g>
        </g>
    </g>
</svg>