<?xml version="1.0" encoding="UTF-8"?>
<svg width="265px" height="149px" viewBox="0 0 265 149" version="1.1" xmlns="http://www.w3.org/2000/svg" xmlns:xlink="http://www.w3.org/1999/xlink">
    <!-- Generator: Sketch 55.2 (78181) - https://sketchapp.com -->
    <title>Group 322</title>
    <desc>Created with Sketch.</desc>
    <defs>
        <rect id="path-1" x="0" y="0" width="265" height="149" rx="3"></rect>
    </defs>
    <g id="b560" stroke="none" stroke-width="1" fill="none" fill-rule="evenodd">
        <g id="silent-launch-15" transform="translate(-585.000000, -764.000000)">
            <g id="Group-3" transform="translate(360.000000, 763.000000)">
                <g id="Group-322" transform="translate(225.000000, 1.000000)">
                    <mask id="mask-2" fill="white">
                        <use xlink:href="#path-1"></use>
                    </mask>
                    <use id="Mask" fill="#FFFFFF" xlink:href="#path-1"></use>
                    <g mask="url(#mask-2)">
                        <g transform="translate(-42.000000, -235.000000)">
                            <path d="M88.0445151,278.202275 C91.3098343,278.061442 94.5759986,277.919723 97.8413178,277.778004 C98.0297666,277.778004 97.8142758,269.23502 97.8683597,269.23502 C94.6030405,269.376739 91.3368763,269.517572 88.0715571,269.659291 C87.8831083,269.659291 88.0985991,278.202275 88.0445151,278.202275" id="Fill-5" fill="#FFBC1F"></path>
                            <path d="M186.956916,301.009611 C185.452123,304.435223 186.894094,308.328038 190.436688,310.455232 C190.592762,310.533235 191.847247,310.430044 191.815835,310.430044 C192.944675,310.404043 194.042104,310.351229 195.169962,310.30004 C196.298802,310.248038 197.396231,310.196036 198.524089,310.144035 C198.775379,310.144035 199.747162,309.962841 199.903237,310.066032 C196.330213,307.938025 194.918673,304.046023 196.424447,300.620411 C196.330213,300.802417 192.129947,300.750415 191.690191,300.776416 C190.562332,300.827605 189.464904,300.880419 188.336064,300.931608 C188.179008,300.931608 186.988327,300.90642 186.956916,301.009611" id="Fill-9" fill="#FF8164"></path>
                            <path d="M114.838488,270.707194 C113.57171,275.043944 114.114036,279.775721 116.285771,283.565511 C116.337576,283.626285 117.552549,283.505688 117.423039,283.505688 C118.353898,283.444914 119.258855,283.384141 120.188905,283.323367 C121.119764,283.262594 122.024721,283.201821 122.95558,283.11161 C123.084282,283.11161 124.066945,282.92929 124.092847,282.990063 C121.89521,279.198374 121.378786,274.468496 122.645564,270.131746 C122.593759,270.343503 119.07754,270.343503 118.741621,270.343503 C118.327996,270.434663 114.941287,270.343503 114.838488,270.707194" id="Fill-21" fill="#30D6AF"></path>
                            <path d="M170.211881,333.165326 C174.163348,335.11205 178.813166,335.201246 182.842331,333.436378 C182.910779,333.390481 183.00605,332.088913 182.983851,332.225738 C183.089298,331.23419 183.189194,330.268622 183.294641,329.276209 C183.399162,328.283795 183.499984,327.319093 183.574906,326.32235 C183.598955,326.185525 183.59618,325.122101 183.658153,325.102183 C179.624364,326.894763 174.980095,326.778721 171.027703,324.831998 C171.222872,324.916864 170.605917,328.632785 170.546719,328.987837 C170.561519,329.438147 169.879817,333.00512 170.211881,333.165326" id="Fill-23" fill="#30D6AF"></path>
                            <path d="M145.56076,246.849659 C143.518673,250.231663 141.477513,253.615478 139.435426,256.997482 C139.642044,256.678835 147.48425,260.669165 147.750166,260.234646 L153.8755,250.087729 C153.667956,250.434438 145.826676,246.416045 145.56076,246.849659" id="Fill-33" fill="#FFBC1F"></path>
                            <path d="M213.248608,287.202304 C211.206521,290.58434 209.165361,293.967281 207.123274,297.349317 C207.329892,297.031572 215.172098,301.021035 215.438014,300.587417 C217.480101,297.205381 219.522188,293.821535 221.563348,290.439499 C221.35673,290.787117 213.514524,286.768686 213.248608,287.202304" id="Fill-35" fill="#FFBC1F"></path>
                            <path d="M206.263424,346.519085 C208.182266,347.061388 210.100292,347.604555 212.019951,348.146859 C211.83697,348.088138 212.742069,343.569229 212.495373,343.497555 C210.57653,342.955252 208.657688,342.412085 206.738846,341.869781 C206.934896,341.925048 206.015911,346.447411 206.263424,346.519085" id="Fill-37" fill="#FFBC1F"></path>
                            <path d="M93.3799585,332.02109 C92.4866976,333.599959 91.5934367,335.178006 90.7001758,336.756053 C90.7909223,336.608034 94.2211388,338.469784 94.3379256,338.267491 C95.2311865,336.688622 96.1244474,335.110575 97.0177083,333.532528 C96.9269618,333.693704 93.4959562,331.818797 93.3799585,332.02109" id="Fill-39" fill="#FFBC1F"></path>
                            <path d="M231.139046,256.680864 C230.30688,259.911896 228.183132,262.590306 225.173367,264.16676 C225.388771,264.061498 227.297115,265.216907 227.591613,265.373976 C227.914718,265.531869 229.715361,266.687277 230.036784,266.530207 C233.047391,264.954576 235.170298,262.275344 236.002464,259.045134 C236.08324,258.624088 231.032186,257.022141 231.139046,256.680864" id="Fill-55" fill="#3F67F2"></path>
                            <path d="M270.604912,292.668788 C269.721325,295.849179 270.781076,299.20028 273.37373,301.329728 C273.786009,301.670262 275.788375,301.442647 276.349148,301.442647 C277.055649,301.471098 277.733557,301.471098 278.440058,301.50044 C278.586708,301.50044 279.205587,301.415084 279.323645,301.50044 C276.731913,299.34254 275.641726,296.01989 276.554827,292.8395 C276.436769,293.236938 270.722047,292.214447 270.604912,292.668788" id="Fill-85" fill="#FF8164"></path>
                            <path d="M130.682919,315.095961 C129.853129,318.303676 130.949474,321.656141 133.544737,323.76126 C133.95735,324.098115 135.936432,323.843463 136.490538,323.836315 C137.190702,323.855972 137.860742,323.846144 138.560906,323.864907 C138.706963,323.864014 139.317667,323.770195 139.435426,323.854185 C136.840164,321.71958 135.714607,318.395708 136.573608,315.188887 C136.463152,315.589181 130.793375,314.637588 130.682919,315.095961" id="Fill-87" fill="#FF8164"></path>
                            <path d="M105.882878,262.061217 C108.0277,260.250066 110.212437,258.440645 112.357259,256.63036 C112.479668,256.516135 108.84997,252.254349 108.911174,252.197237 C106.766353,254.007522 104.581615,255.816943 102.436793,257.628094 C102.29487,257.722415 105.923681,262.023142 105.882878,262.061217" id="Fill-91" fill="#3F67F2"></path>
                            <path d="M157.485519,265.983203 C159.395082,267.363215 161.277456,268.743226 163.187925,270.123238 C163.477032,270.348096 167.181965,266.039638 167.41307,266.208943 C165.502601,264.828932 163.62204,263.44892 161.711571,262.06979 C161.392555,261.84405 157.716624,266.152508 157.485519,265.983203" id="Fill-93" fill="#3F67F2"></path>
                            <path d="M273.006112,318.504524 C274.047589,319.11788 275.073846,319.731235 276.11641,320.34459 C276.275132,320.444519 278.295032,318.529507 278.42114,318.604453 C277.379663,317.991959 276.353406,317.378604 275.310842,316.765249 C275.137987,316.66532 273.13222,318.580332 273.006112,318.504524" id="Fill-95" fill="#3F67F2"></path>
                            <path d="M221.150014,238.746355 C220.871615,242.219595 218.901466,245.113802 216.14832,246.119239 C216.223456,246.087759 216.881491,246.361536 216.855391,246.361536 C217.436707,246.545643 218.017233,246.758368 218.598549,246.941522 C219.179866,247.123722 219.760391,247.306875 220.341708,247.490029 C220.51808,247.550126 220.896924,247.763805 221.074087,247.702754 C223.827233,246.697317 225.797382,243.80311 226.075871,240.32987 C226.100299,239.964517 221.124705,239.020132 221.150014,238.746355" id="Fill-97" fill="#FF8164"></path>
                            <path d="M284.738673,242.678642 C286.375758,244.062509 288.038462,245.446377 289.675548,246.806163 C289.839512,246.933794 291.939456,245.882247 292.184549,245.754617 C292.430496,245.65187 294.53044,244.549753 294.666224,244.677383 C293.029992,243.293516 291.366434,241.908845 289.730203,240.550664 C289.566238,240.422231 287.466294,241.472975 287.220347,241.601408 C286.975254,241.704155 284.87531,242.806272 284.738673,242.678642" id="Fill-101" fill="#FFBC1F"></path>
                            <path d="M269.397321,235.323329 C270.114173,237.973949 272.236879,239.976483 274.962351,240.539806 C275.020741,240.539806 275.6801,239.947346 275.622608,240.003855 C276.139137,239.552666 276.655665,239.130616 277.171295,238.678545 C277.687823,238.227356 278.205249,237.805306 278.693031,237.353235 C278.778371,237.268471 279.237407,236.761657 279.323645,236.789029 C276.598173,236.224823 274.474568,234.1958 273.757717,231.572552 C273.815209,231.741195 271.777842,233.264287 271.577519,233.433813 C271.319704,233.631594 269.33983,235.041668 269.397321,235.323329" id="Fill-103" fill="#30D6AF"></path>
                            <path d="M272.103608,335.552234 C273.694497,334.944343 275.635051,335.348623 276.671234,336.489428 C276.574207,336.392401 277.041038,335.466967 277.100536,335.311136 C277.157289,335.143543 277.621374,334.280589 277.497801,334.124757 C276.458872,332.970722 274.521063,332.578938 272.929259,333.186828 C272.745272,333.261068 272.57227,334.196058 272.500872,334.365855 C272.405675,334.648851 272.309563,334.921557 272.215281,335.204553 C272.196059,335.257477 272.132899,335.548558 272.103608,335.552234" id="Fill-112" fill="#FF8164"></path>
                            <path d="M242.660157,338.282879 C243.20464,339.905199 242.285267,341.656663 240.515945,342.410426 C240.668678,342.337835 241.859797,342.959921 242.064102,343.047706 C242.285267,343.133802 243.391094,343.742383 243.630111,343.654599 C245.415301,342.902524 246.317814,341.149372 245.773331,339.52874 C245.704899,339.34051 244.446339,338.99275 244.225174,338.89146 C243.850284,338.747123 243.493246,338.601941 243.119348,338.456759 C243.051907,338.428061 242.660157,338.312422 242.660157,338.282879" id="Fill-114" fill="#FF8164"></path>
                            <path d="M253.644632,288.064582 C256.76092,288.123407 259.599003,286.627057 261.172603,284.072783 C261.480755,283.573694 260.988099,281.724396 260.956221,281.137069 C260.894398,280.432094 260.832574,279.757449 260.771717,279.053393 C260.740805,278.876919 260.586247,278.319005 260.678982,278.202275 C259.105382,280.755629 256.267299,282.28231 253.15101,282.194074 C253.305569,282.194074 253.398304,288.064582 253.644632,288.064582" id="Fill-116" fill="#30D6AF"></path>
                            <path d="M65.4618479,247.902923 C67.0176898,250.34911 69.7043286,251.616034 72.4750909,251.233096 C72.730118,251.203569 73.3800827,248.758304 73.493428,248.463027 C73.6067733,248.16775 74.2284017,245.692958 74.4550924,245.66343 C71.6551082,246.046368 68.9968058,244.779444 67.4418493,242.333257 C67.583531,242.569479 66.5368576,244.779444 66.4235123,245.103326 C66.2818306,245.487187 65.2360427,247.549513 65.4618479,247.902923" id="Fill-120" fill="#3F67F2"></path>
                            <path d="M201.442016,274.615373 C201.470762,278.12331 199.922082,281.34636 197.195723,283.570971 C197.455333,283.342348 199.664268,283.971061 200.037065,284.027324 C200.696422,284.141636 201.385423,284.227369 202.04478,284.341681 C202.188509,284.369366 202.790374,284.540833 202.87751,284.455993 C205.602072,282.230489 207.150752,279.007438 207.122905,275.499502 C207.150752,275.156567 201.442016,274.872574 201.442016,274.615373" id="Fill-128" fill="#FF8164"></path>
                            <path d="M81.9539384,282.711905 C81.2599626,284.31469 80.5650414,285.917474 79.8701202,287.543829 C79.9013207,287.495928 82.6488596,287.811467 82.8899547,287.811467 C83.1319953,287.835797 85.8492791,288.176427 85.9097892,288.029683 C86.603765,286.427659 87.2986862,284.824874 87.9926619,283.198519 C87.9624069,283.24642 85.214868,282.930882 84.9737729,282.930882 C84.7317323,282.930882 81.9841935,282.591012 81.9539384,282.711905" id="Fill-134" fill="#30D6AF"></path>
                            <path d="M130.411289,281.547613 C132.898631,281.917535 135.413721,282.287456 137.901064,282.685902 C137.92881,282.685902 138.586672,278.444729 138.529389,278.444729 C136.042941,278.074808 133.526956,277.703995 131.040509,277.305549 C131.040509,277.305549 130.382647,281.547613 130.411289,281.547613" id="Fill-148" fill="#FF8164"></path>
                            <path d="M101.611916,297.92969 C102.176576,295.335683 102.744408,292.71209 103.335241,290.1219 C103.337619,290.09136 99.6482948,288.905064 99.6435364,288.96519 C99.0780833,291.558243 98.510251,294.182791 97.9202129,296.77298 C97.9202129,296.77298 101.608744,297.959276 101.611916,297.92969" id="Fill-150" fill="#FF8164"></path>
                            <path d="M115.970306,309.587665 L120.259465,309.587665 C120.380434,309.587665 120.807159,307.941521 120.837639,307.79383 C120.86812,307.646907 121.293892,306.000763 121.385333,306.000763 L117.096174,306.000763 C116.974253,306.000763 116.547528,307.646907 116.518,307.79383 C116.457039,307.916906 116.030314,309.587665 115.970306,309.587665" id="Fill-152" fill="#3F67F2"></path>
                            <path d="M231.988411,282.685902 C232.584129,285.141011 232.066325,287.657618 230.588394,289.529459 C230.666308,289.406464 232.299256,290.081018 232.480243,290.143477 C232.688014,290.204014 234.243047,290.910278 234.372904,290.725785 C235.850835,288.853944 236.342667,286.338297 235.772109,283.883188 C235.720978,283.667946 234.114002,283.330668 233.88026,283.26821 C233.673301,283.176924 232.039542,282.869434 231.988411,282.685902" id="Fill-154" fill="#3F67F2"></path>
                            <path d="M67.2350553,318.554919 C68.0410292,320.230406 68.847003,321.880494 69.6529769,323.556827 C69.7571836,323.746473 71.3691313,323.746473 71.6027823,323.772719 C71.8372474,323.799811 73.4752468,323.772719 73.5525877,323.935272 C72.747428,322.258939 71.94064,320.609698 71.1354803,318.932518 C71.0312736,318.744565 69.4193259,318.744565 69.1848607,318.716626 C68.9772614,318.689534 67.3384479,318.716626 67.2350553,318.554919" id="Fill-156" fill="#FA7697"></path>
                            <path d="M38.3549069,257.28197 C39.204337,258.583331 40.0803638,259.883844 40.9297939,261.158041 C40.9829871,261.240384 42.6552507,260.508634 42.8148305,260.42629 C42.9735792,260.37281 44.6458427,259.613045 44.6724394,259.668224 C43.8230093,258.366013 42.9469826,257.064652 42.0975525,255.790455 C42.0443592,255.70896 40.3720956,256.44156 40.2133469,256.522205 C40.0803638,256.577384 38.3815036,257.33545 38.3549069,257.28197" id="Fill-158" fill="#30D6AF"></path>
                            <path d="M105.203808,233.383175 C107.196708,235.017424 110.016193,235.569697 112.664476,234.848882 C112.835678,234.80148 112.949813,233.239464 112.977455,233.046845 C113.005989,232.878304 113.09159,231.292963 113.262792,231.244055 C110.613617,231.965623 107.795024,231.412597 105.801232,229.779101 C105.943901,229.898735 105.516787,231.364442 105.488253,231.580386 C105.431186,231.821159 104.975539,233.190557 105.203808,233.383175" id="Fill-160" fill="#FFBC1F"></path>
                            <path d="M160.224832,235.917563 C162.227994,236.262677 164.232003,236.608692 166.235165,236.952904 C166.126657,236.92407 166.641223,232.636728 166.478461,232.607893 C164.475299,232.261878 162.472137,231.917666 160.468975,231.572552 C160.577483,231.572552 160.062918,235.888728 160.224832,235.917563" id="Fill-162" fill="#FA7697"></path>
                            <path d="M207.123274,259.37104 L212.281936,259.37104 C212.410521,259.37104 212.487671,255.784139 212.538302,255.784139 L207.37964,255.784139 C207.276772,255.784139 207.200425,259.37104 207.123274,259.37104" id="Fill-164" fill="#30D6AF"></path>
                            <path d="M87.0928454,245.409651 C88.1683129,247.085171 89.2429174,248.72922 90.318385,250.403786 C90.2355239,250.282676 93.5154411,247.480925 93.4049596,247.328345 C92.3303552,245.653779 91.2557508,244.008776 90.1802832,242.333257 C90.2631442,242.424805 86.9832271,245.227509 87.0928454,245.409651" id="Fill-176" fill="#FF8164"></path>
                            <path d="M260.371047,254.887413 C262.403219,254.887413 264.43625,254.864505 266.468421,254.864505 C266.5785,254.864505 266.63268,251.300511 266.68858,251.300511 C264.655549,251.300511 262.622518,251.324158 260.590347,251.324158 C260.481127,251.324158 260.425227,254.887413 260.371047,254.887413" id="Fill-180" fill="#FF8164"></path>
                            <path d="M274.9802,270.331414 C274.632978,272.067817 274.284849,273.775696 273.908617,275.512098 C273.908617,275.45505 275.906729,275.427417 276.080793,275.427417 C276.25395,275.427417 278.252062,275.427417 278.252062,275.313321 C278.599284,273.576918 278.947412,271.86904 279.323645,270.131746 C279.323645,270.188794 277.325533,270.217318 277.152376,270.217318 C276.978311,270.217318 275.00921,270.188794 274.9802,270.331414" id="Fill-182" fill="#FF8164"></path>
                            <path d="M152.784999,340.209442 C152.552875,341.367044 152.321959,342.50563 152.070491,343.663232 C152.070491,343.6252 153.402789,343.606184 153.518851,343.606184 C153.634913,343.606184 154.966002,343.606184 154.966002,343.530119 C155.198126,342.372518 155.43025,341.233932 155.68051,340.07633 C155.68051,340.114362 154.348212,340.133378 154.233359,340.133378 C154.117297,340.133378 152.804343,340.114362 152.784999,340.209442" id="Fill-188" fill="#FF8164"></path>
                            <path d="M87.0971553,316.979213 C87.9790407,317.50234 88.8445342,318.018239 89.71877,318.554919 C89.6870789,318.54227 90.171187,317.631541 90.2148988,317.552936 C90.2575178,317.474331 90.7580178,316.568119 90.6946357,316.544628 C89.8127503,316.020597 88.9472569,315.504698 88.073021,314.968018 C88.1047121,314.980667 87.620604,315.8923 87.5768922,315.970905 C87.5331804,316.049509 87.0250308,316.935844 87.0971553,316.979213" id="Fill-190" fill="#FF8164"></path>
                            <path d="M63.6250367,301.230605 C63.6365728,302.226186 63.6458012,303.207717 63.6458012,304.207312 C63.641187,304.176201 64.4671278,303.929312 64.5386478,303.90924 C64.6109368,303.889168 65.4399538,303.659341 65.4299563,303.596114 C65.4176518,302.600533 65.4084234,301.620006 65.4084234,300.620411 C65.4138067,300.651523 64.5870968,300.897407 64.5155768,300.917479 C64.4432878,300.937551 63.6242683,301.149313 63.6250367,301.230605" id="Fill-192" fill="#FF8164"></path>
                            <path d="M120.482829,246.789816 C120.604622,249.16847 123.096619,250.944683 125.405927,250.252676 C125.557217,250.222507 125.983492,249.650235 126.012989,249.620066 C126.500161,249.108132 126.985429,248.566971 127.472601,248.055038 C127.95787,247.512934 128.445042,247.001001 128.93031,246.457955 C129.052103,246.308051 129.356586,245.827229 129.507875,245.796117 C127.198567,246.489067 124.70657,244.712854 124.585728,242.333257 C124.585728,242.394538 123.916819,243.026206 123.977715,242.965868 C123.491495,243.477802 123.005275,244.019905 122.519054,244.530896 C122.032834,245.073942 121.546614,245.585876 121.060394,246.127979 C120.969049,246.218486 120.482829,246.639913 120.482829,246.789816" id="Fill-202" fill="#FF8164"></path>
                            <path d="M40.1599162,292.549882 C41.7310573,292.537845 43.3032286,292.513772 44.8599461,292.500933 C45.1236917,292.500933 45.3421061,290.756431 45.574944,290.756431 C44.003803,290.767665 42.4326619,290.792541 40.8759444,290.804577 C40.6111685,290.804577 40.3937844,292.549882 40.1599162,292.549882" id="Fill-218" fill="#FF8164"></path>
                            <path d="M54.5999904,278.202275 C55.2426088,280.365953 55.8860014,282.530547 56.5286198,284.723526 C56.6029468,284.986317 58.0368375,285.395612 58.2598183,285.512815 C58.5068006,285.630018 59.9406913,285.980712 60.0150182,286.272804 C59.3723998,284.109125 58.7290072,281.945447 58.0863888,279.752468 C58.0120618,279.488761 56.5781711,279.079466 56.3559645,278.963179 C56.108208,278.845976 54.6743173,278.494367 54.5999904,278.202275" id="Fill-220" fill="#30D6AF"></path>
                            <path d="M216.148621,322.589115 C216.590468,325.700171 218.41689,328.388605 221.274595,330.207034 C221.421262,330.312689 223.483828,328.810401 223.690453,328.652744 C223.896156,328.520675 225.958722,326.991148 226.075871,327.070389 C223.218166,325.278375 221.392667,322.562701 220.949898,319.451645 C220.979416,319.636542 218.770183,320.849928 218.534962,321.007586 C218.2693,321.192483 216.119103,322.298562 216.148621,322.589115" id="Fill-230" fill="#FA7697"></path>
                            <path d="M150.265482,272.175925 C150.327375,275.116831 152.211256,277.713455 155.207283,279.091408 C155.577676,279.276407 158.079524,276.017768 158.388024,276.150503 C155.362017,274.77255 153.508116,272.149379 153.447189,269.23502 C153.447189,269.49966 152.087469,270.453692 151.839895,270.692614 C151.562342,270.957254 150.265482,271.805098 150.265482,272.175925" id="Fill-244" fill="#FF8164"></path>
                            <path d="M125.897857,337.637111 C125.95975,340.578244 127.84363,343.17424 130.839658,344.5523 C131.210051,344.738143 133.711898,341.478421 134.020398,341.611166 C130.994391,340.233936 129.141458,337.610562 129.079564,334.695977 C129.079564,334.960638 127.719844,335.914743 127.47227,336.152855 C127.194717,336.417515 125.897857,337.266254 125.897857,337.637111" id="Fill-246" fill="#FF8164"></path>
                            <path d="M230.603039,312.31542 C232.123543,313.498211 233.643055,314.681952 235.164552,315.864743 C235.038587,315.77449 235.576169,313.832623 235.607908,313.619816 C235.703125,313.073547 235.797351,312.557679 235.89356,312.01236 C235.89356,311.920207 236.051264,311.374888 235.988778,311.344487 C234.467282,310.160746 232.946778,308.977005 231.426273,307.794214 C231.55323,307.885417 231.014656,309.827284 230.983909,310.039142 C230.887699,310.586361 230.792482,311.102229 230.698256,311.647547 C230.698256,311.738751 230.540552,312.285019 230.603039,312.31542" id="Fill-248" fill="#3F67F2"></path>
                            <path d="M110.555278,309.181153 C112.626702,310.211742 114.699015,311.241459 116.770439,312.272047 C117.110789,312.438581 119.295959,308.958818 119.580324,309.09745 C117.508011,308.067733 115.436587,307.037145 113.365163,306.006556 C113.023925,305.840023 110.838755,309.320657 110.555278,309.181153" id="Fill-250" fill="#FF8164"></path>
                            <path d="M180.9231,351.192304 C179.160756,350.476064 177.399191,349.759824 175.636847,349.043584 C175.805209,349.114034 174.43415,353.073314 174.657853,353.171943 C176.420198,353.888183 178.181763,354.604423 179.944107,355.320663 C179.776524,355.250996 181.160834,351.276061 180.9231,351.192304" id="Fill-256" fill="#3F67F2"></path>
                            <path d="M285.858644,292.549882 C288.482789,291.743633 291.138641,290.938314 293.763719,290.131223 C293.747866,290.144513 292.706228,287.172187 292.643748,287.169529 C290.019602,287.97662 287.363751,288.781938 284.738673,289.588143 C284.769446,289.589915 285.811085,292.563126 285.858644,292.549882" id="Fill-280" fill="#FF8164"></path>
                            <path d="M295.571613,272.778322 C297.274507,274.69342 299.611583,275.952793 302.352475,276.407303 C302.58284,276.457015 303.736471,275.272605 303.938831,275.09664 C304.140288,274.945137 305.265914,273.736265 305.496279,273.760727 C302.784296,273.282544 300.447221,272.022383 298.716321,270.131746 C298.803047,270.232748 295.456882,272.652069 295.571613,272.778322" id="Fill-288" fill="#30D6AF"></path>
                            <path d="M283.857842,201.723583 C287.078069,204.605468 291.891729,208.387886 296.369144,205.524744 C298.245269,204.327008 298.474407,202.331376 298.775535,200.317895 C299.005552,198.790826 298.43929,197.055804 297.076751,196.169551 C295.16551,194.9379 293.112922,196.344481 292.263091,198.097353 C291.820617,199.016628 291.60816,199.988562 291.41326,200.977453 C291.201681,202.053809 290.954106,203.147122 290.900553,204.257393 C290.635419,209.185782 291.891729,214.237336 294.245445,218.59274 C295.448201,220.814174 296.935406,222.862463 298.704423,224.68495 C300.315415,226.332506 302.20822,227.877425 304.491702,228.502176 C306.596965,229.058204 309.040228,228.641406 310.57923,227.062572 C311.215725,226.419971 311.569529,225.639033 311.747748,224.77063 C311.941769,223.816547 312.260456,222.791956 312.242897,221.803065 C312.206902,220.206381 311.004146,218.523125 309.375596,218.142027 C307.535466,217.725229 306.172927,219.182683 305.784007,220.814174 C305.305538,222.809806 304.934176,224.78848 305.37665,226.818919 C305.889357,229.109969 307.092992,231.331403 308.313307,233.310077 C310.985709,237.648523 314.755517,241.345261 319.179378,243.965644 C323.090532,246.273651 328.983161,247.333049 330.788174,251.982978 C330.965515,252.452433 331.089302,252.937954 331.141978,253.441324 C331.160414,253.667127 331.124419,253.909887 331.177095,254.11784 C331.248206,254.516788 331.425547,252.799616 331.461542,252.763916 C331.407989,252.834424 331.319318,253.128949 331.30176,253.198564 C330.965515,253.99646 331.141978,254.986243 330.80661,255.784139 C331.177095,254.898778 331.30176,253.909887 331.478223,252.972761 C331.638005,252.157016 331.744234,251.376077 331.602888,250.542482 C331.284201,248.70393 330.098125,247.124204 328.611799,246.01304 C326.771669,244.624309 324.5593,243.843371 322.470717,242.871438 C320.294343,241.866482 318.224197,240.616088 316.348072,239.140785 C312.685371,236.2946 309.659165,232.667477 307.588141,228.571791 C306.650518,226.749304 305.784007,224.805438 305.659341,222.741083 C305.641783,222.342136 305.677778,221.960145 305.677778,221.577262 C305.694458,223.417599 305.199309,223.469364 305.535554,222.671468 C305.605788,222.480473 305.712895,222.289478 305.819124,222.116333 C306.261597,221.421075 306.969205,220.900747 307.800599,220.744559 C309.32292,220.449141 310.738134,221.561197 311.375508,222.844613 C311.534412,223.156989 311.658199,223.504172 311.711753,223.851354 C311.747748,224.042349 311.747748,224.233345 311.764428,224.42434 C311.870657,225.430188 312.50803,222.25467 311.959327,223.243561 C311.4633,224.111965 310.914597,224.805438 310.030527,225.325766 C306.031581,227.703388 301.730629,224.78848 299.005552,221.925338 C295.92667,218.679312 293.679184,214.687157 292.457991,210.418326 C291.820617,208.196891 291.448377,205.888884 291.395702,203.580877 C291.378144,203.094464 291.378144,202.608944 291.395702,202.140381 C291.395702,201.862813 291.41326,201.585246 291.448377,201.324635 C291.60816,199.606571 290.936547,202.852597 291.395702,201.741433 C291.7855,200.75165 292.175299,199.797567 293.023374,199.103201 C294.546573,197.836742 296.616719,198.270498 297.660571,199.867182 C298.13904,200.613312 298.315503,201.39425 298.368178,202.261761 C298.43929,203.30331 299.076663,200.058177 298.616631,201.01226 C298.492844,201.27287 298.386615,201.515631 298.209274,201.741433 C297.925704,202.140381 297.571901,202.504521 297.18298,202.799939 C295.395526,204.136013 292.865348,204.239543 290.794324,203.56392 C288.281704,202.730324 286.281792,200.924795 284.352114,199.207624 C284.424104,199.277239 284.122976,200.352702 284.087859,200.49104 C284.069422,200.595462 283.751613,201.620053 283.857842,201.723583" id="Fill-296" fill="#30D6AF"></path>
                            <path d="M180.940866,235.353076 C186.683085,238.338789 191.598302,244.119411 190.819894,250.830197 C190.478834,253.79206 189.092099,256.706221 186.731679,258.6169 C185.636509,259.501131 184.372159,260.193675 182.984524,260.504613 C182.837841,260.52758 182.692058,260.55143 182.546276,260.599131 C181.523997,260.886219 184.103991,260.55143 184.128288,260.576164 C183.884417,260.479879 183.495663,260.52758 183.227495,260.479879 C182.521978,260.384478 181.840759,260.193675 181.184737,259.955171 C178.386069,258.903988 176.147135,256.65852 175.68459,253.720509 C174.467934,253.769093 173.226981,253.81591 172.011226,253.864494 C179.942884,255.010195 186.269134,261.650314 187.825949,269.24533 C189.480853,277.342971 184.858101,284.961838 177.436682,288.496993 C175.441619,289.451891 173.299873,290.097617 171.110432,290.359088 C170.721679,290.407672 169.042478,290.503957 171.231918,290.407672 C173.348467,290.31227 171.71876,290.359088 171.183324,290.31227 C170.599293,290.26457 170.03956,290.215986 169.479826,290.121468 C168.336962,289.929781 167.217494,289.619726 166.146621,289.213387 C165.100046,289.261088 164.05437,289.308788 163.007794,289.357372 L163.323656,289.357372 L162.78912,289.357372 C165.756968,289.475741 167.777228,292.270651 168.020199,294.994009 C168.361259,298.743817 165.441105,301.944182 162.739626,304.18965 C159.674589,306.744289 155.830246,308.894356 153.980965,312.572612 C152.594229,315.318938 152.447547,318.878826 154.759373,321.171111 C154.95375,321.361914 156.316188,321.12341 156.608653,321.12341 C156.875921,321.12341 158.262657,320.836323 158.433637,321.028009 C156.04892,318.663289 156.267594,314.913482 157.801012,312.143306 C159.868966,308.393498 163.907687,306.291132 167.047415,303.520073 C169.723697,301.155354 172.424277,297.740335 171.54868,293.966677 C170.867461,291.052515 168.652824,289.165686 165.635482,289.261088 C164.97856,289.285821 164.297341,289.308788 163.640419,289.332639 C163.373151,289.357372 162.764823,289.500475 162.520952,289.40419 C166.536275,290.933263 171.256215,290.837862 175.465916,290.169168 C179.845696,289.475741 183.982505,287.374259 187.047541,284.221594 C193.373791,277.748427 193.180314,268.027195 187.802552,261.029321 C184.858101,257.207962 180.599807,254.461637 175.734084,253.744359 C175.368727,253.697541 172.05892,253.959012 172.05892,253.887461 C173.081199,260.456029 180.916569,261.507211 186.391519,260.456029 C193.666256,259.04709 196.07437,250.113803 193.471879,244.143261 C191.768381,240.226501 188.41088,237.192205 184.638527,235.233825 C184.274071,235.042138 183.227495,235.281525 182.790147,235.281525 C182.351899,235.281525 181.305323,235.544763 180.940866,235.353076" id="Fill-298" fill="#FA7697"></path>
                            <path d="M256.702886,221.551024 C260.232878,222.379403 261.645385,226.304893 261.343008,229.761204 C261.264866,230.609095 261.092443,231.480047 260.828288,232.284479 C260.683895,232.681818 260.539502,233.078269 260.343297,233.455208 C260.211644,233.736361 260.039221,233.971393 259.882087,234.241903 C261.948611,230.486701 261.726075,231.731931 260.790916,232.7847 C259.280732,234.457423 257.468171,235.767398 255.623334,237.003758 C252.059367,239.375371 248.486057,241.530577 245.868291,245.12702 C243.496843,248.366037 240.746575,251.848955 241.56622,256.206373 C242.768931,262.776645 249.972459,265.945595 251.300028,272.413872 C251.688191,274.295908 251.396007,276.209872 250.612036,277.959757 C250.40394,278.451995 250.153375,278.899001 249.90366,279.34512 C248.815614,281.214738 250.206886,279.071063 250.36402,278.800553 C250.206886,279.071063 249.974158,279.312304 249.800886,279.547336 C249.120538,280.458199 248.465672,281.379704 247.800614,282.32693 C245.395191,285.735348 243.115475,289.042657 243.297241,293.47901 C243.774588,304.822663 254.70771,310.261231 263.362816,314.067874 C263.692372,314.199137 265.532962,310.50602 265.786075,310.606241 C257.831702,307.109132 248.674618,302.77034 246.200396,293.238656 C245.695869,291.280346 245.53109,289.184564 245.877634,287.200533 C246.053454,286.240003 246.331199,285.319384 246.719362,284.413843 C246.957187,283.840896 247.235781,283.315842 247.540706,282.800544 C247.707183,282.50254 248.564199,281.267066 247.563639,282.656863 C246.617438,283.979255 247.326664,282.987683 247.544103,282.710078 C248.880166,280.87771 250.206886,279.071063 251.476698,277.181932 C252.574087,275.52606 253.547468,273.731829 253.818417,271.717643 C254.670338,264.843159 247.366584,260.756251 244.781094,255.271563 C244.0294,253.67068 243.653977,251.9137 243.838291,250.138095 C243.947011,249.121689 244.228153,248.111492 244.65199,247.1891 C244.860935,246.695974 246.118856,244.680902 244.92294,246.447638 C243.735517,248.188654 245.256743,246.247195 245.649153,245.887994 C248.858932,242.739443 252.950359,240.911509 256.370782,238.058301 C258.121338,236.602872 259.438715,234.822832 260.75779,232.953214 C261.951159,231.276056 263.089318,229.667191 263.525046,227.597129 C264.311565,223.849023 263.036657,219.068547 259.056497,218.12167 C258.895117,218.088505 257.948066,219.650364 257.818962,219.842824 C257.796878,219.984731 256.829443,221.601578 256.702886,221.551024" id="Fill-300" fill="#FFBC1F"></path>
                            <path d="M55.6814007,247.066152 C54.4663629,252.611894 53.1630054,258.372567 53.9235831,264.08628 C54.2545673,266.62932 54.967984,269.127206 56.2001713,271.32979 C57.4049195,273.535986 59.0975693,275.159702 61.0020147,276.70124 C62.7846991,278.140731 64.7002916,279.535068 65.8655961,281.629283 C67.2349789,284.076598 67.2769951,287.004345 67.7125908,289.737933 C68.4508743,294.235213 71.1296169,297.831231 75.1271515,299.613887 C79.4162266,301.53381 83.7850467,300.396847 87.9926619,298.785774 C86.6961642,299.290589 85.3087745,299.45856 84.0139917,299.962472 C83.9865526,299.966084 88.0715494,299.008832 85.8807083,299.389023 C85.6903495,299.412503 85.5265724,299.431468 85.3362136,299.454947 C84.9280569,299.503713 84.4898887,299.528096 84.0757297,299.519968 C83.1110736,299.519968 82.1335555,299.406182 81.1954811,299.141583 C79.4093669,298.690048 77.7192895,297.848389 76.2701617,296.687946 C74.8201765,295.528407 73.6119984,294.048278 72.7931126,292.3478 C71.8241692,290.286998 71.602084,287.991399 71.3045412,285.76353 C70.9855616,283.334276 70.4547864,280.988105 68.8693206,279.089855 C67.5033677,277.425501 65.7481224,276.24519 64.1377899,274.871624 C60.6538811,271.982708 58.6473965,267.986631 57.9545591,263.396335 C57.067933,257.52278 58.3815802,251.616713 59.6360618,245.920159 C59.5974755,246.070068 57.8448027,246.42678 57.6295772,246.48277 C57.4400759,246.505347 55.7379939,246.825936 55.6814007,247.066152" id="Fill-304" fill="#3F67F2"></path>
                        </g>
                    </g>
                </g>
            </g>
        </g>
    </g>
</svg>