<?xml version="1.0" encoding="UTF-8"?>
<svg width="19px" height="17px" viewBox="0 0 19 17" version="1.1" xmlns="http://www.w3.org/2000/svg" xmlns:xlink="http://www.w3.org/1999/xlink">
    <!-- Generator: sketchtool 63.1 (101010) - https://sketch.com -->
    <title>A1E5A6C9-0B4C-4A38-8CE3-FFEBF6EDEF33</title>
    <desc>Created with sketchtool.</desc>
    <g id="✏️-Iconography" stroke="none" stroke-width="1" fill="none" fill-rule="evenodd">
        <g id="Icons" transform="translate(-235.000000, -230.000000)" fill="#A50034">
            <g id="icons/20x20/paper-clip" transform="translate(232.000000, 226.000000)">
                <g id="clip-outline" transform="translate(12.353553, 12.646447) scale(-1, 1) rotate(45.000000) translate(-12.353553, -12.646447) translate(6.853553, 1.646447)">
                    <path d="M5.59459459,0.7 C8.29509858,0.7 10.4891892,2.93845641 10.4891892,5.6875 L10.4891892,5.6875 L10.4891892,17.784375 L8.74054054,17.784375 L8.74054054,5.6875 C8.74054054,3.91334046 7.32764466,2.471875 5.59459459,2.471875 C3.86154452,2.471875 2.44864865,3.91334046 2.44864865,5.6875 L2.44864865,5.6875 L2.44864865,17.484375 C2.44864865,18.6123627 3.34626074,19.528125 4.44594595,19.528125 C5.54563115,19.528125 6.44324324,18.6123627 6.44324324,17.484375 L6.44324324,17.484375 L6.44324324,8.03125 C6.44324324,7.54943421 6.06091493,7.159375 5.59459459,7.159375 C5.12827425,7.159375 4.74594595,7.54943421 4.74594595,8.03125 L4.74594595,8.03125 L4.74594595,17.784375 L2.9972973,17.784375 L2.9972973,8.03125 C2.9972973,6.57455016 4.16082034,5.3875 5.59459459,5.3875 C7.02836885,5.3875 8.19189189,6.57455016 8.19189189,8.03125 L8.19189189,8.03125 L8.19189189,17.484375 C8.19189189,19.5872467 6.51308507,21.3 4.44594595,21.3 C2.37880683,21.3 0.7,19.5872467 0.7,17.484375 L0.7,17.484375 L0.7,5.6875 C0.7,2.93845641 2.89409061,0.7 5.59459459,0.7 Z" id="Path"></path>
                </g>
            </g>
        </g>
    </g>
</svg>