<?xml version="1.0" encoding="UTF-8"?>
<svg width="32px" height="32px" viewBox="0 0 32 32" version="1.1" xmlns="http://www.w3.org/2000/svg" xmlns:xlink="http://www.w3.org/1999/xlink">
    <!-- Generator: sketchtool 55.2 (78181) - https://sketchapp.com -->
    <title>DDFCA754-BB49-492B-B27D-015EB3E8A21B</title>
    <desc>Created with sketchtool.</desc>
    <g id="✏️-Iconography" stroke="none" stroke-width="1" fill="none" fill-rule="evenodd">
        <g id="Icons" transform="translate(-247.000000, -319.000000)">
            <g id="icons/32x32/help" transform="translate(247.000000, 319.000000)">
                <g id="Group">
                    <path d="M16.376,22 L15.032,22 L15.032,20.672 L16.376,20.672 L16.376,22 Z M15.096,19.472 L15.096,18.72 C15.096,18.3039979 15.1573327,17.933335 15.28,17.608 C15.4026673,17.282665 15.5573324,16.986668 15.744,16.72 C15.9306676,16.453332 16.1306656,16.2053345 16.344,15.976 C16.5573344,15.7466655 16.7573324,15.5226678 16.944,15.304 C17.1306676,15.0853322 17.2853327,14.8640011 17.408,14.64 C17.5306673,14.4159989 17.592,14.1760013 17.592,13.92 C17.592,13.461331 17.4373349,13.0826682 17.128,12.784 C16.8186651,12.4853318 16.360003,12.336 15.752,12.336 C15.3039978,12.336 14.9013351,12.4053326 14.544,12.544 C14.1866649,12.6826674 13.874668,12.8319992 13.608,12.992 L13.192,12.048 C13.5226683,11.8453323 13.9199977,11.6693341 14.384,11.52 C14.8480023,11.3706659 15.3573306,11.296 15.912,11.296 C16.8080045,11.296 17.5279973,11.5119978 18.072,11.944 C18.6160027,12.3760022 18.888,13.0026626 18.888,13.824 C18.888,14.1973352 18.8240006,14.5279986 18.696,14.816 C18.5679994,15.1040014 18.4053343,15.3733321 18.208,15.624 C18.0106657,15.8746679 17.8000011,16.1146655 17.576,16.344 C17.3519989,16.5733345 17.1413343,16.8133321 16.944,17.064 C16.7466657,17.3146679 16.5840006,17.5839986 16.456,17.872 C16.3279994,18.1600014 16.264,18.4906648 16.264,18.864 L16.264,19.472 L15.096,19.472 Z" id="?" fill="#6B6B6B" fill-rule="nonzero"></path>
                </g>
            </g>
        </g>
    </g>
</svg>