<?xml version="1.0" encoding="UTF-8"?>
<svg width="235px" height="39px" viewBox="0 0 235 39" version="1.1" xmlns="http://www.w3.org/2000/svg" xmlns:xlink="http://www.w3.org/1999/xlink">
    <!-- Generator: sketchtool 55.2 (78181) - https://sketchapp.com -->
    <title>C5120A97-291E-401D-B003-28CEF23F4A87</title>
    <desc>Created with sketchtool.</desc>
    <defs>
        <radialGradient cx="48.1429562%" cy="48.4731464%" fx="48.1429562%" fy="48.4731464%" r="52.1274812%" gradientTransform="translate(0.481430,0.484731),scale(0.999920,1.000000),translate(-0.481430,-0.484731)" id="radialGradient-1">
            <stop stop-color="#BF0C3F" offset="0%"></stop>
            <stop stop-color="#BF0C3F" offset="50%"></stop>
            <stop stop-color="#BD0B3E" offset="75.3%"></stop>
            <stop stop-color="#B6093A" offset="85.95%"></stop>
            <stop stop-color="#A90534" offset="93.81%"></stop>
            <stop stop-color="#99002C" offset="100%"></stop>
        </radialGradient>
        <linearGradient x1="33.6419064%" y1="5.0373962%" x2="66.3637836%" y2="94.9700014%" id="linearGradient-2">
            <stop stop-color="#F38895" offset="0%"></stop>
            <stop stop-color="#EB7588" offset="8.64%"></stop>
            <stop stop-color="#D84869" offset="31.41%"></stop>
            <stop stop-color="#CA2752" offset="51.73%"></stop>
            <stop stop-color="#C21344" offset="68.66%"></stop>
            <stop stop-color="#BF0C3F" offset="80.11%"></stop>
            <stop stop-color="#BF0C3F" offset="100%"></stop>
        </linearGradient>
        <linearGradient x1="10.1748405%" y1="19.5526242%" x2="80.4357853%" y2="90.1763168%" id="linearGradient-3">
            <stop stop-color="#CD425C" offset="0%"></stop>
            <stop stop-color="#BE3351" offset="8.92%"></stop>
            <stop stop-color="#AA1F43" offset="24.93%"></stop>
            <stop stop-color="#9B1039" offset="43.04%"></stop>
            <stop stop-color="#930833" offset="64.8%"></stop>
            <stop stop-color="#900531" offset="100%"></stop>
        </linearGradient>
        <linearGradient x1="-0.176895307%" y1="50.0019604%" x2="99.9819495%" y2="50.0019604%" id="linearGradient-4">
            <stop stop-color="#B4BDC3" offset="0%"></stop>
            <stop stop-color="#AEB7BD" offset="3.97%"></stop>
            <stop stop-color="#6C737A" offset="49.83%"></stop>
            <stop stop-color="#434950" offset="83.04%"></stop>
            <stop stop-color="#333940" offset="100%"></stop>
        </linearGradient>
        <linearGradient x1="0.171428571%" y1="49.9854015%" x2="99.8408163%" y2="49.9854015%" id="linearGradient-5">
            <stop stop-color="#B3BBC1" offset="0%"></stop>
            <stop stop-color="#A6AEB4" offset="8.06%"></stop>
            <stop stop-color="#636B70" offset="51.96%"></stop>
            <stop stop-color="#3A4246" offset="83.76%"></stop>
            <stop stop-color="#2A3236" offset="100%"></stop>
        </linearGradient>
        <linearGradient x1="14.5764405%" y1="14.63431%" x2="85.2037753%" y2="85.1101968%" id="linearGradient-6">
            <stop stop-color="#ABBAC2" offset="0%"></stop>
            <stop stop-color="#262A30" offset="100%"></stop>
        </linearGradient>
        <linearGradient x1="10.1469125%" y1="18.9929899%" x2="81.3791169%" y2="90.2588246%" id="linearGradient-7">
            <stop stop-color="#B4BDC3" offset="0%"></stop>
            <stop stop-color="#3E454D" offset="100%"></stop>
        </linearGradient>
        <linearGradient x1="100.003903%" y1="50.00234%" x2="0.0038483203%" y2="50.00234%" id="linearGradient-8">
            <stop stop-color="#B4BDC3" offset="0%"></stop>
            <stop stop-color="#485159" offset="100%"></stop>
        </linearGradient>
        <linearGradient x1="0.0619834711%" y1="49.9975942%" x2="100.020661%" y2="49.9975942%" id="linearGradient-9">
            <stop stop-color="#B3BBC1" offset="0%"></stop>
            <stop stop-color="#A6AEB4" offset="8.06%"></stop>
            <stop stop-color="#636B70" offset="51.96%"></stop>
            <stop stop-color="#3A4246" offset="83.76%"></stop>
            <stop stop-color="#2A3236" offset="100%"></stop>
        </linearGradient>
        <radialGradient cx="29.8444915%" cy="28.8293599%" fx="29.8444915%" fy="28.8293599%" r="76.4772626%" gradientTransform="translate(0.298445,0.288294),scale(1.000000,0.999618),translate(-0.298445,-0.288294)" id="radialGradient-10">
            <stop stop-color="#FFFFFF" offset="0%"></stop>
            <stop stop-color="#FFFFFF" offset="35%"></stop>
            <stop stop-color="#FBFCFC" offset="51.1%"></stop>
            <stop stop-color="#EEF2F3" offset="67.73%"></stop>
            <stop stop-color="#DAE1E5" offset="84.53%"></stop>
            <stop stop-color="#C0CCD2" offset="100%"></stop>
        </radialGradient>
        <radialGradient cx="29.3363503%" cy="31.6117247%" fx="29.3363503%" fy="31.6117247%" r="78.0134994%" gradientTransform="translate(0.293364,0.316117),scale(0.997335,1.000000),translate(-0.293364,-0.316117)" id="radialGradient-11">
            <stop stop-color="#FFFFFF" offset="0%"></stop>
            <stop stop-color="#FFFFFF" offset="35%"></stop>
            <stop stop-color="#FBFCFC" offset="53.69%"></stop>
            <stop stop-color="#EEF2F4" offset="73.05%"></stop>
            <stop stop-color="#DAE2E6" offset="92.64%"></stop>
            <stop stop-color="#D0DADF" offset="100%"></stop>
        </radialGradient>
    </defs>
    <g id="✏️--Brand-assets" stroke="none" stroke-width="1" fill="none" fill-rule="evenodd">
        <g id="Brand-id" transform="translate(-137.000000, -116.000000)">
            <g id="__global/logo-Global/logo-primary" transform="translate(137.000000, 116.000000)">
                <g id="Logo-primary" transform="translate(0.000000, -0.000000)">
                    <g id="Group-2" transform="translate(0.000000, -0.000000)">
                        <path d="M127.2,6.2875 L127.2,31 L123.3,31 L123.3,9.4 L122.9625,9.4 L117.15,31 L111.8625,31 L105.9,9.4 L105.5625,9.4 L105.5625,31 L101.6625,31 L101.6625,6.2875 L108.7125,6.2875 L114.4875,27.925 L114.7875,27.925 L120.375,6.2875 L127.2,6.2875 Z M148.9875,31 L146.6625,24.175 L136.6125,24.175 L134.2875,31 L130.0875,31 L139.05,6.2875 L144.45,6.2875 L153.3,31 L148.9875,31 Z M141.4875,9.4 L137.6625,21.025 L145.575,21.025 L141.7875,9.4 L141.4875,9.4 Z M166.35,21.7 C165.849997,21.4499987 165.312503,21.2125011 164.7375,20.9875 C164.162497,20.7624989 163.568753,20.5375011 162.95625,20.3125 C162.343747,20.0874989 161.731253,19.8562512 161.11875,19.61875 C160.506247,19.3812488 159.937503,19.1250014 159.4125,18.85 C158.737497,18.5249984 158.137503,18.1812518 157.6125,17.81875 C157.087497,17.4562482 156.650002,17.0312524 156.3,16.54375 C155.95,16.0562476 155.681251,15.5000031 155.49375,14.875 C155.306249,14.2499969 155.2125,13.5000044 155.2125,12.625 C155.2125,11.5499946 155.431248,10.5937542 155.86875,9.75625 C156.306252,8.91874581 156.924996,8.21250287 157.725,7.6375 C158.525004,7.06249712 159.481244,6.63125144 160.59375,6.34375 C161.706256,6.05624856 162.95,5.9125 164.325,5.9125 C165.675007,5.9125 167.006243,6.04374869 168.31875,6.30625 C169.631257,6.56875131 170.849994,6.999997 171.975,7.6 L170.625,10.525 C169.874996,10.1499981 168.956255,9.80625156 167.86875,9.49375 C166.781245,9.18124844 165.600006,9.025 164.325,9.025 C162.599991,9.025 161.306254,9.31874706 160.44375,9.90625 C159.581246,10.4937529 159.15,11.3124947 159.15,12.3625 C159.15,13.162504 159.374998,13.8187474 159.825,14.33125 C160.275002,14.8437526 160.849996,15.2624984 161.55,15.5875 C162.45,16.0375022 163.518744,16.4749979 164.75625,16.9 C165.993756,17.3250021 167.162494,17.8124972 168.2625,18.3625 C168.837503,18.6625015 169.374998,18.9812483 169.875,19.31875 C170.375002,19.6562517 170.806248,20.0624976 171.16875,20.5375 C171.531252,21.0125024 171.818749,21.5749967 172.03125,22.225 C172.243751,22.8750032 172.35,23.6499955 172.35,24.55 C172.35,25.6500055 172.131252,26.6249957 171.69375,27.475 C171.256248,28.3250042 170.637504,29.0374971 169.8375,29.6125 C169.037496,30.1875029 168.068756,30.6312484 166.93125,30.94375 C165.793744,31.2562516 164.537507,31.4125 163.1625,31.4125 C161.737493,31.4125 160.312507,31.2562516 158.8875,30.94375 C157.462493,30.6312484 156.150006,30.1625031 154.95,29.5375 L156.4125,26.575 C157.537506,27.1250027 158.624995,27.5312487 159.675,27.79375 C160.725005,28.0562513 161.849994,28.1875 163.05,28.1875 C164.95,28.1875 166.324996,27.8687532 167.175,27.23125 C168.025004,26.5937468 168.45,25.775005 168.45,24.775 C168.45,24.0249962 168.243752,23.4000025 167.83125,22.9 C167.418748,22.3999975 166.925003,22.0000015 166.35,21.7 Z M192.7875,6.2875 L192.7875,9.4375 L185.25,9.4375 L185.25,31 L181.35,31 L181.35,9.4375 L173.8125,9.4375 L173.8125,6.2875 L192.7875,6.2875 Z M211.275,27.8875 L211.275,31 L195.5625,31 L195.5625,6.2875 L210.8625,6.2875 L210.8625,9.4375 L199.4625,9.4375 L199.4625,16.75 L210.4875,16.75 L210.4875,19.825 L199.4625,19.825 L199.4625,27.8875 L211.275,27.8875 Z M215.8875,31 L215.8875,6.2875 L224.9625,6.2875 C227.762514,6.2875 229.8875,6.8374945 231.3375,7.9375 C232.787507,9.0375055 233.5125,10.8624872 233.5125,13.4125 C233.5125,15.5625107 232.925006,17.2249941 231.75,18.4 C230.899996,19.2500042 229.925005,19.874998 228.825,20.275 L234.1875,31 L229.9125,31 L224.9625,20.875 L219.7875,20.875 L219.7875,31 L215.8875,31 Z M224.925,17.8 C226.225007,17.8 227.299996,17.4750032 228.15,16.825 C229.000004,16.1749967 229.425,15.0375081 229.425,13.4125 C229.425,11.9874929 229.000004,10.9687531 228.15,10.35625 C227.299996,9.74374694 226.225007,9.4375 224.925,9.4375 L219.7875,9.4375 L219.7875,17.8 L224.925,17.8 Z" id="MASTER" fill="#6B6B6B" fill-rule="nonzero"></path>
                        <g id="Group" transform="translate(0.000000, 0.000000)">
                            <polygon id="Path" fill="#6D6E70" fill-rule="nonzero" points="52.369709 6.41052632 46.7052632 6.41052632 46.7052632 31.1368421 64.1052632 31.1368421 64.1052632 26.3213389 52.369709 26.3213389"></polygon>
                            <path d="M77.0007289,22.1896907 L81.6916497,22.1896907 L81.6916497,26.5432544 C80.8272484,26.8730465 79.1416658,27.2028386 77.536349,27.2028386 C72.3483975,27.2028386 70.6195948,24.5706663 70.6195948,19.2292673 C70.6195948,14.1344419 72.2650445,11.1339504 77.4514525,11.1339504 C80.3348483,11.1339504 81.9787544,12.038567 83.3370994,13.7645816 L86.9197342,10.4774484 C84.7355772,7.35521112 80.9090578,6.41052632 77.3279666,6.41052632 C69.2612499,6.41052632 65.0210526,10.8072404 65.0210526,19.1891991 C65.0210526,27.5326307 68.8491157,32.0526316 77.2862901,32.0526316 C81.1560296,32.0526316 84.9424161,31.0663375 87,29.6285056 L87,17.546403 L76.9991853,17.546403 L76.9991853,22.1896907 L77.0007289,22.1896907 Z" id="Path" fill="#6D6E70" fill-rule="nonzero"></path>
                            <g>
                                <path d="M19.2177322,0 C8.61113179,0 0,8.60651621 0,19.2285019 C0,29.8504876 8.61113179,38.4570038 19.2177322,38.4570038 C29.8012547,38.4570038 38.3785389,29.9320295 38.4600808,19.3777389 L38.4600808,19.0777263 C38.3785389,8.52651284 29.8012547,0 19.2177322,0 Z" id="Path" fill="url(#radialGradient-1)" fill-rule="nonzero"></path>
                                <path d="M6.20949221,6.21256926 C-0.216932211,12.6389937 -0.866190316,22.4317137 4.77558568,28.0750282 C10.4173617,33.7152657 20.2023891,33.0690846 26.630352,26.6380446 C33.0675461,20.1977735 33.7168042,10.4081305 28.0781053,4.764816 C25.5026122,2.18932295 22.0624674,0.923115789 18.4653928,0.923115789 C14.1944438,0.923115789 9.705024,2.71549895 6.20949221,6.21256926" id="Path" fill="url(#linearGradient-2)" fill-rule="nonzero"></path>
                                <path d="M18.2330754,27.8457878 L18.70848,27.5750072 L18.7069415,11.3297078 L18.5884749,11.1404691 L18.7069415,11.1050829 L18.7069415,11.0804665 L18.7900219,11.0804665 L20.2270055,10.5881381 L20.4854779,11.0327722 C20.4854779,11.0327722 20.5239411,11.0712354 20.520864,11.1558543 L20.5070173,25.9487848 L24.0010105,25.9487848 L24.2810223,26.3872648 C24.3071773,26.4195739 24.3241011,26.4564985 24.3241011,26.5672724 L24.3241011,28.0550274 C24.3241011,28.1381078 24.2748682,28.1734939 24.2164042,28.1827251 L18.8684867,28.1827251 C18.7407891,28.1873406 18.6300152,28.1257996 18.6007832,28.1042602 L18.2330754,27.8457878 Z M35.5814981,18.3438493 L23.6871512,18.3484648 L23.6871512,20.2531604 L23.9825482,20.6485617 L23.9825482,20.6485617 C23.9825482,20.6485617 24.0179343,20.6870248 24.0840909,20.6870248 L33.1506265,20.6870248 L34.0245095,20.6870248 L34.0275865,20.6870248 L34.0383562,20.6870248 C33.5244884,28.2134956 27.1765288,34.1045128 19.5915941,34.1045128 C15.726816,34.1045128 12.0928168,32.6029112 9.35270147,29.8874122 C6.62335579,27.1688362 5.12175411,23.5594535 5.12175411,19.7146762 C5.12175411,15.8683604 6.54489095,12.1805128 9.27423663,9.46655242 C12.0205061,6.75720758 15.4760362,5.32637811 19.6131335,5.23714358 L20.3947048,5.22483537 L20.4824008,5.22483537 C20.5362493,5.21868126 20.5839436,5.21714274 20.5839436,5.09713768 L20.5839436,3.54014905 C20.5839436,3.42629811 20.5454804,3.37244968 20.5454804,3.37091116 L20.1946964,2.93089263 L19.4023554,3.04474358 L19.0023385,3.17705684 C9.96965053,3.17705684 3.19705768,10.7266055 3.19705768,19.7177533 C3.19705768,24.0671672 4.90636042,28.1627242 8.00033684,31.2413154 C11.0912362,34.3214451 15.1898703,35.8799722 19.5639006,35.8799722 C23.9579318,35.8799722 28.0842594,34.2229794 31.1736202,31.1428497 C34.2722122,28.0642585 35.9768994,23.97024 35.9768994,19.6208261 L35.9768994,18.6823251 L35.5814981,18.3438493 Z M13.329792,10.8143015 C11.9005011,10.8143015 10.7435293,11.9666577 10.7435293,13.3836404 C10.7435293,14.7990846 11.9005011,15.9468253 13.329792,15.9468253 C14.7575444,15.9468253 15.9145162,14.7990846 15.9145162,13.3836404 C15.9145162,11.9666577 14.7575444,10.8143015 13.329792,10.8143015 Z" id="Shape" fill="url(#linearGradient-3)" fill-rule="nonzero"></path>
                                <polygon id="Path" fill="#626D77" fill-rule="nonzero" points="18.6238611 27.4719259 18.2330754 27.8457878 24.0010105 27.8457878 23.6240716 27.4611562"></polygon>
                                <polygon id="Path" fill="#8699A3" fill-rule="nonzero" points="23.6240716 26.3134156 24.0010105 25.9487848 20.2254669 25.9487848 19.7777558 26.3134156"></polygon>
                                <polygon id="Path" fill="#8D9AA1" fill-rule="nonzero" points="20.2254669 10.5881381 18.2330754 10.5881381 18.6069373 10.9450762 19.7992952 10.9435377"></polygon>
                                <polygon id="Path" fill="url(#linearGradient-4)" fill-rule="nonzero" points="19.8100648 26.2841836 20.2254669 25.9487848 20.2254669 10.5881381 19.7992952 10.9435377"></polygon>
                                <polygon id="Path" fill="url(#linearGradient-5)" fill-rule="nonzero" points="23.6240716 26.3134156 23.6240716 27.4611562 24.0010105 27.8457878 24.0010105 25.9487848"></polygon>
                                <polygon id="Path" fill="#B4BDC3" fill-rule="nonzero" points="18.2330754 10.5881381 18.2330754 27.8457878 18.6238611 27.4719259 18.6069373 10.9450762"></polygon>
                                <path d="M10.9466147,13.0897819 C10.9466147,14.2636775 11.9066552,15.2144867 13.0867048,15.2144867 C14.2621389,15.2144867 15.2221794,14.2636775 15.2221794,13.0897819 C15.2221794,11.9112707 14.2621389,10.9573844 13.0867048,10.9573844 C11.9066552,10.9573844 10.9466147,11.9112707 10.9466147,13.0897819 Z" id="Path"></path>
                                <path d="M10.5742914,13.0897819 C10.5742914,14.4713785 11.6989541,15.5914257 13.0851663,15.5914257 C14.4729171,15.5914257 15.5945027,14.4713785 15.5945027,13.0897819 C15.5945027,11.7066467 14.4729171,10.5819824 13.0851663,10.5819824 C11.7004926,10.5804455 10.5742914,11.7066467 10.5742914,13.0897819 Z M15.2221794,13.0897819 C15.2221794,14.2636775 14.2621389,15.2144867 13.0867048,15.2144867 C11.9066552,15.2144867 10.9466147,14.2636775 10.9466147,13.0897819 C10.9466147,11.9112707 11.9066552,10.9573844 13.0867048,10.9573844 C14.2621389,10.9573844 15.2221794,11.9112707 15.2221794,13.0897819 Z" id="Shape" fill="url(#linearGradient-6)" fill-rule="nonzero"></path>
                                <polygon id="Path" fill="#505C61" fill-rule="nonzero" points="33.9568143 19.8162189 23.9887023 19.8039107 23.619456 20.1931579 33.5737213 20.1931579 33.7721912 19.9869954"></polygon>
                                <polygon id="Path" fill="#8F9CA4" fill-rule="nonzero" points="23.9887023 18.6807865 35.136864 18.6623242 35.5138029 18.2823082 23.619456 18.2853853"></polygon>
                                <path d="M35.5138029,19.2238863 L35.5138029,18.2823082 L35.136864,18.6623242 L35.136864,19.2238863 C35.136864,23.4763731 33.4844867,27.4734644 30.4797448,30.4828219 C27.47808,33.4921794 23.473296,35.1491722 19.2100396,35.1491722 C14.9652455,35.1491722 10.9681541,33.4921794 7.96495074,30.4828219 C4.95867032,27.4703874 3.303216,23.473296 3.303216,19.2238863 C3.303216,10.4404396 10.4389011,3.30013895 19.2085011,3.30013895 L19.8162189,3.29244632 L20.1885423,2.93089263 L19.2085011,2.92166147 C10.2342771,2.92166147 2.92627705,10.2342771 2.92627705,19.2238863 C2.92627705,23.5733002 4.62173305,27.6688573 7.69724716,30.7474484 C10.7696842,33.8245011 14.8590872,35.5245726 19.2069625,35.5245726 C23.5702232,35.5245726 27.6688573,33.8260396 30.7397558,30.7474484 C33.8229625,27.6673187 35.5138029,23.5733002 35.5138029,19.2238863 Z" id="Path" fill="url(#linearGradient-7)" fill-rule="nonzero"></path>
                                <path d="M19.8162189,4.47403453 L19.3962013,4.46480337 L19.0008,4.46480337 C15.1483301,4.52019032 11.5297162,6.051024 8.77883116,8.78344674 C5.99871411,11.5697179 4.46634189,15.2775663 4.46634189,19.2238863 C4.46634189,23.1686678 5.99871411,26.8719006 8.77883116,29.6597103 C11.5312547,32.4044413 15.1637154,33.9398905 19.0284935,33.9860463 L19.4085095,33.9860463 C27.0611394,33.8891192 33.4290998,27.8765583 33.9460446,20.2223899 L33.9598914,19.8146804 L33.7721912,19.9869954 L33.5737213,20.1931579 C33.0629305,27.7196286 26.7565112,33.6106459 19.2208093,33.6106459 C15.3806476,33.6106459 11.7697263,32.1090442 9.04807326,29.3935453 C6.33565137,26.6765078 4.84481937,23.0655865 4.84481937,19.2223478 C4.84481937,15.376032 6.33565137,11.7604952 9.04807326,9.04653474 C11.7758804,6.33718989 15.3852632,4.84020379 19.2208093,4.84020379 L20.1900808,4.84943495 L19.8162189,4.47403453 Z" id="Path" fill="url(#linearGradient-8)" fill-rule="nonzero"></path>
                                <polygon id="Path" fill="#B4BDC3" fill-rule="nonzero" points="23.9887023 18.6807865 23.619456 18.2853853 23.619456 20.1931579 23.9887023 19.8039107"></polygon>
                                <polygon id="Path" fill="url(#linearGradient-9)" fill-rule="nonzero" points="19.8177575 4.47711158 20.1900808 4.84943495 20.1900808 2.93089263 19.8177575 3.29090779"></polygon>
                                <path d="M18.4438535,10.7912236 L18.4438535,27.6427023 L23.8025406,27.6427023 L23.8025406,26.1411006 L19.9793027,26.1411006 L19.9793027,10.7912236 L18.4438535,10.7912236 Z M19.0038771,3.12628547 C10.2404312,3.23090526 3.12166989,10.4112076 3.12166989,19.2238863 C3.12166989,23.5256059 4.79712505,27.5626989 7.834176,30.6028269 C10.8681499,33.6444935 14.9175512,35.3184101 19.2008084,35.3184101 C23.5117592,35.3184101 27.5565448,33.6444935 30.5920573,30.6028269 C33.6321853,27.5611604 35.3014863,23.5240674 35.3014863,19.2238863 L35.3014863,18.4915478 L34.6660749,18.4946248 L23.8163874,18.4946248 L23.8163874,19.9885339 L33.7737297,19.9885339 C33.7721912,20.02392 33.7721912,20.1777726 33.7691141,20.2070046 C33.2521693,27.7919394 26.9288261,33.8168084 19.2115781,33.8168084 C15.3206451,33.8168084 11.6589524,32.2967444 8.89422063,29.5397053 C6.14641263,26.7872817 4.62942568,23.1240505 4.62942568,19.2238863 C4.62942568,15.3206451 6.14795116,11.6543368 8.89422063,8.90499032 C11.6589524,6.15718232 15.3206451,4.63711832 19.2115781,4.63711832 C19.3792775,4.63711832 19.7962181,4.63711832 19.9808413,4.64173389 L19.9808413,3.13397811 C19.8285272,3.13397811 19.5777474,3.12936253 19.3792775,3.12628547 L19.0038771,3.12628547 Z" id="Shape" fill="url(#radialGradient-10)" fill-rule="nonzero"></path>
                                <path d="M10.7650686,13.0897819 C10.7650686,14.3606046 11.8066509,15.3883402 13.0759352,15.3883402 C14.3452194,15.3883402 15.3837246,14.3606046 15.3837246,13.0897819 C15.3837246,11.8081895 14.3452194,10.7819924 13.0759352,10.7819924 C11.8066509,10.7819924 10.7650686,11.8081895 10.7650686,13.0897819" id="Path" fill="url(#radialGradient-11)" fill-rule="nonzero"></path>
                                <g transform="translate(3.077053, 3.077053)" fill="#FFFFFF" fill-rule="nonzero" id="Path">
                                    <path d="M10.4142846,8.11880337 C10.9435377,8.11880337 11.4266349,8.30804211 11.8158821,8.60959326 C11.3958644,8.06187789 10.7373752,7.70493979 10.0004211,7.70493979 C8.72805979,7.70493979 7.688016,8.73113684 7.688016,10.0127293 C7.688016,10.7481448 8.04495411,11.3958644 8.58497684,11.8158821 C8.28804126,11.429712 8.10187958,10.9543074 8.10187958,10.4265928 C8.10187958,9.149616 9.14192337,8.11880337 10.4142846,8.11880337"></path>
                                    <path d="M16.9007116,0.0569254737 C16.6991646,0.0538484211 16.3176101,0.0461557895 16.1237558,0.0461557895 C7.26645979,0.0461557895 0.0461557895,7.27107537 0.0461557895,16.1468337 C0.0461557895,20.4516303 1.72161095,24.4856463 4.75558484,27.5273128 C4.852512,27.62424 4.95405474,27.7165516 5.05252042,27.8119402 C2.18778442,24.8025827 0.609256421,20.8870333 0.609256421,16.7099343 C0.609256421,7.85417684 6.88028968,0.501559579 16.9007116,0.0569254737"></path>
                                    <path d="M16.9007116,23.064048 C16.9007116,23.064048 18.0053735,23.3840615 20.7208724,23.3840615 L20.7208724,23.064048 L16.9007116,23.064048 Z"></path>
                                    <path d="M16.9007116,8.18803705 L16.9007116,7.71263242 L15.3668008,7.71263242 L15.3668008,24.5656497 C15.3668008,24.5656497 15.8468211,22.0024648 15.8468211,8.18803705 L16.9007116,8.18803705 Z"></path>
                                    <path d="M32.2228952,15.4129566 L20.7377962,15.4160337 L20.7377962,16.9099427 L21.1547368,16.9099427 L21.1547368,15.8314358 C31.1628505,15.8314358 32.2228952,15.4129566 32.2228952,15.4129566"></path>
                                    <path d="M30.6966771,16.9099427 C30.6936,16.9422518 30.6936,17.1037971 30.6874459,17.1330291 C30.1766552,24.7133482 23.8502349,30.7397558 16.1329869,30.7397558 C12.2420539,30.7397558 8.57882274,29.2196918 5.81562947,26.4611141 C4.01555368,24.6625768 2.74626947,22.4701768 2.08470316,20.0808455 C3.81092968,26.3641869 9.55732547,30.9151478 16.3853053,30.9151478 C23.7148446,30.9151478 30.4674366,25.1749061 30.8874543,16.9114813 L30.6966771,16.9114813 L30.6966771,16.9099427 Z"></path>
                                </g>
                            </g>
                        </g>
                    </g>
                </g>
            </g>
        </g>
    </g>
</svg>